<svg width="1728" height="116" viewBox="0 0 1728 116" fill="none" xmlns="http://www.w3.org/2000/svg">
<path d="M0 0V112.017C127.639 121.693 176.384 113.227 253.573 92.1967C348.849 100.498 405.63 97.9226 515.149 76.1625C625.205 74.992 676.752 66.4382 732.712 23.1605C810.716 23.5811 850.139 18.3498 913.764 0H0Z" fill="#FCF9F6"/>
<path d="M1144.83 109.122C1223.5 110.098 1256.12 102.905 1303.88 83.0662C1292.8 60.8034 1277.04 54.9774 1237.36 52.5567C1182.85 35.113 1148.36 33.5815 1078.31 48.1027C1009.77 35.6861 976.509 37.6193 927.768 58.7922C890.576 59.7339 874.477 63.247 867.251 83.0662C879.418 92.5206 890.277 96.0874 927.768 94.6464C954.938 104.208 974.481 108.265 1030.3 109.122C1092.22 115.203 1111.75 113.24 1144.83 109.122Z" fill="#FCF9F6"/>
<path d="M1728 0H1329.38C1372.68 21.5801 1399.92 25.7968 1449.92 29.6187C1491.34 54.9961 1519.34 63.4607 1582.96 61.9099C1640.22 81.039 1671.88 84.846 1728 85.9612V0Z" fill="#FCF9F6"/>
<path d="M1354.5 0H907C937.935 10.0857 957.452 12.2988 999 5.5C1036.49 15.4237 1059.3 17.0757 1103.5 12C1163.83 21.8857 1197.67 19.536 1258 12C1295.39 11.66 1316.48 8.92254 1354.5 0Z" fill="#FCF9F6"/>
</svg>
