<svg width="1728" height="452" viewBox="0 0 1728 452" fill="none" xmlns="http://www.w3.org/2000/svg">
<path d="M918.861 363.664L918.012 352.921L908.369 353.683" stroke="#A69B88" stroke-linecap="round" stroke-linejoin="round"/>
<path d="M941.851 338.436L941.002 327.692L931.359 328.455" stroke="#A69B88" stroke-linecap="round" stroke-linejoin="round"/>
<path d="M927.878 356.668L926.812 343.194L913.779 344.225" stroke="#A69B88" stroke-linecap="round" stroke-linejoin="round"/>
<path d="M934.995 349.171L933.93 335.697L920.897 336.727" stroke="#A69B88" stroke-linecap="round" stroke-linejoin="round"/>
<path d="M900.506 373.221C902.614 332.174 917.853 325.922 948.562 318.979C946.728 350.736 938.795 364.229 900.506 373.221Z" fill="#63755C" stroke="#A69B88" stroke-linecap="round" stroke-linejoin="round"/>
<path d="M949.847 317.635L907.746 365.221" stroke="#A69B88" stroke-linecap="round" stroke-linejoin="round"/>
<path d="M1051.69 241.549C1030.46 271.917 1025.11 293.542 1019 334.522" stroke="#A69B88" stroke-width="2" stroke-linecap="round"/>
<path d="M950.99 317.247C978.487 325.701 993.084 339.158 1017.09 384.765" stroke="#A69B88" stroke-width="2" stroke-linecap="round"/>
<path d="M1079.33 316.822C1052.33 326.764 1038.49 340.996 1017.01 387.844" stroke="#A69B88" stroke-width="2" stroke-linecap="round"/>
<path d="M1016.69 443.521C1016.01 407.989 1016.62 388 1018.22 353.918C1019.38 290.56 1011.99 269.363 1001.18 237.636" stroke="#A69B88" stroke-width="2" stroke-linecap="round"/>
<path d="M920.264 296.815L927.4 296.033L926.699 289.628" stroke="#A69B88" stroke-linecap="round" stroke-linejoin="round"/>
<path d="M937.521 311.62L944.658 310.838L943.957 304.432" stroke="#A69B88" stroke-linecap="round" stroke-linejoin="round"/>
<path d="M925.099 302.674L934.049 301.693L933.1 293.036" stroke="#A69B88" stroke-linecap="round" stroke-linejoin="round"/>
<path d="M930.237 307.267L939.188 306.286L938.239 297.628" stroke="#A69B88" stroke-linecap="round" stroke-linejoin="round"/>
<path d="M913.527 284.786C940.902 285.364 945.372 295.385 950.613 315.694C929.43 315.112 920.286 310.101 913.527 284.786Z" fill="#63755C" stroke="#A69B88" stroke-linecap="round" stroke-linejoin="round"/>
<path d="M951.532 316.521L918.998 289.445" stroke="#A69B88" stroke-linecap="round" stroke-linejoin="round"/>
<path d="M987.634 332.023L979.832 334.057L981.658 341.059" stroke="#A69B88" stroke-linecap="round" stroke-linejoin="round"/>
<path d="M966.038 318.392L958.236 320.426L960.062 327.428" stroke="#A69B88" stroke-linecap="round" stroke-linejoin="round"/>
<path d="M981.304 326.302L971.52 328.853L973.987 338.317" stroke="#A69B88" stroke-linecap="round" stroke-linejoin="round"/>
<path d="M974.843 322.039L965.059 324.59L967.526 334.054" stroke="#A69B88" stroke-linecap="round" stroke-linejoin="round"/>
<path d="M997.083 344.286C966.573 348.114 959.97 337.71 950.83 316.001C974.461 313.189 985.44 317.263 997.083 344.286Z" fill="#63755C" stroke="#A69B88" stroke-linecap="round" stroke-linejoin="round"/>
<path d="M949.673 315.233L990.241 340.004" stroke="#A69B88" stroke-linecap="round" stroke-linejoin="round"/>
<path d="M975.099 267.335L977.365 277.871L986.822 275.837" stroke="#A69B88" stroke-linecap="round" stroke-linejoin="round"/>
<path d="M955.65 295.391L957.916 305.927L967.373 303.893" stroke="#A69B88" stroke-linecap="round" stroke-linejoin="round"/>
<path d="M967.089 275.462L969.932 288.675L982.713 285.926" stroke="#A69B88" stroke-linecap="round" stroke-linejoin="round"/>
<path d="M961.031 283.846L963.873 297.06L976.654 294.31" stroke="#A69B88" stroke-linecap="round" stroke-linejoin="round"/>
<path d="M992.02 255.427C995.373 296.392 981.098 304.61 951.58 315.563C949.187 283.843 955.261 269.418 992.02 255.427Z" fill="#63755C" stroke="#A69B88" stroke-linecap="round" stroke-linejoin="round"/>
<path d="M950.491 317.067L985.91 264.319" stroke="#A69B88" stroke-linecap="round" stroke-linejoin="round"/>
<path d="M1099.41 368.117L1099.67 357.343L1109.34 357.578" stroke="#A69B88" stroke-linecap="round" stroke-linejoin="round"/>
<path d="M1075.07 344.179L1075.33 333.405L1085 333.641" stroke="#A69B88" stroke-linecap="round" stroke-linejoin="round"/>
<path d="M1090.02 361.622L1090.35 348.11L1103.42 348.428" stroke="#A69B88" stroke-linecap="round" stroke-linejoin="round"/>
<path d="M1082.51 354.524L1082.83 341.013L1095.9 341.331" stroke="#A69B88" stroke-linecap="round" stroke-linejoin="round"/>
<path d="M1118.26 376.658C1113.91 335.787 1098.36 330.374 1067.31 325.116C1070.88 356.726 1079.53 369.766 1118.26 376.658Z" fill="#63755C" stroke="#A69B88" stroke-linecap="round" stroke-linejoin="round"/>
<path d="M1065.96 323.845L1110.59 369.065" stroke="#A69B88" stroke-linecap="round" stroke-linejoin="round"/>
<path d="M1094.37 301.444L1087.2 301.053L1087.55 294.618" stroke="#A69B88" stroke-linecap="round" stroke-linejoin="round"/>
<path d="M1077.94 317.168L1070.77 316.776L1071.12 310.342" stroke="#A69B88" stroke-linecap="round" stroke-linejoin="round"/>
<path d="M1089.85 307.558L1080.86 307.067L1081.34 298.371" stroke="#A69B88" stroke-linecap="round" stroke-linejoin="round"/>
<path d="M1084.97 312.424L1075.98 311.933L1076.46 303.236" stroke="#A69B88" stroke-linecap="round" stroke-linejoin="round"/>
<path d="M1100.44 289.067C1073.13 291.136 1069.22 301.386 1065.09 321.951C1086.21 320.215 1095.07 314.713 1100.44 289.067Z" fill="#63755C" stroke="#A69B88" stroke-linecap="round" stroke-linejoin="round"/>
<path d="M1064.22 322.825L1095.23 294.016" stroke="#A69B88" stroke-linecap="round" stroke-linejoin="round"/>
<path d="M1029.01 340.273L1036.91 341.879L1035.47 348.97" stroke="#A69B88" stroke-linecap="round" stroke-linejoin="round"/>
<path d="M1049.83 325.484L1057.73 327.09L1056.29 334.181" stroke="#A69B88" stroke-linecap="round" stroke-linejoin="round"/>
<path d="M1035.02 334.216L1044.93 336.229L1042.98 345.814" stroke="#A69B88" stroke-linecap="round" stroke-linejoin="round"/>
<path d="M1041.24 329.609L1051.15 331.622L1049.2 341.207" stroke="#A69B88" stroke-linecap="round" stroke-linejoin="round"/>
<path d="M1020.24 353.035C1050.92 355.194 1056.94 344.445 1064.88 322.27C1041.14 320.75 1030.4 325.417 1020.24 353.035Z" fill="#63755C" stroke="#A69B88" stroke-linecap="round" stroke-linejoin="round"/>
<path d="M1066 321.44L1026.84 348.385" stroke="#A69B88" stroke-linecap="round" stroke-linejoin="round"/>
<path d="M1038 274.997L1036.31 285.641L1026.76 284.125" stroke="#A69B88" stroke-linecap="round" stroke-linejoin="round"/>
<path d="M1058.95 301.951L1057.26 312.595L1047.71 311.079" stroke="#A69B88" stroke-linecap="round" stroke-linejoin="round"/>
<path d="M1046.44 282.674L1044.33 296.022L1031.41 293.974" stroke="#A69B88" stroke-linecap="round" stroke-linejoin="round"/>
<path d="M1052.95 290.717L1050.83 304.065L1037.92 302.017" stroke="#A69B88" stroke-linecap="round" stroke-linejoin="round"/>
<path d="M1020.46 264.03C1019.34 305.117 1034.04 312.544 1064.12 321.872C1064.77 290.069 1057.92 275.996 1020.46 264.03Z" fill="#63755C" stroke="#A69B88" stroke-linecap="round" stroke-linejoin="round"/>
<path d="M1065.28 323.313L1027.04 272.574" stroke="#A69B88" stroke-linecap="round" stroke-linejoin="round"/>
<path d="M1057.17 383.826L1052.36 374.184L1061.01 369.863" stroke="#A69B88" stroke-linecap="round" stroke-linejoin="round"/>
<path d="M1024.46 374.071L1019.64 364.429L1028.3 360.108" stroke="#A69B88" stroke-linecap="round" stroke-linejoin="round"/>
<path d="M1045.83 382.482L1039.8 370.39L1051.49 364.55" stroke="#A69B88" stroke-linecap="round" stroke-linejoin="round"/>
<path d="M1035.87 379.73L1029.83 367.638L1041.53 361.798" stroke="#A69B88" stroke-linecap="round" stroke-linejoin="round"/>
<path d="M1077.82 382.547C1054.85 348.468 1038.57 350.971 1008.67 360.861C1026.62 387.123 1040.38 394.591 1077.82 382.547Z" fill="#63755C" stroke="#A69B88" stroke-linecap="round" stroke-linejoin="round"/>
<path d="M1006.88 360.372L1067.49 379.427" stroke="#A69B88" stroke-linecap="round" stroke-linejoin="round"/>
<path d="M1021.49 327.276L1014.97 330.287L1012.27 324.437" stroke="#A69B88" stroke-linecap="round" stroke-linejoin="round"/>
<path d="M1014.34 348.863L1007.82 351.874L1005.12 346.024" stroke="#A69B88" stroke-linecap="round" stroke-linejoin="round"/>
<path d="M1020.37 334.792L1012.2 338.568L1008.54 330.662" stroke="#A69B88" stroke-linecap="round" stroke-linejoin="round"/>
<path d="M1018.33 341.376L1010.16 345.152L1006.51 337.246" stroke="#A69B88" stroke-linecap="round" stroke-linejoin="round"/>
<path d="M1021.06 313.497C997.904 328.11 999.242 339.001 1005.23 359.104C1023.07 347.68 1028.32 338.671 1021.06 313.497Z" fill="#63755C" stroke="#A69B88" stroke-linecap="round" stroke-linejoin="round"/>
<path d="M1004.87 360.287L1018.77 320.311" stroke="#A69B88" stroke-linecap="round" stroke-linejoin="round"/>
<path d="M981.927 392.189L989.66 389.908L991.708 396.849" stroke="#A69B88" stroke-linecap="round" stroke-linejoin="round"/>
<path d="M993.398 369.373L1001.13 367.092L1003.18 374.033" stroke="#A69B88" stroke-linecap="round" stroke-linejoin="round"/>
<path d="M984.402 384.023L994.1 381.162L996.867 390.543" stroke="#A69B88" stroke-linecap="round" stroke-linejoin="round"/>
<path d="M987.736 377.041L997.434 374.18L1000.2 383.561" stroke="#A69B88" stroke-linecap="round" stroke-linejoin="round"/>
<path d="M980.157 407.571C1008.27 395.115 1008.56 382.795 1005.2 359.482C983.499 369.261 976.195 378.414 980.157 407.571Z" fill="#63755C" stroke="#A69B88" stroke-linecap="round" stroke-linejoin="round"/>
<path d="M1005.79 358.228L983.808 400.373" stroke="#A69B88" stroke-linecap="round" stroke-linejoin="round"/>
<path d="M959.306 330.304L962.799 340.499L953.648 343.634" stroke="#A69B88" stroke-linecap="round" stroke-linejoin="round"/>
<path d="M990.437 344.308L993.93 354.504L984.779 357.638" stroke="#A69B88" stroke-linecap="round" stroke-linejoin="round"/>
<path d="M970.36 333.134L974.74 345.92L962.372 350.157" stroke="#A69B88" stroke-linecap="round" stroke-linejoin="round"/>
<path d="M979.874 337.193L984.254 349.979L971.886 354.216" stroke="#A69B88" stroke-linecap="round" stroke-linejoin="round"/>
<path d="M938.666 328.829C956.921 365.654 973.389 365.332 1004.33 359.492C990.018 331.082 977.374 321.856 938.666 328.829Z" fill="#63755C" stroke="#A69B88" stroke-linecap="round" stroke-linejoin="round"/>
<path d="M1006.04 360.218L948.488 333.294" stroke="#A69B88" stroke-linecap="round" stroke-linejoin="round"/>
<path d="M984.655 272.907L983.104 265.674L976.611 267.067" stroke="#A69B88" stroke-linecap="round" stroke-linejoin="round"/>
<path d="M998.017 253.657L996.465 246.424L989.972 247.817" stroke="#A69B88" stroke-linecap="round" stroke-linejoin="round"/>
<path d="M990.155 267.33L988.209 258.258L979.434 260.14" stroke="#A69B88" stroke-linecap="round" stroke-linejoin="round"/>
<path d="M994.321 261.579L992.375 252.507L983.6 254.389" stroke="#A69B88" stroke-linecap="round" stroke-linejoin="round"/>
<path d="M973.032 281.078C970.746 252.955 980.549 247.319 1000.82 239.811C1002.45 261.587 998.272 271.487 973.032 281.078Z" fill="#63755C" stroke="#A69B88" stroke-linecap="round" stroke-linejoin="round"/>
<path d="M1001.57 238.776L977.231 274.973" stroke="#A69B88" stroke-linecap="round" stroke-linejoin="round"/>
<path d="M945.786 227.089L955.381 222.181L950.976 213.569" stroke="#A69B88" stroke-linecap="round" stroke-linejoin="round"/>
<path d="M977.915 238.641L987.51 233.732L983.104 225.121" stroke="#A69B88" stroke-linecap="round" stroke-linejoin="round"/>
<path d="M955.708 232.732L967.74 226.576L961.786 214.937" stroke="#A69B88" stroke-linecap="round" stroke-linejoin="round"/>
<path d="M965.37 236.429L977.402 230.273L971.448 218.634" stroke="#A69B88" stroke-linecap="round" stroke-linejoin="round"/>
<path d="M929.917 213.813C968.629 200.003 980.252 211.674 998.451 237.366C968.423 247.863 952.918 245.717 929.917 213.813Z" fill="#63755C" stroke="#A69B88" stroke-linecap="round" stroke-linejoin="round"/>
<path d="M1000.18 238.034L940.083 217.426" stroke="#A69B88" stroke-linecap="round" stroke-linejoin="round"/>
<path d="M1001.6 199.328L1006.49 205.372L1011.92 200.987" stroke="#A69B88" stroke-linecap="round" stroke-linejoin="round"/>
<path d="M998.21 223.712L1003.1 229.756L1008.52 225.371" stroke="#A69B88" stroke-linecap="round" stroke-linejoin="round"/>
<path d="M999.09 207.166L1005.22 214.746L1012.55 208.819" stroke="#A69B88" stroke-linecap="round" stroke-linejoin="round"/>
<path d="M997.918 214.532L1004.04 222.112L1011.38 216.186" stroke="#A69B88" stroke-linecap="round" stroke-linejoin="round"/>
<path d="M1008.62 186.163C1024.1 211.439 1017.59 221.372 1002.15 238.022C990.295 218.384 989.513 207.124 1008.62 186.163Z" fill="#63755C" stroke="#A69B88" stroke-linecap="round" stroke-linejoin="round"/>
<path d="M1001.94 239.343L1007.58 193.873" stroke="#A69B88" stroke-linecap="round" stroke-linejoin="round"/>
<path d="M1039.67 186.729L1047.86 193.73L1054.15 186.377" stroke="#A69B88" stroke-linecap="round" stroke-linejoin="round"/>
<path d="M1041.22 220.83L1049.42 227.832L1055.7 220.479" stroke="#A69B88" stroke-linecap="round" stroke-linejoin="round"/>
<path d="M1038.23 198.047L1048.51 206.828L1057 196.89" stroke="#A69B88" stroke-linecap="round" stroke-linejoin="round"/>
<path d="M1038.49 208.385L1048.77 217.166L1057.26 207.227" stroke="#A69B88" stroke-linecap="round" stroke-linejoin="round"/>
<path d="M1045.9 166.999C1073.41 197.533 1067.05 212.725 1050.23 239.339C1029.08 215.572 1025.16 200.419 1045.9 166.999Z" fill="#63755C" stroke="#A69B88" stroke-linecap="round" stroke-linejoin="round"/>
<path d="M1050.27 241.194L1046.43 177.774" stroke="#A69B88" stroke-linecap="round" stroke-linejoin="round"/>
<path d="M1082.59 225.187L1079.51 231.634L1085.29 234.398" stroke="#A69B88" stroke-linecap="round" stroke-linejoin="round"/>
<path d="M1061.02 232.025L1057.94 238.472L1063.72 241.236" stroke="#A69B88" stroke-linecap="round" stroke-linejoin="round"/>
<path d="M1075.09 226.202L1071.23 234.287L1079.05 238.023" stroke="#A69B88" stroke-linecap="round" stroke-linejoin="round"/>
<path d="M1068.51 228.146L1064.65 236.231L1072.47 239.967" stroke="#A69B88" stroke-linecap="round" stroke-linejoin="round"/>
<path d="M1096.29 225.79C1081.46 248.645 1070.63 247.173 1050.71 240.961C1062.3 223.346 1071.34 218.238 1096.29 225.79Z" fill="#63755C" stroke="#A69B88" stroke-linecap="round" stroke-linejoin="round"/>
<path d="M1049.52 241.309L1089.48 227.98" stroke="#A69B88" stroke-linecap="round" stroke-linejoin="round"/>
<path d="M1020.5 260.641L1022.79 253.823L1016.67 251.774" stroke="#A69B88" stroke-linecap="round" stroke-linejoin="round"/>
<path d="M1041.21 251.157L1043.49 244.339L1037.37 242.29" stroke="#A69B88" stroke-linecap="round" stroke-linejoin="round"/>
<path d="M1027.87 258.705L1030.73 250.154L1022.46 247.385" stroke="#A69B88" stroke-linecap="round" stroke-linejoin="round"/>
<path d="M1034.2 255.953L1037.06 247.402L1028.79 244.633" stroke="#A69B88" stroke-linecap="round" stroke-linejoin="round"/>
<path d="M1006.74 261.723C1018.75 237.071 1029.74 237.21 1050.41 240.964C1040.99 259.984 1032.6 266.197 1006.74 261.723Z" fill="#63755C" stroke="#A69B88" stroke-linecap="round" stroke-linejoin="round"/>
<path d="M1051.54 240.471L1013.27 258.698" stroke="#A69B88" stroke-linecap="round" stroke-linejoin="round"/>
<path d="M1084.4 285.381L1073.93 282.832L1071.64 292.23" stroke="#A69B88" stroke-linecap="round" stroke-linejoin="round"/>
<path d="M1067.61 255.652L1057.14 253.104L1054.85 262.502" stroke="#A69B88" stroke-linecap="round" stroke-linejoin="round"/>
<path d="M1080.57 274.631L1067.44 271.435L1064.34 284.137" stroke="#A69B88" stroke-linecap="round" stroke-linejoin="round"/>
<path d="M1075.66 265.519L1062.53 262.323L1059.43 275.026" stroke="#A69B88" stroke-linecap="round" stroke-linejoin="round"/>
<path d="M1087.74 305.795C1049.41 290.972 1048.23 274.543 1051.22 243.201C1080.82 254.862 1091.16 266.612 1087.74 305.795Z" fill="#63755C" stroke="#A69B88" stroke-linecap="round" stroke-linejoin="round"/>
<path d="M1050.35 241.561L1082.41 296.417" stroke="#A69B88" stroke-linecap="round" stroke-linejoin="round"/>
<path d="M1057.65 241.577L1048.84 247.784L1054.42 255.691" stroke="#A69B88" stroke-linecap="round" stroke-linejoin="round"/>
<path d="M1024.23 234.659L1015.42 240.866L1020.99 248.773" stroke="#A69B88" stroke-linecap="round" stroke-linejoin="round"/>
<path d="M1047.04 237.388L1035.99 245.173L1043.52 255.86" stroke="#A69B88" stroke-linecap="round" stroke-linejoin="round"/>
<path d="M1036.96 235.088L1025.91 242.873L1033.44 253.56" stroke="#A69B88" stroke-linecap="round" stroke-linejoin="round"/>
<path d="M1075.24 252.495C1038.85 271.606 1025.7 261.683 1004.07 238.803C1032.33 224.192 1047.98 224.139 1075.24 252.495Z" fill="#63755C" stroke="#A69B88" stroke-linecap="round" stroke-linejoin="round"/>
<path d="M1002.26 238.383L1064.66 250.345" stroke="#A69B88" stroke-linecap="round" stroke-linejoin="round"/>
<path d="M488.307 330.502C443.908 273.314 409.203 277.069 372.646 302.913C425.459 334.08 448.32 344.631 488.307 330.502Z" fill="#63755C"/>
<path d="M394.483 302.913C483.368 307.795 516.783 329.348 517.404 435.383M488.307 330.502C443.908 273.314 409.203 277.069 372.646 302.913C425.459 334.08 448.32 344.631 488.307 330.502Z" stroke="#A69B88" stroke-width="2" stroke-linecap="round" stroke-linejoin="round"/>
<path d="M434.412 219.532C498.473 238.272 515.513 257.581 522.875 291.576C461.032 285.481 436.864 269.612 434.412 219.532Z" fill="#63755C" stroke="#A69B88" stroke-width="2" stroke-linecap="round" stroke-linejoin="round"/>
<path d="M444.688 234.557C461.404 258.559 478.361 270.855 522.539 290.628" stroke="#A69B88" stroke-width="2" stroke-linecap="round" stroke-linejoin="round"/>
<path d="M553.088 329.611C564.314 280.745 585.395 243.286 643.059 259.02C604.497 315.326 584.74 330.864 553.261 329.618C553.204 329.616 553.146 329.614 553.088 329.611Z" fill="#63755C"/>
<path d="M624.462 266.001C582.075 271.796 530.287 342.762 517.625 439.91M643.059 259.02C585.395 243.286 564.314 280.745 553.088 329.611C584.667 330.92 604.426 315.429 643.059 259.02Z" stroke="#A69B88" stroke-width="2" stroke-linecap="round" stroke-linejoin="round"/>
<path d="M563.45 254.773C550.828 222.214 560.63 171.169 590.844 145.646C615.009 192.008 614.647 215.595 563.45 254.773Z" fill="#63755C"/>
<path d="M563.45 254.773C550.828 222.214 560.63 171.169 590.844 145.646C615.009 192.008 614.647 215.595 563.45 254.773ZM563.45 254.773C590.122 213.577 600.689 192.68 599.472 165.472M563.45 254.773C549.711 294.774 531.402 322.189 523.045 373.896" stroke="#A69B88" stroke-width="2" stroke-linecap="round" stroke-linejoin="round"/>
<path d="M501.225 146.272C539.085 129.136 564.591 134.168 615.064 160.177C580.009 192.671 555.925 193.018 501.225 146.272Z" fill="#63755C"/>
<path d="M501.225 146.272C539.085 129.136 564.591 134.168 615.064 160.177C580.009 192.671 555.925 193.018 501.225 146.272ZM501.225 146.272C534.662 162.341 555.175 166.591 595.744 163.441" stroke="#A69B88" stroke-width="2" stroke-linecap="round" stroke-linejoin="round"/>
<path d="M501.256 147.257C475.071 114.986 450.01 108.069 393.234 108.733C410.036 153.482 431.417 164.573 501.256 147.257Z" fill="#63755C"/>
<path d="M501.256 147.257C475.071 114.986 450.01 108.069 393.234 108.733C410.036 153.482 431.417 164.573 501.256 147.257ZM501.256 147.257C464.162 146.659 443.917 141.277 409.049 120.301" stroke="#A69B88" stroke-width="2" stroke-linecap="round" stroke-linejoin="round"/>
<path d="M465.67 78.7617C471.885 123.885 480.034 138.084 500.635 148.985C507.456 107.97 502.923 90.5219 465.67 78.7617Z" fill="#63755C"/>
<path d="M500.635 148.985C480.034 138.084 471.885 123.885 465.67 78.7617C502.923 90.5219 507.456 107.97 500.635 148.985ZM500.635 148.985C494.624 118.524 489.103 105.342 474.286 90.8132" stroke="#A69B88" stroke-width="2" stroke-linecap="round" stroke-linejoin="round"/>
<path d="M516.509 440.353C529.555 324.23 531.743 259.816 500.48 149.666" stroke="#A69B88" stroke-width="2" stroke-linecap="round" stroke-linejoin="round"/>
<path d="M510.791 332.999C525.098 280.109 537.02 264.411 563.361 254.549C565.299 304.528 557.215 324.655 510.791 332.999Z" fill="#63755C"/>
<path d="M563.361 254.549C537.02 264.411 525.098 280.109 510.791 332.999C557.215 324.655 565.299 304.528 563.361 254.549ZM563.361 254.549C551.529 289.976 542.909 304.862 522.947 319.935" stroke="#A69B88" stroke-width="2" stroke-linecap="round" stroke-linejoin="round"/>
<path d="M495.764 233.711C536.523 231.494 550.412 236.268 563.535 252.604C528.624 265.635 512.498 264.611 495.764 233.711Z" fill="#63755C"/>
<path d="M563.535 252.604C550.412 236.268 536.523 231.494 495.764 233.711C512.498 264.611 528.624 265.635 563.535 252.604ZM563.535 252.604C535.708 252.497 523.165 249.871 507.843 239.264" stroke="#A69B88" stroke-width="2" stroke-linecap="round" stroke-linejoin="round"/>
<path d="M631.707 233.711C590.947 231.494 577.059 236.268 563.936 252.604C598.846 265.635 614.972 264.611 631.707 233.711Z" fill="#63755C"/>
<path d="M563.936 252.604C577.059 236.268 590.947 231.494 631.707 233.711C614.972 264.611 598.846 265.635 563.936 252.604ZM563.936 252.604C591.763 252.497 604.306 249.871 619.628 239.264" stroke="#A69B88" stroke-width="2" stroke-linecap="round" stroke-linejoin="round"/>
<path d="M499.962 148.694C466.836 158.727 459.581 170.51 463.48 197.525C490.747 178.192 500.008 168.37 499.962 148.694Z" fill="#63755C"/>
<path d="M499.962 148.694C466.836 158.727 459.581 170.51 463.48 197.525C490.747 178.192 500.008 168.37 499.962 148.694ZM499.962 148.694C481.393 161.442 474.89 170.245 467.683 187.809" stroke="#A69B88" stroke-width="2" stroke-linecap="round" stroke-linejoin="round"/>
<path d="M577.959 258.081C513.898 276.82 496.858 296.13 489.496 330.125C551.339 324.03 575.507 308.161 577.959 258.081Z" fill="#63755C" stroke="#A69B88" stroke-width="2" stroke-linecap="round" stroke-linejoin="round"/>
<path d="M567.68 273.107C550.964 297.11 534.007 309.406 489.828 329.178" stroke="#A69B88" stroke-width="2" stroke-linecap="round" stroke-linejoin="round"/>
<path d="M460.545 270.622C461.938 308.789 470.255 320.954 488.077 329.814C493.385 294.655 487.979 279.019 460.545 270.622Z" fill="#63755C" stroke="#A69B88" stroke-width="2" stroke-linecap="round" stroke-linejoin="round"/>
<path d="M467.434 278.435C478.399 291.079 482.837 302.213 487.596 329.497" stroke="#A69B88" stroke-width="2" stroke-linecap="round" stroke-linejoin="round"/>
<path d="M460.545 388.752C461.938 350.585 470.255 338.42 488.077 329.56C493.385 364.719 487.979 380.355 460.545 388.752Z" fill="#63755C" stroke="#A69B88" stroke-width="2" stroke-linecap="round" stroke-linejoin="round"/>
<path d="M467.434 380.939C478.399 368.295 482.837 357.161 487.596 329.877" stroke="#A69B88" stroke-width="2" stroke-linecap="round" stroke-linejoin="round"/>
<path d="M240.423 173.217L225.316 167.873L230.113 154.314" stroke="#A69B88" stroke-linecap="round" stroke-linejoin="round"/>
<path d="M195.358 196.571L180.252 191.227L185.048 177.668" stroke="#A69B88" stroke-linecap="round" stroke-linejoin="round"/>
<path d="M226.918 183.484L207.973 176.782L214.456 158.456" stroke="#A69B88" stroke-linecap="round" stroke-linejoin="round"/>
<path d="M213.41 190.834L194.465 184.132L200.948 165.806" stroke="#A69B88" stroke-linecap="round" stroke-linejoin="round"/>
<path d="M261.197 150.526C201.425 137.798 186.594 157.287 164.832 198.735C211.154 208.291 233.581 202.075 261.197 150.526Z" fill="#63755C" stroke="#A69B88" stroke-linecap="round" stroke-linejoin="round"/>
<path d="M162.41 200.062L246.926 157.854" stroke="#A69B88" stroke-linecap="round" stroke-linejoin="round"/>
<path d="M158.992 146.548L152.98 155.307L145.119 149.911" stroke="#A69B88" stroke-linecap="round" stroke-linejoin="round"/>
<path d="M166.223 179.406L160.211 188.165L152.35 182.769" stroke="#A69B88" stroke-linecap="round" stroke-linejoin="round"/>
<path d="M163.256 156.952L155.717 167.937L145.092 160.643" stroke="#A69B88" stroke-linecap="round" stroke-linejoin="round"/>
<path d="M165.643 166.868L158.104 177.853L147.478 170.559" stroke="#A69B88" stroke-linecap="round" stroke-linejoin="round"/>
<path d="M148.027 129.347C129.63 165.445 139.569 178.284 162.383 199.326C176.443 171.298 176.307 155.87 148.027 129.347Z" fill="#63755C" stroke="#A69B88" stroke-linecap="round" stroke-linejoin="round"/>
<path d="M162.814 201.108L150.271 139.746" stroke="#A69B88" stroke-linecap="round" stroke-linejoin="round"/>
<path d="M80.1427 188.963L91.209 200.552L80.8075 210.484" stroke="#A69B88" stroke-linecap="round" stroke-linejoin="round"/>
<path d="M130.902 188.48L141.969 200.068L131.567 210.001" stroke="#A69B88" stroke-linecap="round" stroke-linejoin="round"/>
<path d="M96.8288 185.902L110.707 200.436L96.6484 213.86" stroke="#A69B88" stroke-linecap="round" stroke-linejoin="round"/>
<path d="M112.214 185.453L126.092 199.986L112.033 213.411" stroke="#A69B88" stroke-linecap="round" stroke-linejoin="round"/>
<path d="M51.3668 199.832C98.9532 238.175 120.986 227.482 159.117 200.324C122.1 170.884 99.2819 166.304 51.3668 199.832Z" fill="#63755C" stroke="#A69B88" stroke-linecap="round" stroke-linejoin="round"/>
<path d="M161.879 200.229L67.4108 199.732" stroke="#A69B88" stroke-linecap="round" stroke-linejoin="round"/>
<path d="M156.072 189.446C187.634 227.799 195.588 255.109 204.669 306.865" stroke="#A69B88" stroke-width="2" stroke-linecap="round"/>
<path d="M146.873 61.8584C196.677 143.28 203.914 198.102 205.976 300.693" stroke="#A69B88" stroke-width="2" stroke-linecap="round"/>
<path d="M264.967 63.3994C215.163 144.821 207.926 199.643 205.863 302.234" stroke="#A69B88" stroke-width="2" stroke-linecap="round"/>
<path d="M305.796 285.046C264.913 295.724 243.209 312.718 207.514 370.317" stroke="#A69B88" stroke-width="2" stroke-linecap="round"/>
<path d="M114.974 284.511C155.111 297.066 175.692 315.04 207.637 374.206" stroke="#A69B88" stroke-width="2" stroke-linecap="round"/>
<path d="M208.111 444.52C209.122 399.646 208.22 374.401 205.836 331.358C204.112 251.342 215.095 224.572 231.168 184.503" stroke="#A69B88" stroke-width="2" stroke-linecap="round"/>
<path d="M254.679 236.154L256.986 225.398L266.64 227.469" stroke="#A69B88" stroke-linecap="round" stroke-linejoin="round"/>
<path d="M234.808 207.533L237.115 196.777L246.769 198.848" stroke="#A69B88" stroke-linecap="round" stroke-linejoin="round"/>
<path d="M246.497 227.861L249.391 214.373L262.438 217.172" stroke="#A69B88" stroke-linecap="round" stroke-linejoin="round"/>
<path d="M240.304 219.311L243.197 205.822L256.245 208.621" stroke="#A69B88" stroke-linecap="round" stroke-linejoin="round"/>
<path d="M271.956 248.303C275.355 206.489 260.78 198.108 230.645 186.944C228.22 219.323 234.428 234.044 271.956 248.303Z" fill="#63755C" stroke="#A69B88" stroke-linecap="round" stroke-linejoin="round"/>
<path d="M229.533 185.405L265.714 239.226" stroke="#A69B88" stroke-linecap="round" stroke-linejoin="round"/>
<path d="M159.496 252.847L166.578 244.839L173.766 251.195" stroke="#A69B88" stroke-linecap="round" stroke-linejoin="round"/>
<path d="M156.314 219.136L163.396 211.127L170.585 217.483" stroke="#A69B88" stroke-linecap="round" stroke-linejoin="round"/>
<path d="M156.515 241.928L165.396 231.885L175.112 240.476" stroke="#A69B88" stroke-linecap="round" stroke-linejoin="round"/>
<path d="M155.355 231.731L164.236 221.688L173.952 230.279" stroke="#A69B88" stroke-linecap="round" stroke-linejoin="round"/>
<path d="M168.333 271.374C191.148 237.582 182.8 223.536 162.602 199.713C145.111 225.978 143.35 241.405 168.333 271.374Z" fill="#63755C" stroke="#A69B88" stroke-linecap="round" stroke-linejoin="round"/>
<path d="M162.391 197.882L167.372 260.713" stroke="#A69B88" stroke-linecap="round" stroke-linejoin="round"/>
<path d="M355.95 357.457L357.213 341.483L371.55 342.617" stroke="#A69B88" stroke-linecap="round" stroke-linejoin="round"/>
<path d="M321.767 319.944L323.029 303.97L337.367 305.103" stroke="#A69B88" stroke-linecap="round" stroke-linejoin="round"/>
<path d="M342.543 347.054L344.127 327.021L363.505 328.552" stroke="#A69B88" stroke-linecap="round" stroke-linejoin="round"/>
<path d="M331.961 335.906L333.545 315.873L352.923 317.405" stroke="#A69B88" stroke-linecap="round" stroke-linejoin="round"/>
<path d="M383.241 371.666C380.106 310.635 357.449 301.338 311.787 291.015C314.514 338.233 326.31 358.295 383.241 371.666Z" fill="#63755C" stroke="#A69B88" stroke-linecap="round" stroke-linejoin="round"/>
<path d="M309.88 289.017L372.477 359.77" stroke="#A69B88" stroke-linecap="round" stroke-linejoin="round"/>
<path d="M311.168 170.621L296.902 163.323L303.452 150.519" stroke="#A69B88" stroke-linecap="round" stroke-linejoin="round"/>
<path d="M263.398 187.797L249.133 180.499L255.683 167.695" stroke="#A69B88" stroke-linecap="round" stroke-linejoin="round"/>
<path d="M296.416 179.01L278.525 169.857L287.378 152.552" stroke="#A69B88" stroke-linecap="round" stroke-linejoin="round"/>
<path d="M282.053 184.508L264.162 175.355L273.015 158.05" stroke="#A69B88" stroke-linecap="round" stroke-linejoin="round"/>
<path d="M334.765 150.881C277.205 130.348 259.923 147.701 232.863 185.901C277.511 201.508 300.564 198.317 334.765 150.881Z" fill="#63755C" stroke="#A69B88" stroke-linecap="round" stroke-linejoin="round"/>
<path d="M230.287 186.896L319.649 156.254" stroke="#A69B88" stroke-linecap="round" stroke-linejoin="round"/>
<path d="M353.863 258.064L343.252 256.901L344.295 247.377" stroke="#A69B88" stroke-linecap="round" stroke-linejoin="round"/>
<path d="M328.201 280.076L317.59 278.914L318.633 269.39" stroke="#A69B88" stroke-linecap="round" stroke-linejoin="round"/>
<path d="M346.675 266.775L333.367 265.317L334.777 252.445" stroke="#A69B88" stroke-linecap="round" stroke-linejoin="round"/>
<path d="M339.034 273.603L325.727 272.146L327.137 259.273" stroke="#A69B88" stroke-linecap="round" stroke-linejoin="round"/>
<path d="M363.879 240.178C323.176 241.037 316.53 255.937 308.736 286.134C340.233 285.268 353.83 277.818 363.879 240.178Z" fill="#63755C" stroke="#A69B88" stroke-linecap="round" stroke-linejoin="round"/>
<path d="M307.369 287.363L355.743 247.105" stroke="#A69B88" stroke-linecap="round" stroke-linejoin="round"/>
<path d="M253.697 310.411L265.297 313.436L262.583 323.847" stroke="#A69B88" stroke-linecap="round" stroke-linejoin="round"/>
<path d="M285.802 290.142L297.402 293.166L294.688 303.578" stroke="#A69B88" stroke-linecap="round" stroke-linejoin="round"/>
<path d="M263.109 301.903L277.656 305.695L273.988 319.768" stroke="#A69B88" stroke-linecap="round" stroke-linejoin="round"/>
<path d="M272.714 295.568L287.262 299.36L283.593 313.433" stroke="#A69B88" stroke-linecap="round" stroke-linejoin="round"/>
<path d="M239.643 328.644C285.007 334.336 294.824 318.866 308.414 286.588C273.278 282.406 256.955 288.465 239.643 328.644Z" fill="#63755C" stroke="#A69B88" stroke-linecap="round" stroke-linejoin="round"/>
<path d="M310.137 285.448L249.817 322.279" stroke="#A69B88" stroke-linecap="round" stroke-linejoin="round"/>
<path d="M272.331 214.23L268.961 229.896L254.9 226.871" stroke="#A69B88" stroke-linecap="round" stroke-linejoin="round"/>
<path d="M301.249 255.945L297.879 271.61L283.818 268.586" stroke="#A69B88" stroke-linecap="round" stroke-linejoin="round"/>
<path d="M284.242 226.312L280.016 245.958L261.011 241.87" stroke="#A69B88" stroke-linecap="round" stroke-linejoin="round"/>
<path d="M293.247 238.78L289.021 258.426L270.017 254.338" stroke="#A69B88" stroke-linecap="round" stroke-linejoin="round"/>
<path d="M247.17 196.525C242.185 257.434 263.409 269.653 307.299 285.939C310.857 238.776 301.825 217.327 247.17 196.525Z" fill="#63755C" stroke="#A69B88" stroke-linecap="round" stroke-linejoin="round"/>
<path d="M308.92 288.173L256.258 209.744" stroke="#A69B88" stroke-linecap="round" stroke-linejoin="round"/>
<path d="M232.057 128.048L224.793 137.035L216.727 130.515" stroke="#A69B88" stroke-linecap="round" stroke-linejoin="round"/>
<path d="M237.106 164.303L229.842 173.29L221.776 166.77" stroke="#A69B88" stroke-linecap="round" stroke-linejoin="round"/>
<path d="M235.795 139.702L226.686 150.973L215.783 142.161" stroke="#A69B88" stroke-linecap="round" stroke-linejoin="round"/>
<path d="M237.539 150.654L228.43 161.925L217.527 153.113" stroke="#A69B88" stroke-linecap="round" stroke-linejoin="round"/>
<path d="M221.622 108.474C198.603 146.056 208.29 160.823 231.242 185.581C248.872 156.382 250.035 139.639 221.622 108.474Z" fill="#63755C" stroke="#A69B88" stroke-linecap="round" stroke-linejoin="round"/>
<path d="M231.562 187.546L223.175 119.937" stroke="#A69B88" stroke-linecap="round" stroke-linejoin="round"/>
<path d="M147.428 190.866L160.527 200.096L152.244 211.853" stroke="#A69B88" stroke-linecap="round" stroke-linejoin="round"/>
<path d="M197.13 180.579L210.229 189.809L201.945 201.565" stroke="#A69B88" stroke-linecap="round" stroke-linejoin="round"/>
<path d="M163.209 184.64L179.637 196.215L168.44 212.105" stroke="#A69B88" stroke-linecap="round" stroke-linejoin="round"/>
<path d="M178.196 181.218L194.623 192.793L183.427 208.683" stroke="#A69B88" stroke-linecap="round" stroke-linejoin="round"/>
<path d="M121.289 207.1C175.393 235.516 194.941 220.763 227.1 186.742C185.087 165.018 161.814 164.939 121.289 207.1Z" fill="#63755C" stroke="#A69B88" stroke-linecap="round" stroke-linejoin="round"/>
<path d="M229.794 186.118L137.014 203.903" stroke="#A69B88" stroke-linecap="round" stroke-linejoin="round"/>
<path d="M284.491 104.073L286.289 95.6934L293.81 97.3068" stroke="#A69B88" stroke-linecap="round" stroke-linejoin="round"/>
<path d="M269.009 81.774L270.807 73.3945L278.328 75.008" stroke="#A69B88" stroke-linecap="round" stroke-linejoin="round"/>
<path d="M278.117 97.6121L280.371 87.1035L290.536 89.2842" stroke="#A69B88" stroke-linecap="round" stroke-linejoin="round"/>
<path d="M273.291 90.951L275.545 80.4424L285.71 82.6231" stroke="#A69B88" stroke-linecap="round" stroke-linejoin="round"/>
<path d="M297.951 113.538C300.599 80.961 289.244 74.4322 265.766 65.7344C263.877 90.9598 268.713 102.429 297.951 113.538Z" fill="#63755C" stroke="#A69B88" stroke-linecap="round" stroke-linejoin="round"/>
<path d="M264.9 64.5366L293.089 106.468" stroke="#A69B88" stroke-linecap="round" stroke-linejoin="round"/>
<path d="M35.2126 210.247L55.791 211.267L56.7059 192.797" stroke="#A69B88" stroke-linecap="round" stroke-linejoin="round"/>
<path d="M77.4216 260.023L98 261.042L98.9149 242.572" stroke="#A69B88" stroke-linecap="round" stroke-linejoin="round"/>
<path d="M46.2707 229.062L72.0781 230.341L73.3147 205.377" stroke="#A69B88" stroke-linecap="round" stroke-linejoin="round"/>
<path d="M58.7414 244.391L84.5488 245.669L85.7854 220.705" stroke="#A69B88" stroke-linecap="round" stroke-linejoin="round"/>
<path d="M21.5849 173.108C98.8984 187.153 107.024 217.577 112.672 277.505C52.9064 266.254 29.2644 247.909 21.5849 173.108Z" fill="#63755C" stroke="#A69B88" stroke-linecap="round" stroke-linejoin="round"/>
<path d="M114.902 280.269L34.9794 188.796" stroke="#A69B88" stroke-linecap="round" stroke-linejoin="round"/>
<path d="M161.622 229.261L161.357 242.984L173.675 243.222" stroke="#A69B88" stroke-linecap="round" stroke-linejoin="round"/>
<path d="M129.323 258.364L129.059 272.087L141.376 272.324" stroke="#A69B88" stroke-linecap="round" stroke-linejoin="round"/>
<path d="M149.326 236.998L148.994 254.208L165.642 254.529" stroke="#A69B88" stroke-linecap="round" stroke-linejoin="round"/>
<path d="M139.359 245.624L139.027 262.834L155.675 263.155" stroke="#A69B88" stroke-linecap="round" stroke-linejoin="round"/>
<path d="M186.075 219.427C178.279 271.191 158.184 277.214 118.393 282.182C124.681 242.159 136.421 226.047 186.075 219.427Z" fill="#63755C" stroke="#A69B88" stroke-linecap="round" stroke-linejoin="round"/>
<path d="M116.602 283.727L175.903 228.667" stroke="#A69B88" stroke-linecap="round" stroke-linejoin="round"/>
<path d="M78.3747 348.391L76.4277 333.101L62.7037 334.848" stroke="#A69B88" stroke-linecap="round" stroke-linejoin="round"/>
<path d="M109.509 310.778L107.562 295.487L93.8385 297.235" stroke="#A69B88" stroke-linecap="round" stroke-linejoin="round"/>
<path d="M90.7717 337.786L88.3301 318.61L69.7807 320.972" stroke="#A69B88" stroke-linecap="round" stroke-linejoin="round"/>
<path d="M100.432 326.582L97.9902 307.406L79.4409 309.768" stroke="#A69B88" stroke-linecap="round" stroke-linejoin="round"/>
<path d="M52.8075 363.305C53.0167 304.519 74.3601 294.546 117.76 282.529C117.308 328.024 106.895 347.843 52.8075 363.305Z" fill="#63755C" stroke="#A69B88" stroke-linecap="round" stroke-linejoin="round"/>
<path d="M119.502 280.523L62.6051 351.382" stroke="#A69B88" stroke-linecap="round" stroke-linejoin="round"/>
<path d="M204.094 340.454L183.562 342.172L185.105 360.6" stroke="#A69B88" stroke-linecap="round" stroke-linejoin="round"/>
<path d="M155.659 296.709L135.127 298.428L136.669 316.856" stroke="#A69B88" stroke-linecap="round" stroke-linejoin="round"/>
<path d="M190.647 323.275L164.898 325.43L166.983 350.337" stroke="#A69B88" stroke-linecap="round" stroke-linejoin="round"/>
<path d="M176.231 309.74L150.482 311.895L152.567 336.802" stroke="#A69B88" stroke-linecap="round" stroke-linejoin="round"/>
<path d="M222.533 375.452C144.04 371.783 131.953 342.705 118.408 284.055C179.138 287.282 205.003 302.33 222.533 375.452Z" fill="#63755C" stroke="#A69B88" stroke-linecap="round" stroke-linejoin="round"/>
<path d="M115.826 281.625L207.171 361.692" stroke="#A69B88" stroke-linecap="round" stroke-linejoin="round"/>
<path d="M288.565 334.054L274.48 341.281L280.967 353.922" stroke="#A69B88" stroke-linecap="round" stroke-linejoin="round"/>
<path d="M241.356 317.151L227.271 324.378L233.758 337.019" stroke="#A69B88" stroke-linecap="round" stroke-linejoin="round"/>
<path d="M273.979 325.784L256.316 334.848L265.084 351.933" stroke="#A69B88" stroke-linecap="round" stroke-linejoin="round"/>
<path d="M259.792 320.376L242.129 329.439L250.896 346.525" stroke="#A69B88" stroke-linecap="round" stroke-linejoin="round"/>
<path d="M311.9 353.532C255.062 373.888 237.967 356.766 211.188 319.061C255.276 303.587 278.055 306.711 311.9 353.532Z" fill="#63755C" stroke="#A69B88" stroke-linecap="round" stroke-linejoin="round"/>
<path d="M208.64 318.078L296.958 348.239" stroke="#A69B88" stroke-linecap="round" stroke-linejoin="round"/>
<path d="M197.149 369.964L192.053 360.731L183.766 365.305" stroke="#A69B88" stroke-linecap="round" stroke-linejoin="round"/>
<path d="M207.459 338.193L202.363 328.96L194.076 333.534" stroke="#A69B88" stroke-linecap="round" stroke-linejoin="round"/>
<path d="M202.358 360.094L195.967 348.515L184.766 354.697" stroke="#A69B88" stroke-linecap="round" stroke-linejoin="round"/>
<path d="M205.676 350.526L199.285 338.947L188.085 345.129" stroke="#A69B88" stroke-linecap="round" stroke-linejoin="round"/>
<path d="M184.655 385.902C169.957 348.464 181.014 336.737 205.582 318.146C216.773 347.192 215.151 362.422 184.655 385.902Z" fill="#63755C" stroke="#A69B88" stroke-linecap="round" stroke-linejoin="round"/>
<path d="M206.18 316.431L187.874 375.848" stroke="#A69B88" stroke-linecap="round" stroke-linejoin="round"/>
<path d="M206.778 258.718L213.947 268.145L222.408 261.71" stroke="#A69B88" stroke-linecap="round" stroke-linejoin="round"/>
<path d="M200.51 295.707L207.68 305.133L216.14 298.698" stroke="#A69B88" stroke-linecap="round" stroke-linejoin="round"/>
<path d="M202.604 270.538L211.596 282.359L223.031 273.662" stroke="#A69B88" stroke-linecap="round" stroke-linejoin="round"/>
<path d="M200.479 281.704L209.471 293.525L220.906 284.828" stroke="#A69B88" stroke-linecap="round" stroke-linejoin="round"/>
<path d="M218.058 238.973C240.502 278.169 230.132 293.004 205.871 317.672C188.694 287.227 188.009 270.04 218.058 238.973Z" fill="#63755C" stroke="#A69B88" stroke-linecap="round" stroke-linejoin="round"/>
<path d="M205.482 319.676L216.12 250.671" stroke="#A69B88" stroke-linecap="round" stroke-linejoin="round"/>
<path d="M126.17 312.296L139.172 303.266L131.066 291.596" stroke="#A69B88" stroke-linecap="round" stroke-linejoin="round"/>
<path d="M175.204 322.795L188.205 313.765L180.1 302.095" stroke="#A69B88" stroke-linecap="round" stroke-linejoin="round"/>
<path d="M141.718 318.56L158.023 307.234L147.068 291.462" stroke="#A69B88" stroke-linecap="round" stroke-linejoin="round"/>
<path d="M156.511 322.029L172.816 310.703L161.861 294.931" stroke="#A69B88" stroke-linecap="round" stroke-linejoin="round"/>
<path d="M100.458 296.092C154.095 268.38 173.308 283.084 204.852 316.905C163.204 338.088 140.212 338.012 100.458 296.092Z" fill="#63755C" stroke="#A69B88" stroke-linecap="round" stroke-linejoin="round"/>
<path d="M207.507 317.53L115.968 299.346" stroke="#A69B88" stroke-linecap="round" stroke-linejoin="round"/>
<path d="M326.919 50.9991L315.805 45.3135L320.908 35.3381" stroke="#A69B88" stroke-linecap="round" stroke-linejoin="round"/>
<path d="M289.704 64.3809L278.59 58.6953L283.693 48.7199" stroke="#A69B88" stroke-linecap="round" stroke-linejoin="round"/>
<path d="M315.427 57.5337L301.488 50.4033L308.386 36.9206" stroke="#A69B88" stroke-linecap="round" stroke-linejoin="round"/>
<path d="M304.235 61.8178L290.297 54.6875L297.194 41.2048" stroke="#A69B88" stroke-linecap="round" stroke-linejoin="round"/>
<path d="M345.304 35.619C300.46 19.6221 286.996 33.1417 265.914 62.9033C300.699 75.0626 318.659 72.5765 345.304 35.619Z" fill="#63755C" stroke="#A69B88" stroke-linecap="round" stroke-linejoin="round"/>
<path d="M263.907 63.6791L333.528 39.8062" stroke="#A69B88" stroke-linecap="round" stroke-linejoin="round"/>
<path d="M264.851 18.8401L259.191 25.8418L252.907 20.7624" stroke="#A69B88" stroke-linecap="round" stroke-linejoin="round"/>
<path d="M268.782 47.0852L263.123 54.0869L256.839 49.0075" stroke="#A69B88" stroke-linecap="round" stroke-linejoin="round"/>
<path d="M267.761 27.9194L260.664 36.7002L252.17 29.8348" stroke="#A69B88" stroke-linecap="round" stroke-linejoin="round"/>
<path d="M269.123 36.4506L262.025 45.2314L253.532 38.3661" stroke="#A69B88" stroke-linecap="round" stroke-linejoin="round"/>
<path d="M256.72 3.58971C238.786 32.8694 246.333 44.3747 264.215 63.6631C277.95 40.9144 278.856 27.8702 256.72 3.58971Z" fill="#63755C" stroke="#A69B88" stroke-linecap="round" stroke-linejoin="round"/>
<path d="M264.464 65.1931L257.93 12.5202" stroke="#A69B88" stroke-linecap="round" stroke-linejoin="round"/>
<path d="M199.926 67.7801L210.131 74.9707L203.677 84.1303" stroke="#A69B88" stroke-linecap="round" stroke-linejoin="round"/>
<path d="M238.646 59.7655L248.852 66.9561L242.398 76.1156" stroke="#A69B88" stroke-linecap="round" stroke-linejoin="round"/>
<path d="M212.219 62.9296L225.018 71.9473L216.295 84.3273" stroke="#A69B88" stroke-linecap="round" stroke-linejoin="round"/>
<path d="M223.895 60.2645L236.693 69.2822L227.97 81.6623" stroke="#A69B88" stroke-linecap="round" stroke-linejoin="round"/>
<path d="M179.56 80.4283C221.712 102.566 236.942 91.0722 261.996 64.5674C229.264 47.6421 211.133 47.5804 179.56 80.4283Z" fill="#63755C" stroke="#A69B88" stroke-linecap="round" stroke-linejoin="round"/>
<path d="M264.096 64.0811L191.812 77.9368" stroke="#A69B88" stroke-linecap="round" stroke-linejoin="round"/>
<path d="M136.8 105.249L132.895 97.6201L126.048 101.125" stroke="#A69B88" stroke-linecap="round" stroke-linejoin="round"/>
<path d="M145.983 79.7029L142.078 72.0742L135.231 75.5792" stroke="#A69B88" stroke-linecap="round" stroke-linejoin="round"/>
<path d="M141.284 97.3581L136.387 87.791L127.132 92.5284" stroke="#A69B88" stroke-linecap="round" stroke-linejoin="round"/>
<path d="M144.222 89.6745L139.324 80.1074L130.07 84.8448" stroke="#A69B88" stroke-linecap="round" stroke-linejoin="round"/>
<path d="M126.251 117.874C115.261 87.0925 124.54 77.8472 144.967 63.3691C153.32 87.2461 151.617 99.5761 126.251 117.874Z" fill="#63755C" stroke="#A69B88" stroke-linecap="round" stroke-linejoin="round"/>
<path d="M145.491 61.9871L129.115 109.785" stroke="#A69B88" stroke-linecap="round" stroke-linejoin="round"/>
<path d="M79.5779 65.6341L88.8418 57.2656L81.3308 48.9509" stroke="#A69B88" stroke-linecap="round" stroke-linejoin="round"/>
<path d="M118.988 68.928L128.252 60.5596L120.741 52.2448" stroke="#A69B88" stroke-linecap="round" stroke-linejoin="round"/>
<path d="M92.3705 68.9714L103.988 58.4766L93.8364 47.2384" stroke="#A69B88" stroke-linecap="round" stroke-linejoin="round"/>
<path d="M104.288 70.2136L115.906 59.7188L105.754 48.4806" stroke="#A69B88" stroke-linecap="round" stroke-linejoin="round"/>
<path d="M57.8391 55.5368C97.0148 28.4785 113.519 38.0527 141.586 61.3438C111.133 82.0916 93.1417 84.3388 57.8391 55.5368Z" fill="#63755C" stroke="#A69B88" stroke-linecap="round" stroke-linejoin="round"/>
<path d="M143.725 61.5728L70.2976 56.5325" stroke="#A69B88" stroke-linecap="round" stroke-linejoin="round"/>
<path d="M133.712 17.8334L140.99 23.1318L145.746 16.599" stroke="#A69B88" stroke-linecap="round" stroke-linejoin="round"/>
<path d="M137.223 46.1352L144.502 51.4336L149.257 44.9007" stroke="#A69B88" stroke-linecap="round" stroke-linejoin="round"/>
<path d="M133.247 27.3582L142.375 34.0029L148.803 25.1731" stroke="#A69B88" stroke-linecap="round" stroke-linejoin="round"/>
<path d="M134.143 35.952L143.271 42.5967L149.699 33.7669" stroke="#A69B88" stroke-linecap="round" stroke-linejoin="round"/>
<path d="M137.617 1.00054C162.518 24.6409 158.206 37.7076 145.926 60.9668C126.771 42.5481 122.52 30.1829 137.617 1.00054Z" fill="#63755C" stroke="#A69B88" stroke-linecap="round" stroke-linejoin="round"/>
<path d="M146.08 62.5097L138.759 9.94021" stroke="#A69B88" stroke-linecap="round" stroke-linejoin="round"/>
<path d="M209.092 48.3028L201.096 57.8896L209.7 65.0668" stroke="#A69B88" stroke-linecap="round" stroke-linejoin="round"/>
<path d="M169.616 50.5831L161.619 60.1699L170.224 67.347" stroke="#A69B88" stroke-linecap="round" stroke-linejoin="round"/>
<path d="M195.962 46.7994L185.934 58.8223L197.564 68.5228" stroke="#A69B88" stroke-linecap="round" stroke-linejoin="round"/>
<path d="M183.991 47.2467L173.963 59.2695L185.593 68.9701" stroke="#A69B88" stroke-linecap="round" stroke-linejoin="round"/>
<path d="M232.039 55.2491C197.053 87.5425 179.367 80.3818 148.307 61.2646C175.542 36.4445 193.04 31.6921 232.039 55.2491Z" fill="#63755C" stroke="#A69B88" stroke-linecap="round" stroke-linejoin="round"/>
<path d="M146.15 61.3386L219.557 56.0137" stroke="#A69B88" stroke-linecap="round" stroke-linejoin="round"/>
<path d="M1582.93 421.174V285.499" stroke="#A69B88" stroke-width="2" stroke-linecap="round" stroke-linejoin="round"/>
<path d="M1614.5 342.83C1595.33 360.322 1587.11 372.812 1583.16 406.419" stroke="#A69B88" stroke-width="2" stroke-linecap="round" stroke-linejoin="round"/>
<path d="M1583.39 288.62C1583.91 288.932 1586.15 286.181 1588.38 282.475C1590.61 278.768 1592 275.511 1591.48 275.198C1590.95 274.886 1588.72 277.637 1586.49 281.344C1584.25 285.05 1582.87 288.308 1583.39 288.62Z" fill="#63755C"/>
<path d="M1614.52 342.788C1614.88 343.279 1618.01 341.613 1621.52 339.068C1625.03 336.523 1627.58 334.062 1627.22 333.571C1626.86 333.08 1623.73 334.746 1620.22 337.291C1616.71 339.836 1614.16 342.298 1614.52 342.788Z" fill="#63755C"/>
<path d="M1582.55 285.133C1583.28 284.972 1583.02 281.013 1581.97 276.29C1580.93 271.567 1579.48 267.868 1578.75 268.029C1578.02 268.189 1578.28 272.148 1579.33 276.871C1580.38 281.594 1581.82 285.293 1582.55 285.133Z" fill="#63755C"/>
<path d="M1614.28 342.554C1615.01 342.746 1616.61 339.114 1617.86 334.441C1619.12 329.769 1619.55 325.825 1618.83 325.632C1618.11 325.44 1616.5 329.072 1615.25 333.745C1613.99 338.417 1613.56 342.361 1614.28 342.554Z" fill="#63755C"/>
<path d="M1582.19 293.774C1582.77 293.302 1581.04 290.238 1578.32 286.93C1575.59 283.621 1572.92 281.322 1572.34 281.793C1571.76 282.265 1573.5 285.329 1576.22 288.638C1578.94 291.946 1581.62 294.245 1582.19 293.774Z" fill="#63755C"/>
<path d="M1582.18 323.87C1582.75 323.399 1581.02 320.334 1578.3 317.026C1575.57 313.718 1572.9 311.418 1572.32 311.89C1571.74 312.362 1573.48 315.426 1576.2 318.734C1578.92 322.043 1581.6 324.342 1582.18 323.87Z" fill="#63755C"/>
<path d="M1626.73 342.619C1626.55 341.895 1623.03 342.103 1618.85 343.085C1614.67 344.067 1611.42 345.45 1611.59 346.174C1611.76 346.899 1615.29 346.691 1619.47 345.709C1623.65 344.727 1626.9 343.344 1626.73 342.619Z" fill="#63755C"/>
<path d="M1605.36 369.269C1605.1 368.569 1601.62 369.19 1597.59 370.656C1593.55 372.121 1590.49 373.876 1590.74 374.575C1591 375.275 1594.48 374.654 1598.51 373.188C1602.55 371.723 1605.61 369.968 1605.36 369.269Z" fill="#63755C"/>
<path d="M1609.65 363.083C1609.48 362.359 1605.95 362.567 1601.77 363.549C1597.59 364.531 1594.34 365.914 1594.52 366.638C1594.69 367.363 1598.21 367.154 1602.4 366.173C1606.58 365.191 1609.82 363.808 1609.65 363.083Z" fill="#63755C"/>
<path d="M1614.76 354.937C1614.52 354.232 1610.73 354.872 1606.31 356.367C1601.88 357.862 1598.49 359.646 1598.73 360.35C1598.97 361.055 1602.75 360.415 1607.18 358.92C1611.6 357.425 1615 355.642 1614.76 354.937Z" fill="#63755C"/>
<path d="M1619.05 348.313C1618.8 347.612 1615.32 348.205 1611.27 349.638C1607.22 351.071 1604.15 352.801 1604.4 353.502C1604.65 354.204 1608.13 353.611 1612.18 352.178C1616.22 350.745 1619.3 349.015 1619.05 348.313Z" fill="#63755C"/>
<path d="M1602.56 377.416C1602.31 376.714 1598.83 377.307 1594.78 378.74C1590.73 380.173 1587.66 381.904 1587.91 382.605C1588.16 383.306 1591.64 382.713 1595.69 381.28C1599.73 379.848 1602.81 378.117 1602.56 377.416Z" fill="#63755C"/>
<path d="M1582.25 337.967C1582.64 337.561 1580.66 335 1577.81 332.249C1574.96 329.498 1572.34 327.597 1571.94 328.004C1571.54 328.41 1573.53 330.971 1576.37 333.722C1579.22 336.473 1581.85 338.374 1582.25 337.967Z" fill="#63755C"/>
<path d="M1606.45 350.096C1607.02 350.079 1607.38 346.865 1607.27 342.917C1607.15 338.969 1606.59 335.782 1606.02 335.799C1605.45 335.815 1605.09 339.03 1605.21 342.978C1605.32 346.926 1605.88 350.113 1606.45 350.096Z" fill="#63755C"/>
<path d="M1583.36 298.962C1583.87 299.296 1586.22 296.641 1588.61 293.032C1591 289.422 1592.52 286.226 1592.01 285.892C1591.5 285.558 1589.16 288.213 1586.77 291.822C1584.38 295.431 1582.86 298.628 1583.36 298.962Z" fill="#63755C"/>
<path d="M1610.66 345.959C1611.26 345.904 1611.44 342.37 1611.04 338.066C1610.65 333.761 1609.84 330.316 1609.23 330.371C1608.63 330.426 1608.45 333.96 1608.85 338.264C1609.24 342.569 1610.05 346.014 1610.66 345.959Z" fill="#63755C"/>
<path d="M1583.58 345.537C1583.81 346.1 1587.26 345.247 1591.29 343.632C1595.31 342.017 1598.39 340.252 1598.16 339.689C1597.94 339.125 1594.49 339.978 1590.46 341.593C1586.43 343.208 1583.35 344.974 1583.58 345.537Z" fill="#63755C"/>
<path d="M1583.63 326.827C1584.03 327.288 1587.02 325.383 1590.32 322.572C1593.61 319.761 1595.97 317.109 1595.57 316.647C1595.17 316.186 1592.18 318.091 1588.88 320.902C1585.58 323.713 1583.23 326.366 1583.63 326.827Z" fill="#63755C"/>
<path d="M1583.58 365.514C1583.98 365.975 1586.31 364.64 1588.78 362.533C1591.25 360.425 1592.93 358.343 1592.54 357.882C1592.14 357.421 1589.81 358.755 1587.34 360.863C1584.87 362.97 1583.19 365.053 1583.58 365.514Z" fill="#63755C"/>
<path d="M1583.65 373.278C1583.99 373.671 1585.89 372.603 1587.89 370.893C1589.9 369.182 1591.25 367.476 1590.92 367.083C1590.58 366.689 1588.68 367.757 1586.67 369.468C1584.66 371.178 1583.31 372.884 1583.65 373.278Z" fill="#63755C"/>
<path d="M1583.61 379.265C1583.85 379.55 1585.29 378.724 1586.82 377.42C1588.35 376.115 1589.39 374.826 1589.15 374.541C1588.9 374.256 1587.46 375.082 1585.93 376.386C1584.4 377.691 1583.36 378.979 1583.61 379.265Z" fill="#63755C"/>
<path d="M1595.68 355.884C1595.31 355.893 1595.04 357.526 1595.09 359.531C1595.13 361.536 1595.48 363.154 1595.85 363.145C1596.23 363.136 1596.5 361.504 1596.45 359.499C1596.4 357.494 1596.06 355.875 1595.68 355.884Z" fill="#63755C"/>
<path d="M1592.63 362.535C1592.25 362.544 1591.98 363.848 1592.01 365.448C1592.05 367.048 1592.39 368.337 1592.77 368.328C1593.14 368.32 1593.42 367.016 1593.38 365.416C1593.34 363.816 1593.01 362.526 1592.63 362.535Z" fill="#63755C"/>
<path d="M1583.58 358.495C1583.98 358.956 1586.97 357.051 1590.27 354.24C1593.57 351.429 1595.92 348.777 1595.52 348.315C1595.13 347.854 1592.13 349.759 1588.84 352.57C1585.54 355.381 1583.19 358.034 1583.58 358.495Z" fill="#63755C"/>
<path d="M1583.61 350.757C1583.77 351.345 1587.3 350.937 1591.5 349.848C1595.7 348.758 1598.98 347.398 1598.83 346.811C1598.67 346.223 1595.14 346.63 1590.94 347.72C1586.74 348.81 1583.46 350.17 1583.61 350.757Z" fill="#63755C"/>
<path d="M1583.46 319.724C1583.91 320.126 1586.62 317.828 1589.49 314.591C1592.37 311.354 1594.33 308.404 1593.87 308.002C1593.42 307.6 1590.71 309.898 1587.84 313.134C1584.96 316.371 1583 319.322 1583.46 319.724Z" fill="#63755C"/>
<path d="M1583.22 305.938C1583.64 306.372 1586.5 304.274 1589.61 301.252C1592.71 298.23 1594.88 295.428 1594.45 294.994C1594.03 294.56 1591.17 296.658 1588.06 299.68C1584.96 302.702 1582.79 305.504 1583.22 305.938Z" fill="#63755C"/>
<path d="M1573.35 292.908C1572.85 293.252 1574.44 296.417 1576.9 299.979C1579.36 303.54 1581.76 306.148 1582.26 305.804C1582.76 305.46 1581.18 302.294 1578.72 298.733C1576.26 295.172 1573.85 292.564 1573.35 292.908Z" fill="#63755C"/>
<path d="M1573.08 343.376C1572.62 343.775 1574.28 346.419 1576.79 349.281C1579.3 352.142 1581.71 354.138 1582.17 353.739C1582.63 353.339 1580.97 350.696 1578.46 347.834C1575.94 344.972 1573.54 342.976 1573.08 343.376Z" fill="#63755C"/>
<path d="M1601.25 342.932C1600.64 342.899 1599.97 345.948 1599.76 349.743C1599.56 353.538 1599.88 356.641 1600.49 356.674C1601.1 356.707 1601.76 353.658 1601.97 349.863C1602.18 346.068 1601.85 342.965 1601.25 342.932Z" fill="#63755C"/>
<path d="M1574.23 374.59C1573.77 374.99 1575.18 377.339 1577.37 379.838C1579.56 382.337 1581.71 384.039 1582.17 383.639C1582.63 383.24 1581.23 380.89 1579.03 378.392C1576.84 375.893 1574.69 374.191 1574.23 374.59Z" fill="#63755C"/>
<path d="M1585.43 393.485C1585.58 394.073 1587.87 394.003 1590.54 393.327C1593.22 392.652 1595.27 391.628 1595.12 391.039C1594.97 390.451 1592.68 390.521 1590 391.196C1587.33 391.872 1585.28 392.896 1585.43 393.485Z" fill="#63755C"/>
<path d="M1573.08 350.013C1572.62 350.413 1574.28 353.057 1576.79 355.918C1579.3 358.78 1581.71 360.776 1582.17 360.377C1582.63 359.977 1580.97 357.333 1578.46 354.472C1575.94 351.61 1573.54 349.614 1573.08 350.013Z" fill="#63755C"/>
<path d="M1573.01 357.684C1572.61 358.14 1574.34 360.316 1576.88 362.545C1579.43 364.775 1581.81 366.213 1582.22 365.757C1582.62 365.302 1580.89 363.125 1578.34 360.896C1575.8 358.667 1573.42 357.229 1573.01 357.684Z" fill="#63755C"/>
<path d="M1574.96 381.642C1574.5 382.172 1575.74 384.027 1577.74 385.786C1579.75 387.545 1581.75 388.541 1582.22 388.011C1582.69 387.481 1581.45 385.626 1579.44 383.867C1577.44 382.108 1575.43 381.112 1574.96 381.642Z" fill="#63755C"/>
<path d="M1586.37 389.036C1586.59 389.707 1589.54 389.344 1592.96 388.224C1596.39 387.105 1598.98 385.654 1598.76 384.983C1598.54 384.312 1595.59 384.675 1592.16 385.794C1588.74 386.914 1586.15 388.365 1586.37 389.036Z" fill="#63755C"/>
<path d="M1576.23 391.069C1575.76 391.599 1576.72 393.206 1578.38 394.658C1580.03 396.11 1581.75 396.858 1582.22 396.328C1582.69 395.798 1581.73 394.191 1580.08 392.739C1578.42 391.287 1576.7 390.539 1576.23 391.069Z" fill="#63755C"/>
<path d="M1573.01 366.148C1572.61 366.604 1574.34 368.78 1576.88 371.009C1579.43 373.239 1581.81 374.677 1582.22 374.221C1582.62 373.766 1580.89 371.589 1578.34 369.36C1575.8 367.131 1573.42 365.693 1573.01 366.148Z" fill="#63755C"/>
<path d="M1570.42 320.395C1570.02 320.852 1572.35 323.529 1575.61 326.375C1578.88 329.22 1581.86 331.156 1582.26 330.699C1582.66 330.243 1580.34 327.565 1577.07 324.72C1573.8 321.874 1570.83 319.938 1570.42 320.395Z" fill="#63755C"/>
<path d="M1572 302.769C1571.54 303.163 1573.45 306.147 1576.27 309.435C1579.08 312.722 1581.75 315.067 1582.21 314.673C1582.67 314.279 1580.76 311.294 1577.95 308.007C1575.13 304.72 1572.47 302.375 1572 302.769Z" fill="#63755C"/>
<path d="M1583.64 334.857C1584.07 335.291 1586.93 333.193 1590.03 330.171C1593.13 327.149 1595.3 324.347 1594.88 323.913C1594.45 323.479 1591.59 325.577 1588.49 328.599C1585.38 331.621 1583.21 334.423 1583.64 334.857Z" fill="#63755C"/>
<path d="M1583.51 312.196C1583.94 312.63 1586.8 310.532 1589.9 307.51C1593.01 304.487 1595.18 301.686 1594.75 301.252C1594.32 300.818 1591.46 302.916 1588.36 305.938C1585.26 308.96 1583.09 311.762 1583.51 312.196Z" fill="#63755C"/>
<path d="M1584.68 397.09C1584.79 397.486 1587.08 397.21 1589.79 396.472C1592.51 395.734 1594.63 394.815 1594.52 394.418C1594.41 394.022 1592.12 394.298 1589.4 395.036C1586.68 395.774 1584.57 396.693 1584.68 397.09Z" fill="#63755C"/>
<path d="M1583.51 341.115C1583.94 341.549 1586.8 339.451 1589.9 336.429C1593.01 333.406 1595.18 330.605 1594.75 330.171C1594.32 329.737 1591.46 331.835 1588.36 334.857C1585.26 337.879 1583.09 340.681 1583.51 341.115Z" fill="#63755C"/>
<path d="M1531.21 307.466C1543.19 356.891 1559.88 384.583 1583.1 391.46" stroke="#A69B88" stroke-width="2" stroke-linecap="round" stroke-linejoin="round"/>
<path d="M1544.58 348.08C1545.15 348.314 1546.96 345.269 1548.65 341.279C1550.33 337.289 1551.24 333.865 1550.68 333.631C1550.11 333.397 1548.29 336.442 1546.61 340.432C1544.93 344.422 1544.02 347.846 1544.58 348.08Z" fill="#63755C"/>
<path d="M1531.32 307.409C1532.03 307.197 1531.5 303.265 1530.12 298.628C1528.75 293.99 1527.05 290.404 1526.33 290.617C1525.62 290.829 1526.15 294.761 1527.53 299.398C1528.9 304.036 1530.6 307.622 1531.32 307.409Z" fill="#63755C"/>
<path d="M1559.36 375.136C1559.33 374.392 1555.83 373.936 1551.54 374.119C1547.25 374.301 1543.79 375.052 1543.82 375.796C1543.85 376.54 1547.36 376.996 1551.65 376.813C1555.94 376.631 1559.39 375.88 1559.36 375.136Z" fill="#63755C"/>
<path d="M1548.94 327.027C1548.28 326.679 1546.11 329.465 1544.1 333.249C1542.09 337.033 1540.99 340.382 1541.65 340.729C1542.31 341.077 1544.48 338.291 1546.49 334.507C1548.5 330.723 1549.6 327.374 1548.94 327.027Z" fill="#63755C"/>
<path d="M1533.73 315.579C1534.31 315.737 1535.72 312.482 1536.86 308.308C1538 304.133 1538.45 300.621 1537.86 300.463C1537.28 300.304 1535.87 303.56 1534.73 307.734C1533.59 311.908 1533.14 315.421 1533.73 315.579Z" fill="#63755C"/>
<path d="M1536.75 326.217C1537.35 326.351 1538.61 323.041 1539.58 318.824C1540.55 314.606 1540.85 311.079 1540.26 310.945C1539.67 310.811 1538.4 314.121 1537.43 318.338C1536.46 322.555 1536.16 326.083 1536.75 326.217Z" fill="#63755C"/>
<path d="M1553.68 365.937C1554.2 366.251 1555.99 364.257 1557.68 361.483C1559.37 358.709 1560.32 356.206 1559.8 355.891C1559.28 355.577 1557.49 357.571 1555.8 360.345C1554.11 363.119 1553.16 365.622 1553.68 365.937Z" fill="#63755C"/>
<path d="M1548.71 356.943C1549.24 357.258 1551.03 355.264 1552.72 352.49C1554.41 349.716 1555.36 347.213 1554.84 346.898C1554.32 346.584 1552.52 348.578 1550.83 351.352C1549.14 354.126 1548.19 356.629 1548.71 356.943Z" fill="#63755C"/>
<path d="M1563.4 378.55C1563.75 378.689 1564.64 377.291 1565.39 375.427C1566.14 373.564 1566.47 371.94 1566.12 371.801C1565.77 371.662 1564.88 373.06 1564.12 374.923C1563.37 376.787 1563.05 378.41 1563.4 378.55Z" fill="#63755C"/>
<path d="M1538.66 334.703C1538.42 335.265 1534.98 334.39 1530.97 332.749C1526.96 331.108 1523.9 329.322 1524.14 328.76C1524.37 328.198 1527.81 329.073 1531.82 330.714C1535.83 332.355 1538.89 334.141 1538.66 334.703Z" fill="#63755C"/>
<path d="M1536.21 327.361C1536.25 327.967 1532.77 328.682 1528.44 328.958C1524.11 329.234 1520.57 328.966 1520.53 328.36C1520.49 327.754 1523.97 327.039 1528.31 326.763C1532.64 326.487 1536.18 326.754 1536.21 327.361Z" fill="#63755C"/>
<path d="M1559.13 373.699C1559.7 373.897 1560.9 371.952 1561.81 369.354C1562.72 366.757 1562.98 364.491 1562.41 364.292C1561.83 364.094 1560.63 366.039 1559.72 368.637C1558.82 371.234 1558.55 373.5 1559.13 373.699Z" fill="#63755C"/>
<path d="M1560.08 387.773C1560.24 388.359 1562.52 388.248 1565.19 387.525C1567.85 386.801 1569.88 385.74 1569.72 385.154C1569.56 384.568 1567.27 384.679 1564.61 385.403C1561.95 386.126 1559.92 387.187 1560.08 387.773Z" fill="#63755C"/>
<path d="M1530.44 337.829C1530.13 338.352 1532.53 340.345 1535.81 342.279C1539.09 344.214 1542 345.358 1542.31 344.835C1542.63 344.313 1540.22 342.32 1536.94 340.386C1533.66 338.451 1530.75 337.307 1530.44 337.829Z" fill="#63755C"/>
<path d="M1550.94 380.914C1551.03 381.515 1553.77 381.621 1557.07 381.149C1560.37 380.678 1562.98 379.809 1562.89 379.208C1562.81 378.607 1560.06 378.501 1556.76 378.972C1553.46 379.443 1550.86 380.313 1550.94 380.914Z" fill="#63755C"/>
<path d="M1532.99 343.976C1532.68 344.499 1535.09 346.491 1538.37 348.426C1541.65 350.36 1544.56 351.505 1544.87 350.982C1545.18 350.459 1542.78 348.467 1539.5 346.532C1536.22 344.598 1533.31 343.453 1532.99 343.976Z" fill="#63755C"/>
<path d="M1570.37 375.097C1569.7 374.867 1568.57 376.365 1567.85 378.443C1567.13 380.521 1567.08 382.392 1567.75 382.621C1568.42 382.851 1569.55 381.353 1570.27 379.275C1571 377.197 1571.04 375.326 1570.37 375.097Z" fill="#63755C"/>
<path d="M1555.75 370.655C1556.04 369.965 1553.05 368.1 1549.07 366.488C1545.1 364.877 1541.65 364.13 1541.37 364.82C1541.08 365.51 1544.07 367.376 1548.05 368.987C1552.02 370.598 1555.47 371.345 1555.75 370.655Z" fill="#63755C"/>
<path d="M1553.05 366.092C1553.3 365.581 1550.61 363.769 1547.05 362.044C1543.49 360.318 1540.4 359.333 1540.15 359.844C1539.9 360.354 1542.58 362.166 1546.14 363.892C1549.71 365.617 1552.8 366.602 1553.05 366.092Z" fill="#63755C"/>
<path d="M1534.12 352.352C1533.88 352.912 1536.92 354.73 1540.91 356.413C1544.91 358.097 1548.34 359.008 1548.58 358.449C1548.81 357.889 1545.77 356.071 1541.78 354.387C1537.79 352.704 1534.36 351.793 1534.12 352.352Z" fill="#63755C"/>
<path d="M1532.35 313.68C1532.75 313.051 1530.15 310.682 1526.53 308.389C1522.91 306.095 1519.65 304.746 1519.25 305.374C1518.85 306.003 1521.45 308.372 1525.07 310.665C1528.69 312.959 1531.95 314.309 1532.35 313.68Z" fill="#63755C"/>
<path d="M1520.1 314.048C1519.86 314.607 1522.9 316.425 1526.9 318.109C1530.89 319.792 1534.32 320.703 1534.56 320.144C1534.8 319.584 1531.75 317.766 1527.76 316.083C1523.77 314.399 1520.34 313.488 1520.1 314.048Z" fill="#63755C"/>
<path d="M1538.54 332.067C1539.08 332.347 1541.14 329.46 1543.15 325.62C1545.15 321.78 1546.34 318.441 1545.8 318.162C1545.26 317.883 1543.2 320.769 1541.19 324.609C1539.19 328.449 1538 331.788 1538.54 332.067Z" fill="#63755C"/>
<path d="M1560.05 249.567C1556 300.262 1563.21 331.78 1583.13 345.563" stroke="#A69B88" stroke-width="2" stroke-linecap="round" stroke-linejoin="round"/>
<path d="M1560.08 292.327C1560.54 292.725 1563.21 290.4 1566.06 287.134C1568.9 283.869 1570.83 280.899 1570.37 280.501C1569.91 280.104 1567.23 282.428 1564.39 285.694C1561.55 288.96 1559.61 291.929 1560.08 292.327Z" fill="#63755C"/>
<path d="M1560.17 249.548C1560.92 249.569 1561.64 245.667 1561.78 240.832C1561.92 235.998 1561.43 232.061 1560.68 232.039C1559.93 232.017 1559.21 235.919 1559.07 240.754C1558.93 245.589 1559.42 249.526 1560.17 249.548Z" fill="#63755C"/>
<path d="M1565.67 322.643C1565.87 321.926 1562.68 320.401 1558.55 319.235C1554.42 318.069 1550.91 317.705 1550.7 318.421C1550.5 319.137 1553.68 320.663 1557.81 321.829C1561.95 322.994 1565.46 323.359 1565.67 322.643Z" fill="#63755C"/>
<path d="M1570.79 273.686C1570.27 273.15 1567.34 275.12 1564.25 278.087C1561.15 281.053 1559.07 283.892 1559.58 284.429C1560.1 284.965 1563.03 282.995 1566.12 280.028C1569.22 277.062 1571.31 274.222 1570.79 273.686Z" fill="#63755C"/>
<path d="M1559.91 258.062C1560.42 258.396 1562.77 255.741 1565.15 252.132C1567.54 248.523 1569.07 245.326 1568.56 244.992C1568.05 244.658 1565.7 247.313 1563.31 250.923C1560.92 254.532 1559.4 257.728 1559.91 258.062Z" fill="#63755C"/>
<path d="M1559.46 269.112C1559.98 269.425 1562.22 266.676 1564.45 262.972C1566.69 259.267 1568.08 256.011 1567.56 255.698C1567.03 255.385 1564.8 258.135 1562.56 261.839C1560.32 265.543 1558.93 268.799 1559.46 269.112Z" fill="#63755C"/>
<path d="M1563.14 312.131C1563.54 312.592 1565.86 311.258 1568.34 309.15C1570.81 307.043 1572.49 304.96 1572.1 304.499C1571.7 304.038 1569.37 305.373 1566.9 307.48C1564.43 309.588 1562.75 311.67 1563.14 312.131Z" fill="#63755C"/>
<path d="M1561.23 302.037C1561.63 302.498 1563.95 301.164 1566.43 299.056C1568.9 296.949 1570.58 294.866 1570.18 294.405C1569.79 293.944 1567.46 295.279 1564.99 297.386C1562.52 299.494 1560.84 301.576 1561.23 302.037Z" fill="#63755C"/>
<path d="M1558.62 277.77C1558.22 278.231 1555.23 276.326 1551.93 273.515C1548.64 270.704 1546.28 268.051 1546.68 267.59C1547.08 267.129 1550.07 269.034 1553.37 271.845C1556.67 274.656 1559.02 277.308 1558.62 277.77Z" fill="#63755C"/>
<path d="M1558.59 270.031C1558.44 270.619 1554.91 270.212 1550.71 269.122C1546.51 268.032 1543.23 266.673 1543.38 266.085C1543.54 265.498 1547.07 265.905 1551.27 266.995C1555.47 268.084 1558.75 269.444 1558.59 270.031Z" fill="#63755C"/>
<path d="M1565.89 321.205C1566.38 321.573 1568.13 320.1 1569.8 317.915C1571.47 315.73 1572.43 313.661 1571.95 313.293C1571.46 312.925 1569.71 314.398 1568.04 316.583C1566.37 318.767 1565.41 320.837 1565.89 321.205Z" fill="#63755C"/>
<path d="M1562.4 334.873C1562.37 335.479 1564.58 336.087 1567.33 336.231C1570.09 336.375 1572.35 336 1572.38 335.394C1572.41 334.787 1570.2 334.179 1567.45 334.036C1564.69 333.892 1562.44 334.267 1562.4 334.873Z" fill="#63755C"/>
<path d="M1549.84 278.173C1549.38 278.573 1551.04 281.217 1553.55 284.079C1556.06 286.94 1558.47 288.936 1558.93 288.537C1559.39 288.137 1557.73 285.494 1555.22 282.632C1552.7 279.77 1550.3 277.774 1549.84 278.173Z" fill="#63755C"/>
<path d="M1555.87 325.506C1555.76 326.103 1558.33 327.06 1561.61 327.642C1564.9 328.225 1567.64 328.212 1567.75 327.614C1567.86 327.017 1565.28 326.06 1562 325.478C1558.72 324.896 1555.97 324.908 1555.87 325.506Z" fill="#63755C"/>
<path d="M1550.35 284.812C1549.89 285.212 1551.55 287.855 1554.06 290.717C1556.57 293.579 1558.98 295.575 1559.44 295.176C1559.9 294.776 1558.24 292.132 1555.73 289.27C1553.21 286.409 1550.8 284.413 1550.35 284.812Z" fill="#63755C"/>
<path d="M1563.64 317.263C1564.13 316.696 1561.87 313.99 1558.6 311.219C1555.32 308.448 1552.28 306.661 1551.8 307.228C1551.31 307.795 1553.57 310.501 1556.84 313.272C1560.11 316.043 1563.16 317.83 1563.64 317.263Z" fill="#63755C"/>
<path d="M1562.49 312.082C1562.89 311.675 1560.91 309.115 1558.06 306.363C1555.21 303.612 1552.58 301.711 1552.19 302.118C1551.79 302.525 1553.78 305.085 1556.62 307.836C1559.47 310.588 1562.1 312.488 1562.49 312.082Z" fill="#63755C"/>
<path d="M1548.8 293.118C1548.4 293.575 1550.72 296.253 1553.99 299.098C1557.26 301.944 1560.23 303.88 1560.63 303.423C1561.03 302.966 1558.71 300.289 1555.44 297.443C1552.18 294.598 1549.2 292.661 1548.8 293.118Z" fill="#63755C"/>
<path d="M1559.19 255.827C1559.77 255.356 1558.03 252.291 1555.31 248.983C1552.59 245.675 1549.92 243.375 1549.34 243.847C1548.76 244.319 1550.5 247.383 1553.22 250.691C1555.94 254 1558.61 256.299 1559.19 255.827Z" fill="#63755C"/>
<path d="M1547.44 252.353C1547.04 252.81 1549.36 255.487 1552.63 258.333C1555.9 261.178 1558.87 263.114 1559.27 262.657C1559.67 262.201 1557.35 259.523 1554.08 256.678C1550.81 253.832 1547.84 251.896 1547.44 252.353Z" fill="#63755C"/>
<path d="M1559.33 275.228C1559.76 275.662 1562.62 273.564 1565.73 270.542C1568.83 267.52 1571 264.718 1570.57 264.284C1570.15 263.85 1567.29 265.948 1564.18 268.97C1561.08 271.992 1558.91 274.794 1559.33 275.228Z" fill="#63755C"/>
<path d="M1330.48 383.998C1357.3 349.454 1378.26 351.722 1400.34 367.333C1368.44 386.159 1354.63 392.533 1330.48 383.998Z" fill="#63755C"/>
<path d="M1387.15 367.333C1333.46 370.282 1313.28 383.301 1312.9 447.351M1330.48 383.998C1357.3 349.454 1378.26 351.722 1400.34 367.333C1368.44 386.159 1354.63 392.533 1330.48 383.998Z" stroke="#A69B88" stroke-width="2" stroke-linecap="round" stroke-linejoin="round"/>
<path d="M1363.03 316.968C1324.34 328.287 1314.04 339.951 1309.6 360.485C1346.95 356.803 1361.55 347.218 1363.03 316.968Z" fill="#63755C" stroke="#A69B88" stroke-width="2" stroke-linecap="round" stroke-linejoin="round"/>
<path d="M1356.83 326.043C1346.73 340.541 1336.49 347.969 1309.8 359.912" stroke="#A69B88" stroke-width="2" stroke-linecap="round" stroke-linejoin="round"/>
<path d="M1291.35 383.46C1284.57 353.943 1271.83 331.316 1237 340.82C1260.29 374.831 1272.23 384.217 1291.24 383.465C1291.28 383.463 1291.31 383.462 1291.35 383.46Z" fill="#63755C"/>
<path d="M1248.23 345.037C1273.84 348.537 1305.12 391.404 1312.77 450.086M1237 340.82C1271.83 331.316 1284.57 353.943 1291.35 383.46C1272.27 384.251 1260.34 374.894 1237 340.82Z" stroke="#A69B88" stroke-width="2" stroke-linecap="round" stroke-linejoin="round"/>
<path d="M1291.31 338.255C1298.94 318.588 1286.79 287.754 1268.54 272.338C1253.94 300.343 1260.39 314.59 1291.31 338.255Z" fill="#63755C"/>
<path d="M1291.31 338.255C1298.94 318.588 1286.79 287.754 1268.54 272.338C1253.94 300.343 1260.39 314.589 1291.31 338.255ZM1291.31 338.255C1275.2 313.371 1268.82 300.748 1269.55 284.314M1291.31 338.255C1299.61 362.417 1304.45 378.977 1309.49 410.21" stroke="#A69B88" stroke-width="2" stroke-linecap="round" stroke-linejoin="round"/>
<path d="M1315.03 301.924C1318.9 277.122 1311.86 263.085 1288.58 237.896C1275.32 263.542 1279 277.618 1315.03 301.924Z" fill="#63755C"/>
<path d="M1315.03 301.924C1318.9 277.122 1311.86 263.085 1288.58 237.896C1275.32 263.542 1279 277.618 1315.03 301.924ZM1315.03 301.924C1300.28 285.05 1294.5 273.794 1289.79 249.67" stroke="#A69B88" stroke-width="2" stroke-linecap="round" stroke-linejoin="round"/>
<path d="M1313.11 318.15C1331.67 283.576 1346.39 278.149 1375.55 288.531C1347.96 314.511 1334.97 322.606 1313.11 318.15Z" fill="#63755C"/>
<path d="M1313.11 318.15C1331.67 283.576 1346.39 278.149 1375.55 288.531C1347.96 314.511 1334.97 322.606 1313.11 318.15ZM1313.11 318.15C1331.43 300.364 1342.67 295.107 1363.81 291.028" stroke="#A69B88" stroke-width="2" stroke-linecap="round" stroke-linejoin="round"/>
<path d="M1354.19 213C1348.74 252.408 1341.6 264.808 1323.53 274.329C1317.55 238.509 1321.52 223.271 1354.19 213Z" fill="#63755C"/>
<path d="M1323.53 274.329C1341.6 264.808 1348.74 252.408 1354.19 213C1321.52 223.271 1317.55 238.509 1323.53 274.329ZM1323.53 274.329C1328.8 247.726 1333.64 236.214 1346.64 223.525" stroke="#A69B88" stroke-width="2" stroke-linecap="round" stroke-linejoin="round"/>
<path d="M1313.44 450.353C1305.56 380.21 1304.24 341.301 1323.12 274.766" stroke="#A69B88" stroke-width="2" stroke-linecap="round" stroke-linejoin="round"/>
<path d="M744.691 437.173V171.745" stroke="#A69B88" stroke-width="2" stroke-linecap="round" stroke-linejoin="round"/>
<path d="M682.922 283.905C720.439 318.125 736.511 342.561 744.234 408.306" stroke="#A69B88" stroke-width="2" stroke-linecap="round" stroke-linejoin="round"/>
<path d="M790.34 235.643C798.258 334.819 784.151 396.479 745.187 423.444" stroke="#A69B88" stroke-width="2" stroke-linecap="round" stroke-linejoin="round"/>
<path d="M743.795 177.851C742.772 178.462 738.401 173.079 734.032 165.829C729.663 158.578 726.951 152.205 727.974 151.594C728.997 150.983 733.368 156.365 737.737 163.616C742.106 170.867 744.818 177.24 743.795 177.851Z" fill="#63755C"/>
<path d="M682.898 283.824C682.196 284.784 676.062 281.525 669.198 276.546C662.335 271.566 657.34 266.752 658.042 265.792C658.745 264.832 664.879 268.09 671.742 273.07C678.606 278.049 683.601 282.864 682.898 283.824Z" fill="#63755C"/>
<path d="M790.29 319.295C789.389 320.073 784.148 315.524 778.585 309.136C773.021 302.747 769.242 296.938 770.143 296.16C771.045 295.382 776.285 299.93 781.849 306.318C787.412 312.707 791.192 318.517 790.29 319.295Z" fill="#63755C"/>
<path d="M745.441 171.03C744.012 170.716 744.516 162.971 746.565 153.731C748.615 144.491 751.434 137.255 752.863 137.569C754.291 137.883 753.788 145.628 751.738 154.868C749.688 164.108 746.869 171.344 745.441 171.03Z" fill="#63755C"/>
<path d="M790.105 235.604C788.642 235.646 787.234 228.012 786.959 218.554C786.684 209.095 787.646 201.393 789.108 201.351C790.571 201.309 791.979 208.942 792.254 218.401C792.529 227.86 791.567 235.562 790.105 235.604Z" fill="#63755C"/>
<path d="M683.354 283.364C681.941 283.741 678.805 276.635 676.349 267.494C673.893 258.352 673.048 250.637 674.461 250.261C675.874 249.884 679.01 256.99 681.466 266.131C683.922 275.272 684.768 282.988 683.354 283.364Z" fill="#63755C"/>
<path d="M746.131 187.934C744.999 187.011 748.398 181.016 753.721 174.544C759.045 168.072 764.278 163.573 765.41 164.496C766.542 165.419 763.143 171.414 757.82 177.886C752.496 184.358 747.263 188.857 746.131 187.934Z" fill="#63755C"/>
<path d="M746.168 246.814C745.037 245.891 748.435 239.896 753.758 233.424C759.082 226.952 764.315 222.453 765.447 223.376C766.579 224.299 763.18 230.294 757.857 236.766C752.533 243.238 747.3 247.736 746.168 246.814Z" fill="#63755C"/>
<path d="M746.048 288.995C745.1 287.886 749.52 282.592 755.919 277.171C762.319 271.751 768.275 268.255 769.223 269.365C770.171 270.474 765.752 275.767 759.352 281.188C752.952 286.609 746.996 290.104 746.048 288.995Z" fill="#63755C"/>
<path d="M779.35 378.603C778.952 377.202 785.182 374.217 793.266 371.936C801.35 369.655 808.227 368.942 808.626 370.344C809.024 371.745 802.794 374.73 794.71 377.01C786.626 379.291 779.749 380.004 779.35 378.603Z" fill="#63755C"/>
<path d="M659.013 283.494C659.348 282.077 666.25 282.485 674.428 284.405C682.606 286.326 688.963 289.032 688.628 290.449C688.292 291.867 681.39 291.459 673.212 289.538C665.034 287.618 658.677 284.912 659.013 283.494Z" fill="#63755C"/>
<path d="M700.821 335.628C701.322 334.26 708.127 335.475 716.021 338.342C723.915 341.209 729.907 344.642 729.406 346.01C728.904 347.378 722.099 346.163 714.206 343.296C706.312 340.429 700.319 336.996 700.821 335.628Z" fill="#63755C"/>
<path d="M692.411 323.527C692.747 322.11 699.649 322.518 707.827 324.438C716.005 326.359 722.362 329.065 722.026 330.482C721.69 331.9 714.788 331.492 706.61 329.571C698.433 327.651 692.075 324.945 692.411 323.527Z" fill="#63755C"/>
<path d="M769.332 282.828C770.347 281.779 776.076 285.633 782.128 291.437C788.179 297.24 792.262 302.795 791.248 303.844C790.233 304.893 784.504 301.039 778.453 295.235C772.401 289.432 768.318 283.877 769.332 282.828Z" fill="#63755C"/>
<path d="M682.426 307.59C682.896 306.211 690.296 307.464 698.954 310.389C707.611 313.313 714.249 316.802 713.779 318.181C713.309 319.561 705.909 318.308 697.251 315.383C688.594 312.458 681.956 308.97 682.426 307.59Z" fill="#63755C"/>
<path d="M674.028 294.633C674.518 293.261 681.333 294.421 689.25 297.225C697.166 300.028 703.186 303.413 702.696 304.785C702.206 306.157 695.391 304.997 687.474 302.194C679.558 299.39 673.538 296.005 674.028 294.633Z" fill="#63755C"/>
<path d="M706.288 351.568C706.778 350.196 713.593 351.356 721.509 354.159C729.426 356.962 735.446 360.347 734.956 361.72C734.466 363.092 727.651 361.932 719.734 359.128C711.818 356.325 705.797 352.94 706.288 351.568Z" fill="#63755C"/>
<path d="M746.032 274.392C745.256 273.597 749.142 268.588 754.71 263.205C760.279 257.822 765.422 254.104 766.198 254.9C766.974 255.696 763.089 260.704 757.521 266.087C751.952 271.47 746.808 275.188 746.032 274.392Z" fill="#63755C"/>
<path d="M698.679 298.122C697.566 298.089 696.85 291.801 697.081 284.077C697.312 276.353 698.401 270.118 699.515 270.151C700.629 270.184 701.344 276.472 701.113 284.196C700.883 291.92 699.793 298.155 698.679 298.122Z" fill="#63755C"/>
<path d="M743.843 198.083C742.847 198.737 738.251 193.543 733.579 186.482C728.907 179.421 725.927 173.168 726.923 172.514C727.919 171.861 732.514 177.055 737.187 184.116C741.859 191.176 744.839 197.43 743.843 198.083Z" fill="#63755C"/>
<path d="M790.616 252.261C789.62 252.914 785.025 247.72 780.353 240.66C775.68 233.599 772.7 227.345 773.696 226.692C774.692 226.039 779.288 231.233 783.96 238.293C788.632 245.354 791.612 251.608 790.616 252.261Z" fill="#63755C"/>
<path d="M690.453 290.027C689.265 289.92 688.924 283.007 689.692 274.586C690.46 266.165 692.045 259.426 693.234 259.533C694.422 259.64 694.762 266.554 693.995 274.975C693.227 283.395 691.641 290.135 690.453 290.027Z" fill="#63755C"/>
<path d="M743.417 289.202C742.971 290.303 736.224 288.635 728.347 285.476C720.469 282.316 714.444 278.862 714.89 277.76C715.336 276.659 722.083 278.327 729.961 281.486C737.838 284.646 743.863 288.1 743.417 289.202Z" fill="#63755C"/>
<path d="M743.327 252.601C742.551 253.503 736.693 249.777 730.242 244.277C723.791 238.778 719.19 233.588 719.966 232.686C720.742 231.784 726.601 235.511 733.052 241.01C739.503 246.51 744.103 251.699 743.327 252.601Z" fill="#63755C"/>
<path d="M791.495 273.877C790.473 274.489 786.097 269.111 781.721 261.865C777.345 254.618 774.626 248.247 775.649 247.635C776.671 247.023 781.047 252.402 785.423 259.648C789.799 266.895 792.518 273.265 791.495 273.877Z" fill="#63755C"/>
<path d="M743.412 328.282C742.636 329.184 738.087 326.573 733.25 322.45C728.414 318.327 725.122 314.253 725.898 313.351C726.674 312.449 731.223 315.06 736.06 319.183C740.896 323.306 744.188 327.38 743.412 328.282Z" fill="#63755C"/>
<path d="M784.287 358.038C783.511 358.94 778.962 356.329 774.125 352.206C769.289 348.083 765.997 344.009 766.773 343.107C767.549 342.205 772.098 344.816 776.935 348.939C781.771 353.062 785.063 357.136 784.287 358.038Z" fill="#63755C"/>
<path d="M788.024 338.292C787.248 339.194 782.698 336.583 777.861 332.46C773.025 328.337 769.733 324.263 770.509 323.361C771.285 322.459 775.835 325.07 780.671 329.193C785.508 333.316 788.799 337.39 788.024 338.292Z" fill="#63755C"/>
<path d="M743.288 343.472C742.626 344.241 738.907 342.152 734.981 338.806C731.055 335.459 728.409 332.122 729.071 331.352C729.733 330.582 733.452 332.671 737.378 336.018C741.304 339.365 743.95 342.702 743.288 343.472Z" fill="#63755C"/>
<path d="M743.365 355.184C742.885 355.742 740.069 354.126 737.076 351.574C734.083 349.022 732.045 346.501 732.525 345.942C733.005 345.384 735.821 347 738.815 349.552C741.808 352.104 743.846 354.625 743.365 355.184Z" fill="#63755C"/>
<path d="M742.525 399.816C742.308 400.518 739.079 400.153 735.312 398.999C731.545 397.846 728.667 396.342 728.884 395.639C729.101 394.937 732.331 395.302 736.098 396.456C739.864 397.609 742.742 399.113 742.525 399.816Z" fill="#63755C"/>
<path d="M773.926 387.413C773.361 387.886 770.848 385.833 768.314 382.828C765.78 379.823 764.184 377.004 764.75 376.531C765.315 376.059 767.828 378.112 770.362 381.117C772.896 384.121 774.492 386.941 773.926 387.413Z" fill="#63755C"/>
<path d="M719.742 309.445C720.48 309.462 721.003 312.656 720.91 316.578C720.818 320.501 720.144 323.667 719.407 323.649C718.669 323.632 718.145 320.438 718.238 316.516C718.331 312.593 719.004 309.428 719.742 309.445Z" fill="#63755C"/>
<path d="M725.719 322.457C726.457 322.474 726.995 325.025 726.921 328.155C726.848 331.285 726.189 333.808 725.451 333.791C724.713 333.774 724.175 331.223 724.249 328.093C724.323 324.963 724.981 322.44 725.719 322.457Z" fill="#63755C"/>
<path d="M743.411 314.553C742.635 315.456 736.777 311.729 730.326 306.229C723.875 300.73 719.274 295.541 720.05 294.638C720.826 293.736 726.685 297.463 733.136 302.962C739.587 308.462 744.187 313.651 743.411 314.553Z" fill="#63755C"/>
<path d="M743.355 299.414C743.054 300.563 736.148 299.766 727.93 297.635C719.712 295.503 713.293 292.843 713.594 291.693C713.895 290.544 720.801 291.341 729.019 293.472C737.238 295.604 743.656 298.264 743.355 299.414Z" fill="#63755C"/>
<path d="M793.13 290.814C793.906 291.716 799.764 287.99 806.215 282.49C812.666 276.991 817.267 271.801 816.491 270.899C815.715 269.997 809.856 273.724 803.405 279.223C796.954 284.722 792.354 289.912 793.13 290.814Z" fill="#63755C"/>
<path d="M793.186 275.676C793.487 276.826 800.393 276.029 808.611 273.897C816.829 271.765 823.248 269.105 822.947 267.956C822.646 266.807 815.74 267.603 807.522 269.735C799.304 271.867 792.885 274.527 793.186 275.676Z" fill="#63755C"/>
<path d="M743.662 238.702C742.768 239.489 737.482 234.994 731.854 228.661C726.227 222.328 722.389 216.557 723.283 215.77C724.176 214.983 729.462 219.478 735.09 225.811C740.717 232.144 744.555 237.915 743.662 238.702Z" fill="#63755C"/>
<path d="M744.137 211.731C743.303 212.58 737.705 208.476 731.634 202.563C725.563 196.651 721.318 191.17 722.152 190.321C722.986 189.472 728.584 193.576 734.655 199.489C740.726 205.401 744.972 210.882 744.137 211.731Z" fill="#63755C"/>
<path d="M763.43 186.242C764.413 186.915 761.308 193.108 756.496 200.075C751.683 207.042 746.985 212.144 746.002 211.471C745.019 210.798 748.124 204.604 752.936 197.637C757.749 190.671 762.447 185.569 763.43 186.242Z" fill="#63755C"/>
<path d="M763.971 284.973C764.869 285.754 761.614 290.927 756.7 296.525C751.786 302.124 747.074 306.029 746.175 305.247C745.277 304.466 748.533 299.293 753.447 293.695C758.361 288.096 763.073 284.191 763.971 284.973Z" fill="#63755C"/>
<path d="M708.862 284.106C710.053 284.041 711.35 290.007 711.758 297.431C712.166 304.855 711.532 310.926 710.34 310.991C709.149 311.056 707.853 305.09 707.444 297.666C707.036 290.242 707.671 284.171 708.862 284.106Z" fill="#63755C"/>
<path d="M761.714 346.04C762.612 346.822 759.862 351.419 755.571 356.307C751.28 361.195 747.074 364.525 746.175 363.743C745.277 362.962 748.027 358.365 752.318 353.477C756.609 348.588 760.816 345.259 761.714 346.04Z" fill="#63755C"/>
<path d="M739.8 383.003C739.507 384.155 735.028 384.017 729.797 382.696C724.565 381.375 720.562 379.371 720.856 378.219C721.149 377.068 725.628 377.206 730.859 378.527C736.09 379.848 740.093 381.852 739.8 383.003Z" fill="#63755C"/>
<path d="M778.904 375.79C777.955 376.51 774.534 373.628 771.263 369.354C767.993 365.08 766.11 361.032 767.059 360.312C768.008 359.592 771.429 362.474 774.7 366.748C777.971 371.022 779.853 375.07 778.904 375.79Z" fill="#63755C"/>
<path d="M785.732 402.531C785.795 403.717 781.476 404.906 776.086 405.187C770.697 405.469 766.277 404.735 766.215 403.549C766.152 402.363 770.471 401.173 775.86 400.892C781.25 400.611 785.67 401.344 785.732 402.531Z" fill="#63755C"/>
<path d="M755.097 397.409C755.995 398.191 754.726 401.1 752.263 403.906C749.799 406.713 747.074 408.355 746.175 407.573C745.277 406.792 746.546 403.883 749.01 401.076C751.473 398.269 754.199 396.628 755.097 397.409Z" fill="#63755C"/>
<path d="M763.971 297.959C764.869 298.741 761.614 303.913 756.7 309.511C751.786 315.11 747.074 319.015 746.175 318.233C745.277 317.452 748.533 312.28 753.447 306.681C758.361 301.083 763.073 297.178 763.971 297.959Z" fill="#63755C"/>
<path d="M810.319 291.607C811.217 292.388 807.962 297.56 803.047 303.159C798.133 308.758 793.421 312.663 792.523 311.881C791.625 311.099 794.88 305.927 799.794 300.329C804.709 294.73 809.42 290.825 810.319 291.607Z" fill="#63755C"/>
<path d="M798.523 384.204C798.732 385.373 793.698 387.244 787.278 388.384C780.859 389.523 775.485 389.498 775.276 388.329C775.066 387.16 780.101 385.288 786.52 384.149C792.94 383.01 798.314 383.035 798.523 384.204Z" fill="#63755C"/>
<path d="M809.321 304.593C810.219 305.375 806.963 310.547 802.049 316.145C797.135 321.744 792.423 325.649 791.525 324.867C790.627 324.086 793.882 318.914 798.796 313.315C803.71 307.716 808.422 303.811 809.321 304.593Z" fill="#63755C"/>
<path d="M764.094 312.965C764.883 313.856 761.493 318.114 756.522 322.475C751.552 326.837 746.883 329.65 746.094 328.759C745.305 327.868 748.695 323.61 753.666 319.249C758.637 314.887 763.305 312.074 764.094 312.965Z" fill="#63755C"/>
<path d="M760.276 359.837C761.194 360.874 758.759 364.503 754.837 367.944C750.916 371.385 746.993 373.334 746.076 372.297C745.158 371.26 747.593 367.631 751.514 364.19C755.436 360.749 759.358 358.8 760.276 359.837Z" fill="#63755C"/>
<path d="M737.967 374.299C737.533 375.611 731.755 374.9 725.06 372.71C718.365 370.52 713.288 367.681 713.722 366.368C714.155 365.055 719.933 365.766 726.628 367.956C733.324 370.146 738.4 372.986 737.967 374.299Z" fill="#63755C"/>
<path d="M757.8 378.278C758.717 379.315 756.837 382.458 753.599 385.299C750.362 388.14 746.993 389.602 746.076 388.565C745.158 387.529 747.039 384.386 750.276 381.545C753.514 378.704 756.882 377.242 757.8 378.278Z" fill="#63755C"/>
<path d="M758.866 385.254C759.971 384.418 762.983 386.513 765.594 389.935C768.204 393.356 769.425 396.807 768.319 397.643C767.214 398.479 764.202 396.383 761.592 392.962C758.981 389.54 757.761 386.089 758.866 385.254Z" fill="#63755C"/>
<path d="M764.094 329.524C764.883 330.415 761.493 334.673 756.522 339.034C751.552 343.395 746.883 346.209 746.094 345.318C745.305 344.426 748.695 340.169 753.666 335.807C758.637 331.446 763.305 328.633 764.094 329.524Z" fill="#63755C"/>
<path d="M769.16 240.016C769.946 240.91 765.401 246.147 759.008 251.714C752.616 257.281 746.797 261.069 746.012 260.175C745.227 259.281 749.772 254.044 756.164 248.477C762.556 242.91 768.375 239.122 769.16 240.016Z" fill="#63755C"/>
<path d="M783.312 368.075C782.364 366.966 786.783 361.672 793.183 356.251C799.583 350.831 805.539 347.335 806.487 348.445C807.435 349.554 803.015 354.848 796.616 360.268C790.216 365.689 784.26 369.184 783.312 368.075Z" fill="#63755C"/>
<path d="M785.552 357.941C784.776 357.145 788.661 352.137 794.23 346.754C799.798 341.371 804.942 337.653 805.718 338.449C806.494 339.245 802.609 344.253 797.04 349.636C791.471 355.019 786.328 358.737 785.552 357.941Z" fill="#63755C"/>
<path d="M812.348 320.843C813.133 321.737 808.588 326.974 802.196 332.541C795.804 338.108 789.985 341.896 789.199 341.002C788.414 340.108 792.959 334.871 799.352 329.304C805.744 323.737 811.562 319.949 812.348 320.843Z" fill="#63755C"/>
<path d="M792.018 247.889C790.886 246.966 794.284 240.971 799.608 234.499C804.932 228.027 810.165 223.529 811.296 224.451C812.428 225.374 809.03 231.369 803.706 237.841C798.383 244.313 793.15 248.812 792.018 247.889Z" fill="#63755C"/>
<path d="M815.008 241.092C815.793 241.986 811.248 247.223 804.856 252.79C798.464 258.357 792.645 262.145 791.86 261.251C791.074 260.358 795.619 255.12 802.012 249.553C808.404 243.986 814.223 240.198 815.008 241.092Z" fill="#63755C"/>
<path d="M766.072 205.531C766.979 206.303 763.245 212.141 757.731 218.572C752.217 225.002 747.011 229.59 746.104 228.819C745.196 228.048 748.931 222.21 754.445 215.779C759.959 209.348 765.165 204.76 766.072 205.531Z" fill="#63755C"/>
<path d="M743.305 268.31C742.471 269.159 736.873 265.054 730.802 259.141C724.731 253.229 720.485 247.748 721.32 246.899C722.154 246.05 727.752 250.154 733.823 256.067C739.894 261.979 744.14 267.46 743.305 268.31Z" fill="#63755C"/>
<path d="M743.555 223.975C742.721 224.824 737.123 220.719 731.052 214.807C724.981 208.894 720.735 203.413 721.57 202.564C722.404 201.715 728.002 205.819 734.073 211.732C740.144 217.644 744.39 223.125 743.555 223.975Z" fill="#63755C"/>
<path d="M741.274 390.058C741.062 390.834 736.581 390.293 731.265 388.849C725.95 387.406 721.813 385.607 722.025 384.832C722.238 384.056 726.719 384.597 732.035 386.04C737.35 387.483 741.487 389.282 741.274 390.058Z" fill="#63755C"/>
<path d="M743.555 280.55C742.721 281.399 737.123 277.294 731.052 271.382C724.981 265.469 720.735 259.988 721.57 259.139C722.404 258.29 728.002 262.395 734.073 268.307C740.144 274.219 744.39 279.701 743.555 280.55Z" fill="#63755C"/>
<path d="M791.739 285.844C790.905 286.693 785.307 282.588 779.236 276.676C773.165 270.763 768.919 265.282 769.753 264.433C770.587 263.584 776.185 267.688 782.257 273.601C788.328 279.513 792.573 284.995 791.739 285.844Z" fill="#63755C"/>
<path fill-rule="evenodd" clip-rule="evenodd" d="M1677.64 446H1468.36C1478.69 423.427 1521.61 406.5 1573 406.5C1624.39 406.5 1667.31 423.427 1677.64 446ZM302.098 446H105.904C122.416 428.341 160.124 416 204.001 416C247.878 416 285.586 428.341 302.098 446ZM607.614 446H415.388C432.805 429.416 469.3 418 511.501 418C553.702 418 590.196 429.416 607.614 446ZM834.098 446H637.904C654.416 428.341 692.124 416 736.001 416C779.878 416 817.586 428.341 834.098 446ZM1121.61 446H929.388C946.805 429.416 983.3 418 1025.5 418C1067.7 418 1104.2 429.416 1121.61 446ZM1402.1 446H1205.9C1222.42 428.341 1260.12 416 1304 416C1347.88 416 1385.59 428.341 1402.1 446Z" fill="#A69B88"/>
<path d="M1729 450.822H0V433.822C35.9151 429.625 59.277 430.56 102.5 433.822C166.41 444.11 210.57 445.395 315 433.822C373.633 430.745 410.427 422.359 473 427.322C507.34 429.586 607.442 417.855 716 433.822C826.409 448.032 878.925 444.698 968.5 433.822C1054.14 417.594 1108.36 423.049 1205.5 433.822C1304.23 441.757 1369.24 442.666 1513.5 433.822C1574.54 418.327 1624.96 420.499 1729 433.822V450.822Z" fill="#63755C"/>
</svg>
