<svg width="76" height="100" viewBox="0 0 76 100" fill="none" xmlns="http://www.w3.org/2000/svg">
<path d="M41.3242 98.8845L41.3242 64.2012" stroke="#A69B88" stroke-width="2" stroke-linecap="round" stroke-linejoin="round"/>
<path d="M41.6407 77.5127C43.6003 78.6831 51.973 68.3728 60.3417 54.4839C68.7104 40.5951 73.9061 28.3872 71.9465 27.2168C69.987 26.0464 61.6142 36.3568 53.2455 50.2456C44.8768 64.1344 39.6811 76.3423 41.6407 77.5127Z" fill="#A69B88"/>
<path d="M41.4393 65.1849C44.1755 64.5833 43.2108 49.7473 39.2848 32.0478C35.3587 14.3484 29.9579 0.487811 27.2218 1.08941C24.4857 1.69102 25.4503 16.527 29.3763 34.2264C33.3024 51.9259 38.7032 65.7865 41.4393 65.1849Z" fill="#A69B88"/>
<path d="M40.8537 96.799C43.0215 95.0315 36.5123 83.5485 26.3148 71.1511C16.1173 58.7537 6.09317 50.1365 3.92529 51.9041C1.75741 53.6716 8.2667 65.1546 18.4642 77.552C28.6617 89.9494 38.6858 98.5666 40.8537 96.799Z" fill="#A69B88"/>
</svg>
