<svg width="1728" height="313" viewBox="0 0 1728 313" fill="none" xmlns="http://www.w3.org/2000/svg">
<path d="M249.69 87.6285C247.396 88.999 237.592 76.9264 227.793 60.6638C217.994 44.4011 211.91 30.1067 214.205 28.7363C216.499 27.3658 226.303 39.4384 236.102 55.701C245.901 71.9637 251.985 86.2581 249.69 87.6285Z" fill="#63755C"/>
<path d="M251.384 76.3257C248.18 75.6213 249.309 58.2497 253.906 37.525C258.503 16.8004 264.827 0.570878 268.031 1.2753C271.235 1.97973 270.105 19.3514 265.508 40.076C260.911 60.8006 254.587 77.0302 251.384 76.3257Z" fill="#63755C"/>
<path d="M254.931 110.242C252.393 108.172 260.015 94.7264 271.955 80.2101C283.896 65.6938 295.633 55.6038 298.171 57.6735C300.71 59.7431 293.088 73.1887 281.148 87.705C269.207 102.221 257.47 112.311 254.931 110.242Z" fill="#63755C"/>
<path d="M255.013 242.305C252.475 240.236 260.097 226.79 272.037 212.274C283.978 197.757 295.715 187.667 298.253 189.737C300.792 191.807 293.17 205.252 281.23 219.768C269.289 234.285 257.552 244.375 255.013 242.305Z" fill="#63755C"/>
<path d="M249.793 133.008C247.559 134.473 237.252 122.823 226.772 106.987C216.293 91.1503 209.609 77.1242 211.843 75.6586C214.077 74.193 224.384 85.8429 234.864 101.679C245.343 117.516 252.027 131.542 249.793 133.008Z" fill="#63755C"/>
<path d="M249.396 224.11C247.392 225.875 235.535 215.792 222.914 201.588C210.292 187.385 201.684 174.44 203.688 172.675C205.692 170.909 217.549 180.993 230.17 195.196C242.792 209.4 251.4 222.345 249.396 224.11Z" fill="#63755C"/>
<path d="M250.453 163.619C248.582 165.523 236.027 156.317 222.41 143.056C208.793 129.795 199.271 117.501 201.142 115.597C203.013 113.692 215.568 122.899 229.185 136.16C242.802 149.421 252.324 161.715 250.453 163.619Z" fill="#63755C"/>
<path d="M293.723 106.445C295.928 107.955 288.964 121.846 278.17 137.471C267.377 153.097 256.839 164.541 254.634 163.031C252.43 161.522 259.393 147.631 270.187 132.005C280.981 116.379 291.518 104.936 293.723 106.445Z" fill="#63755C"/>
<path d="M299.657 149.714C301.692 151.444 293.316 164.538 280.948 178.962C268.581 193.385 256.905 203.676 254.87 201.946C252.835 200.217 261.211 187.122 273.579 172.698C285.947 158.275 297.622 147.984 299.657 149.714Z" fill="#63755C"/>
<path d="M249.151 191.079C247.28 192.983 234.724 183.777 221.107 170.516C207.49 157.255 197.968 144.961 199.839 143.057C201.71 141.152 214.265 150.359 227.883 163.62C241.5 176.881 251.022 189.175 249.151 191.079Z" fill="#63755C"/>
<path d="M1431.4 230.436C1453.58 201.868 1470.91 203.745 1489.18 216.654C1462.79 232.223 1451.37 237.494 1431.4 230.436Z" fill="#63755C"/>
<path d="M1399.04 229.991C1393.43 205.581 1382.9 186.869 1354.1 194.728C1373.36 222.855 1383.23 230.617 1398.95 229.995C1398.98 229.993 1399.01 229.992 1399.04 229.991Z" fill="#63755C"/>
<path d="M1401.08 219.513C1407.38 203.249 1397.34 177.75 1382.25 165.001C1370.18 188.16 1375.5 199.942 1401.08 219.513Z" fill="#63755C"/>
<path d="M785.869 226.781C818.296 195.319 835.243 201.694 865.161 219.096C839.91 243.286 823.423 248.208 785.869 226.781Z" fill="#63755C"/>
<path d="M943.719 200.478C915.749 235.962 898.107 231.89 866.146 218.609C887.967 191.285 903.656 184.22 943.719 200.478Z" fill="#63755C"/>
<path d="M358.191 298H162C178.512 280.341 216.22 268.001 260.096 268.001C303.972 268.001 341.68 280.341 358.191 298Z" fill="#63755C"/>
<path d="M978.192 298H782C798.512 280.341 836.22 268.001 880.096 268.001C923.972 268.001 961.68 280.341 978.192 298Z" fill="#63755C"/>
<path d="M1510.19 298H1314C1330.51 280.341 1368.22 268.001 1412.1 268.001C1455.97 268.001 1493.68 280.341 1510.19 298Z" fill="#63755C"/>
<path d="M252.096 75V280" stroke="#63755C" stroke-width="3" stroke-linejoin="round"/>
<path d="M865.596 274.5C868.875 253.121 869.539 240.527 865.596 218.5C871.054 240.365 870.554 252.965 868.596 274.5H865.596Z" fill="#63755C" stroke="#63755C" stroke-linejoin="round"/>
<path d="M1397.6 228.5C1408.34 235.07 1415.41 250.144 1428.1 278" stroke="#63755C"/>
<path d="M1433.1 230C1420.09 234.844 1422.28 248.75 1423.6 270.5" stroke="#63755C"/>
<path d="M1400.1 217C1414.5 237.571 1419.97 250.053 1425.1 274" stroke="#63755C"/>
<path d="M1729 314.001H0V297.001C35.9151 292.804 59.277 293.739 102.5 297.001H315C373.633 293.924 410.427 285.538 473 290.501C502.172 300.92 597.111 297.338 716 297.001H968.5C1054.14 280.773 1108.36 286.228 1205.5 297.001H1513.5C1574.54 281.506 1624.96 283.677 1729 297.001V314.001Z" fill="#63755C"/>
</svg>
