<svg width="1695" height="570" viewBox="0 0 1695 570" fill="none" xmlns="http://www.w3.org/2000/svg">
<path d="M941.494 481.195L940.746 471.733L932.254 472.405" stroke="#A69B88" stroke-linecap="round" stroke-linejoin="round"/>
<path d="M961.74 458.976L960.992 449.515L952.5 450.186" stroke="#A69B88" stroke-linecap="round" stroke-linejoin="round"/>
<path d="M949.434 475.032L948.496 463.167L937.018 464.074" stroke="#A69B88" stroke-linecap="round" stroke-linejoin="round"/>
<path d="M955.702 468.43L954.764 456.564L943.286 457.472" stroke="#A69B88" stroke-linecap="round" stroke-linejoin="round"/>
<path d="M925.329 489.61C927.185 453.462 940.605 447.955 967.65 441.841C966.035 469.808 959.048 481.691 925.329 489.61Z" fill="white" stroke="#A69B88" stroke-linecap="round" stroke-linejoin="round"/>
<path d="M968.78 440.658L931.705 482.565" stroke="#A69B88" stroke-linecap="round" stroke-linejoin="round"/>
<path d="M1058.47 373.652C1039.78 400.397 1035.07 419.44 1029.69 455.53" stroke="#A69B88" stroke-width="2" stroke-linecap="round"/>
<path d="M969.79 440.317C994.005 447.762 1006.86 459.613 1028 499.777" stroke="#A69B88" stroke-width="2" stroke-linecap="round"/>
<path d="M1082.81 439.942C1059.04 448.697 1046.85 461.231 1027.93 502.489" stroke="#A69B88" stroke-width="2" stroke-linecap="round"/>
<path d="M1027.65 551.521C1027.05 520.229 1027.58 502.625 1029 472.611C1030.02 416.814 1023.51 398.147 1013.99 370.206" stroke="#A69B88" stroke-width="2" stroke-linecap="round"/>
<path d="M942.729 422.324L949.014 421.636L948.396 415.995" stroke="#A69B88" stroke-linecap="round" stroke-linejoin="round"/>
<path d="M957.928 435.362L964.213 434.674L963.595 429.033" stroke="#A69B88" stroke-linecap="round" stroke-linejoin="round"/>
<path d="M946.987 427.484L954.869 426.62L954.034 418.996" stroke="#A69B88" stroke-linecap="round" stroke-linejoin="round"/>
<path d="M951.512 431.528L959.395 430.665L958.559 423.041" stroke="#A69B88" stroke-linecap="round" stroke-linejoin="round"/>
<path d="M936.796 411.731C960.904 412.239 964.841 421.065 969.457 438.95C950.802 438.438 942.749 434.025 936.796 411.731Z" fill="white" stroke="#A69B88" stroke-linecap="round" stroke-linejoin="round"/>
<path d="M970.267 439.678L941.616 415.834" stroke="#A69B88" stroke-linecap="round" stroke-linejoin="round"/>
<path d="M1002.06 453.329L995.189 455.12L996.797 461.287" stroke="#A69B88" stroke-linecap="round" stroke-linejoin="round"/>
<path d="M983.043 441.324L976.172 443.115L977.78 449.282" stroke="#A69B88" stroke-linecap="round" stroke-linejoin="round"/>
<path d="M996.486 448.29L987.869 450.536L990.042 458.871" stroke="#A69B88" stroke-linecap="round" stroke-linejoin="round"/>
<path d="M990.796 444.537L982.18 446.783L984.353 455.118" stroke="#A69B88" stroke-linecap="round" stroke-linejoin="round"/>
<path d="M1010.38 464.128C983.514 467.5 977.7 458.337 969.65 439.219C990.461 436.742 1000.13 440.33 1010.38 464.128Z" fill="white" stroke="#A69B88" stroke-linecap="round" stroke-linejoin="round"/>
<path d="M968.63 438.543L1004.36 460.358" stroke="#A69B88" stroke-linecap="round" stroke-linejoin="round"/>
<path d="M991.022 396.362L993.018 405.641L1001.35 403.849" stroke="#A69B88" stroke-linecap="round" stroke-linejoin="round"/>
<path d="M973.895 421.069L975.891 430.348L984.219 428.556" stroke="#A69B88" stroke-linecap="round" stroke-linejoin="round"/>
<path d="M983.968 403.518L986.471 415.154L997.727 412.733" stroke="#A69B88" stroke-linecap="round" stroke-linejoin="round"/>
<path d="M978.634 410.903L981.137 422.539L992.393 420.118" stroke="#A69B88" stroke-linecap="round" stroke-linejoin="round"/>
<path d="M1005.92 385.875C1008.88 421.951 996.306 429.188 970.311 438.835C968.203 410.9 973.553 398.196 1005.92 385.875Z" fill="white" stroke="#A69B88" stroke-linecap="round" stroke-linejoin="round"/>
<path d="M969.35 440.158L1000.54 393.705" stroke="#A69B88" stroke-linecap="round" stroke-linejoin="round"/>
<path d="M1100.49 485.115L1100.72 475.627L1109.24 475.834" stroke="#A69B88" stroke-linecap="round" stroke-linejoin="round"/>
<path d="M1079.06 464.034L1079.29 454.546L1087.81 454.753" stroke="#A69B88" stroke-linecap="round" stroke-linejoin="round"/>
<path d="M1092.23 479.395L1092.52 467.496L1104.03 467.776" stroke="#A69B88" stroke-linecap="round" stroke-linejoin="round"/>
<path d="M1085.61 473.145L1085.9 461.246L1097.41 461.526" stroke="#A69B88" stroke-linecap="round" stroke-linejoin="round"/>
<path d="M1117.09 492.637C1113.27 456.643 1099.57 451.877 1072.23 447.246C1075.37 475.084 1082.99 486.568 1117.09 492.637Z" fill="white" stroke="#A69B88" stroke-linecap="round" stroke-linejoin="round"/>
<path d="M1071.03 446.127L1110.34 485.95" stroke="#A69B88" stroke-linecap="round" stroke-linejoin="round"/>
<path d="M1096.05 426.399L1089.74 426.055L1090.05 420.388" stroke="#A69B88" stroke-linecap="round" stroke-linejoin="round"/>
<path d="M1081.59 440.247L1075.27 439.902L1075.58 434.236" stroke="#A69B88" stroke-linecap="round" stroke-linejoin="round"/>
<path d="M1092.08 431.784L1084.16 431.352L1084.58 423.693" stroke="#A69B88" stroke-linecap="round" stroke-linejoin="round"/>
<path d="M1087.78 436.069L1079.86 435.637L1080.28 427.978" stroke="#A69B88" stroke-linecap="round" stroke-linejoin="round"/>
<path d="M1101.4 415.499C1077.36 417.322 1073.91 426.348 1070.27 444.459C1088.87 442.93 1096.67 438.084 1101.4 415.499Z" fill="white" stroke="#A69B88" stroke-linecap="round" stroke-linejoin="round"/>
<path d="M1069.5 445.23L1096.81 419.859" stroke="#A69B88" stroke-linecap="round" stroke-linejoin="round"/>
<path d="M1038.5 460.594L1045.46 462.008L1044.19 468.253" stroke="#A69B88" stroke-linecap="round" stroke-linejoin="round"/>
<path d="M1056.83 447.57L1063.79 448.984L1062.52 455.23" stroke="#A69B88" stroke-linecap="round" stroke-linejoin="round"/>
<path d="M1043.79 455.26L1052.52 457.033L1050.8 465.474" stroke="#A69B88" stroke-linecap="round" stroke-linejoin="round"/>
<path d="M1049.27 451.202L1057.99 452.976L1056.28 461.417" stroke="#A69B88" stroke-linecap="round" stroke-linejoin="round"/>
<path d="M1030.78 471.833C1057.79 473.734 1063.1 464.268 1070.09 444.739C1049.18 443.401 1039.72 447.511 1030.78 471.833Z" fill="white" stroke="#A69B88" stroke-linecap="round" stroke-linejoin="round"/>
<path d="M1071.07 444.008L1036.59 467.738" stroke="#A69B88" stroke-linecap="round" stroke-linejoin="round"/>
<path d="M1046.42 403.11L1044.93 412.483L1036.52 411.149" stroke="#A69B88" stroke-linecap="round" stroke-linejoin="round"/>
<path d="M1064.87 426.846L1063.38 436.22L1054.97 434.885" stroke="#A69B88" stroke-linecap="round" stroke-linejoin="round"/>
<path d="M1053.85 409.87L1051.99 421.626L1040.62 419.822" stroke="#A69B88" stroke-linecap="round" stroke-linejoin="round"/>
<path d="M1059.58 416.953L1057.71 428.708L1046.34 426.904" stroke="#A69B88" stroke-linecap="round" stroke-linejoin="round"/>
<path d="M1030.97 393.451C1029.98 429.634 1042.93 436.175 1069.41 444.39C1070 416.382 1063.96 403.988 1030.97 393.451Z" fill="white" stroke="#A69B88" stroke-linecap="round" stroke-linejoin="round"/>
<path d="M1070.44 445.658L1036.76 400.975" stroke="#A69B88" stroke-linecap="round" stroke-linejoin="round"/>
<path d="M1063.3 498.95L1059.06 490.458L1066.68 486.653" stroke="#A69B88" stroke-linecap="round" stroke-linejoin="round"/>
<path d="M1034.49 490.359L1030.25 481.867L1037.87 478.063" stroke="#A69B88" stroke-linecap="round" stroke-linejoin="round"/>
<path d="M1053.32 497.766L1048 487.117L1058.3 481.975" stroke="#A69B88" stroke-linecap="round" stroke-linejoin="round"/>
<path d="M1044.54 495.343L1039.23 484.693L1049.53 479.551" stroke="#A69B88" stroke-linecap="round" stroke-linejoin="round"/>
<path d="M1081.49 497.824C1061.25 467.811 1046.91 470.015 1020.59 478.726C1036.4 501.853 1048.51 508.43 1081.49 497.824Z" fill="white" stroke="#A69B88" stroke-linecap="round" stroke-linejoin="round"/>
<path d="M1019.01 478.295L1072.39 495.075" stroke="#A69B88" stroke-linecap="round" stroke-linejoin="round"/>
<path d="M1031.88 449.149L1026.14 451.801L1023.76 446.649" stroke="#A69B88" stroke-linecap="round" stroke-linejoin="round"/>
<path d="M1025.58 468.16L1019.84 470.812L1017.46 465.66" stroke="#A69B88" stroke-linecap="round" stroke-linejoin="round"/>
<path d="M1030.89 455.768L1023.69 459.094L1020.47 452.131" stroke="#A69B88" stroke-linecap="round" stroke-linejoin="round"/>
<path d="M1029.1 461.567L1021.9 464.893L1018.68 457.93" stroke="#A69B88" stroke-linecap="round" stroke-linejoin="round"/>
<path d="M1031.5 437.014C1011.11 449.884 1012.28 459.475 1017.55 477.179C1033.27 467.118 1037.9 459.184 1031.5 437.014Z" fill="white" stroke="#A69B88" stroke-linecap="round" stroke-linejoin="round"/>
<path d="M1017.24 478.221L1029.49 443.015" stroke="#A69B88" stroke-linecap="round" stroke-linejoin="round"/>
<path d="M997.036 506.315L1003.85 504.306L1005.65 510.418" stroke="#A69B88" stroke-linecap="round" stroke-linejoin="round"/>
<path d="M1007.14 486.221L1013.95 484.212L1015.75 490.324" stroke="#A69B88" stroke-linecap="round" stroke-linejoin="round"/>
<path d="M999.215 499.123L1007.76 496.604L1010.19 504.865" stroke="#A69B88" stroke-linecap="round" stroke-linejoin="round"/>
<path d="M1002.15 492.974L1010.69 490.454L1013.13 498.716" stroke="#A69B88" stroke-linecap="round" stroke-linejoin="round"/>
<path d="M995.477 519.86C1020.24 508.891 1020.49 498.042 1017.53 477.511C998.42 486.122 991.988 494.183 995.477 519.86Z" fill="white" stroke="#A69B88" stroke-linecap="round" stroke-linejoin="round"/>
<path d="M1018.05 476.406L998.693 513.522" stroke="#A69B88" stroke-linecap="round" stroke-linejoin="round"/>
<path d="M977.114 451.815L980.189 460.794L972.131 463.554" stroke="#A69B88" stroke-linecap="round" stroke-linejoin="round"/>
<path d="M1004.53 464.148L1007.61 473.127L999.547 475.887" stroke="#A69B88" stroke-linecap="round" stroke-linejoin="round"/>
<path d="M986.848 454.308L990.705 465.568L979.813 469.299" stroke="#A69B88" stroke-linecap="round" stroke-linejoin="round"/>
<path d="M995.227 457.883L999.084 469.144L988.192 472.875" stroke="#A69B88" stroke-linecap="round" stroke-linejoin="round"/>
<path d="M958.938 450.516C975.014 482.947 989.517 482.663 1016.76 477.521C1004.16 452.501 993.026 444.376 958.938 450.516Z" fill="white" stroke="#A69B88" stroke-linecap="round" stroke-linejoin="round"/>
<path d="M1018.27 478.16L967.586 454.449" stroke="#A69B88" stroke-linecap="round" stroke-linejoin="round"/>
<path d="M999.433 401.268L998.066 394.897L992.349 396.124" stroke="#A69B88" stroke-linecap="round" stroke-linejoin="round"/>
<path d="M1011.2 384.316L1009.84 377.945L1004.12 379.172" stroke="#A69B88" stroke-linecap="round" stroke-linejoin="round"/>
<path d="M1004.28 396.356L1002.56 388.367L994.836 390.025" stroke="#A69B88" stroke-linecap="round" stroke-linejoin="round"/>
<path d="M1007.95 391.292L1006.23 383.303L998.504 384.961" stroke="#A69B88" stroke-linecap="round" stroke-linejoin="round"/>
<path d="M989.2 408.464C987.186 383.697 995.819 378.734 1013.67 372.121C1015.1 391.299 1011.43 400.018 989.2 408.464Z" fill="white" stroke="#A69B88" stroke-linecap="round" stroke-linejoin="round"/>
<path d="M1014.33 371.21L992.896 403.088" stroke="#A69B88" stroke-linecap="round" stroke-linejoin="round"/>
<path d="M965.209 360.919L973.658 356.597L969.779 349.013" stroke="#A69B88" stroke-linecap="round" stroke-linejoin="round"/>
<path d="M993.502 371.093L1001.95 366.771L998.072 359.187" stroke="#A69B88" stroke-linecap="round" stroke-linejoin="round"/>
<path d="M973.947 365.888L984.543 360.467L979.299 350.217" stroke="#A69B88" stroke-linecap="round" stroke-linejoin="round"/>
<path d="M982.454 369.144L993.051 363.724L987.807 353.474" stroke="#A69B88" stroke-linecap="round" stroke-linejoin="round"/>
<path d="M951.232 349.227C985.324 337.066 995.56 347.344 1011.59 369.97C985.143 379.214 971.489 377.324 951.232 349.227Z" fill="white" stroke="#A69B88" stroke-linecap="round" stroke-linejoin="round"/>
<path d="M1013.11 370.559L960.186 352.409" stroke="#A69B88" stroke-linecap="round" stroke-linejoin="round"/>
<path d="M1014.37 336.47L1018.67 341.793L1023.45 337.931" stroke="#A69B88" stroke-linecap="round" stroke-linejoin="round"/>
<path d="M1011.38 357.944L1015.68 363.267L1020.46 359.405" stroke="#A69B88" stroke-linecap="round" stroke-linejoin="round"/>
<path d="M1012.15 343.372L1017.55 350.048L1024 344.829" stroke="#A69B88" stroke-linecap="round" stroke-linejoin="round"/>
<path d="M1011.12 349.86L1016.51 356.535L1022.97 351.316" stroke="#A69B88" stroke-linecap="round" stroke-linejoin="round"/>
<path d="M1020.55 324.877C1034.18 347.136 1028.44 355.883 1014.85 370.547C1004.41 353.252 1003.72 343.336 1020.55 324.877Z" fill="white" stroke="#A69B88" stroke-linecap="round" stroke-linejoin="round"/>
<path d="M1014.66 371.71L1019.63 331.666" stroke="#A69B88" stroke-linecap="round" stroke-linejoin="round"/>
<path d="M1047.89 325.374L1055.1 331.54L1060.64 325.064" stroke="#A69B88" stroke-linecap="round" stroke-linejoin="round"/>
<path d="M1049.25 355.406L1056.47 361.572L1062 355.097" stroke="#A69B88" stroke-linecap="round" stroke-linejoin="round"/>
<path d="M1046.62 335.342L1055.67 343.075L1063.15 334.323" stroke="#A69B88" stroke-linecap="round" stroke-linejoin="round"/>
<path d="M1046.85 344.447L1055.9 352.18L1063.38 343.427" stroke="#A69B88" stroke-linecap="round" stroke-linejoin="round"/>
<path d="M1053.37 307.998C1077.6 334.888 1072 348.268 1057.18 371.705C1038.56 350.775 1035.11 337.43 1053.37 307.998Z" fill="white" stroke="#A69B88" stroke-linecap="round" stroke-linejoin="round"/>
<path d="M1057.22 373.34L1053.84 317.488" stroke="#A69B88" stroke-linecap="round" stroke-linejoin="round"/>
<path d="M1085.68 359.243L1082.97 364.921L1088.06 367.355" stroke="#A69B88" stroke-linecap="round" stroke-linejoin="round"/>
<path d="M1066.68 365.266L1063.97 370.943L1069.07 373.378" stroke="#A69B88" stroke-linecap="round" stroke-linejoin="round"/>
<path d="M1079.08 360.137L1075.68 367.258L1082.57 370.548" stroke="#A69B88" stroke-linecap="round" stroke-linejoin="round"/>
<path d="M1073.29 361.85L1069.89 368.971L1076.77 372.261" stroke="#A69B88" stroke-linecap="round" stroke-linejoin="round"/>
<path d="M1097.75 359.774C1084.68 379.901 1075.16 378.606 1057.61 373.135C1067.82 357.622 1075.77 353.123 1097.75 359.774Z" fill="white" stroke="#A69B88" stroke-linecap="round" stroke-linejoin="round"/>
<path d="M1056.56 373.441L1091.75 361.703" stroke="#A69B88" stroke-linecap="round" stroke-linejoin="round"/>
<path d="M1031.01 390.467L1033.02 384.463L1027.63 382.658" stroke="#A69B88" stroke-linecap="round" stroke-linejoin="round"/>
<path d="M1049.24 382.115L1051.25 376.11L1045.86 374.306" stroke="#A69B88" stroke-linecap="round" stroke-linejoin="round"/>
<path d="M1037.49 388.762L1040.01 381.231L1032.73 378.792" stroke="#A69B88" stroke-linecap="round" stroke-linejoin="round"/>
<path d="M1043.06 386.338L1045.59 378.808L1038.3 376.368" stroke="#A69B88" stroke-linecap="round" stroke-linejoin="round"/>
<path d="M1018.89 391.42C1029.46 369.71 1039.14 369.832 1057.34 373.138C1049.05 389.888 1041.66 395.36 1018.89 391.42Z" fill="white" stroke="#A69B88" stroke-linecap="round" stroke-linejoin="round"/>
<path d="M1058.34 372.704L1024.64 388.756" stroke="#A69B88" stroke-linecap="round" stroke-linejoin="round"/>
<path d="M1087.28 412.252L1078.05 410.008L1076.04 418.285" stroke="#A69B88" stroke-linecap="round" stroke-linejoin="round"/>
<path d="M1072.49 386.072L1063.27 383.827L1061.26 392.104" stroke="#A69B88" stroke-linecap="round" stroke-linejoin="round"/>
<path d="M1083.9 402.785L1072.34 399.971L1069.62 411.158" stroke="#A69B88" stroke-linecap="round" stroke-linejoin="round"/>
<path d="M1079.58 394.761L1068.01 391.946L1065.29 403.133" stroke="#A69B88" stroke-linecap="round" stroke-linejoin="round"/>
<path d="M1090.22 430.231C1056.46 417.178 1055.42 402.709 1058.06 375.107C1084.12 385.376 1093.23 395.725 1090.22 430.231Z" fill="white" stroke="#A69B88" stroke-linecap="round" stroke-linejoin="round"/>
<path d="M1057.29 373.663L1085.52 421.972" stroke="#A69B88" stroke-linecap="round" stroke-linejoin="round"/>
<path d="M1063.72 373.677L1055.96 379.144L1060.87 386.107" stroke="#A69B88" stroke-linecap="round" stroke-linejoin="round"/>
<path d="M1034.29 367.584L1026.53 373.051L1031.43 380.014" stroke="#A69B88" stroke-linecap="round" stroke-linejoin="round"/>
<path d="M1054.38 369.989L1044.65 376.845L1051.28 386.257" stroke="#A69B88" stroke-linecap="round" stroke-linejoin="round"/>
<path d="M1045.5 367.963L1035.77 374.818L1042.4 384.23" stroke="#A69B88" stroke-linecap="round" stroke-linejoin="round"/>
<path d="M1079.21 383.292C1047.16 400.123 1035.58 391.384 1016.54 371.234C1041.42 358.367 1055.2 358.32 1079.21 383.292Z" fill="white" stroke="#A69B88" stroke-linecap="round" stroke-linejoin="round"/>
<path d="M1014.94 370.865L1069.89 381.398" stroke="#A69B88" stroke-linecap="round" stroke-linejoin="round"/>
<path d="M435.848 453.236C397.403 403.717 367.353 406.969 335.699 429.347C381.428 456.333 401.224 465.47 435.848 453.236Z" fill="white"/>
<path d="M354.607 429.347C431.571 433.574 460.504 452.236 461.042 544.051M435.848 453.236C397.403 403.717 367.353 406.969 335.699 429.347C381.428 456.333 401.224 465.47 435.848 453.236Z" stroke="#A69B88" stroke-width="2" stroke-linecap="round" stroke-linejoin="round"/>
<path d="M389.18 357.148C444.649 373.374 459.404 390.095 465.778 419.53C412.23 414.252 391.303 400.512 389.18 357.148Z" fill="white" stroke="#A69B88" stroke-width="2" stroke-linecap="round" stroke-linejoin="round"/>
<path d="M398.078 370.156C412.552 390.939 427.235 401.587 465.489 418.707" stroke="#A69B88" stroke-width="2" stroke-linecap="round" stroke-linejoin="round"/>
<path d="M491.943 452.464C501.663 410.152 519.917 377.716 569.847 391.34C536.457 440.095 519.35 453.549 492.093 452.47C492.043 452.469 491.993 452.466 491.943 452.464Z" fill="white"/>
<path d="M553.744 397.385C517.042 402.403 472.2 463.851 461.236 547.971M569.847 391.34C519.917 377.716 501.663 410.152 491.943 452.464C519.287 453.598 536.396 440.184 569.847 391.34Z" stroke="#A69B88" stroke-width="2" stroke-linecap="round" stroke-linejoin="round"/>
<path d="M500.914 387.662C489.985 359.47 498.472 315.271 524.634 293.172C545.558 333.316 545.245 353.739 500.914 387.662Z" fill="white"/>
<path d="M500.914 387.662C489.985 359.47 498.472 315.271 524.634 293.172C545.558 333.316 545.245 353.739 500.914 387.662ZM500.914 387.662C524.009 351.992 533.158 333.897 532.104 310.339M500.914 387.662C489.018 422.299 473.164 446.037 465.928 490.809" stroke="#A69B88" stroke-width="2" stroke-linecap="round" stroke-linejoin="round"/>
<path d="M447.032 293.713C479.815 278.876 501.9 283.233 545.604 305.753C515.25 333.89 494.396 334.19 447.032 293.713Z" fill="white"/>
<path d="M447.032 293.713C479.815 278.876 501.9 283.233 545.604 305.753C515.25 333.89 494.396 334.19 447.032 293.713ZM447.032 293.713C475.985 307.627 493.746 311.307 528.874 308.58" stroke="#A69B88" stroke-width="2" stroke-linecap="round" stroke-linejoin="round"/>
<path d="M447.059 294.566C424.386 266.623 402.686 260.634 353.525 261.209C368.073 299.956 386.587 309.56 447.059 294.566Z" fill="white"/>
<path d="M447.059 294.566C424.386 266.623 402.686 260.634 353.525 261.209C368.073 299.956 386.587 309.56 447.059 294.566ZM447.059 294.566C414.94 294.048 397.411 289.388 367.219 271.225" stroke="#A69B88" stroke-width="2" stroke-linecap="round" stroke-linejoin="round"/>
<path d="M416.246 235.258C421.628 274.329 428.684 286.624 446.521 296.063C452.428 260.549 448.503 245.441 416.246 235.258Z" fill="white"/>
<path d="M446.521 296.063C428.684 286.624 421.628 274.329 416.246 235.258C448.503 245.441 452.428 260.549 446.521 296.063ZM446.521 296.063C441.317 269.687 436.536 258.273 423.707 245.693" stroke="#A69B88" stroke-width="2" stroke-linecap="round" stroke-linejoin="round"/>
<path d="M460.265 548.353C471.562 447.805 473.456 392.03 446.387 296.652" stroke="#A69B88" stroke-width="2" stroke-linecap="round" stroke-linejoin="round"/>
<path d="M455.316 455.397C467.705 409.601 478.028 396.008 500.836 387.469C502.514 430.745 495.514 448.172 455.316 455.397Z" fill="white"/>
<path d="M500.836 387.469C478.028 396.008 467.705 409.601 455.316 455.397C495.514 448.172 502.514 430.745 500.836 387.469ZM500.836 387.469C490.591 418.145 483.127 431.034 465.842 444.086" stroke="#A69B88" stroke-width="2" stroke-linecap="round" stroke-linejoin="round"/>
<path d="M442.305 369.424C477.598 367.504 489.623 371.638 500.987 385.783C470.758 397.067 456.795 396.179 442.305 369.424Z" fill="white"/>
<path d="M500.987 385.783C489.623 371.638 477.598 367.504 442.305 369.424C456.795 396.179 470.758 397.067 500.987 385.783ZM500.987 385.783C476.892 385.691 466.031 383.417 452.764 374.232" stroke="#A69B88" stroke-width="2" stroke-linecap="round" stroke-linejoin="round"/>
<path d="M560.016 369.424C524.722 367.504 512.697 371.638 501.334 385.783C531.562 397.067 545.525 396.179 560.016 369.424Z" fill="white"/>
<path d="M501.334 385.783C512.697 371.638 524.722 367.504 560.016 369.424C545.525 396.179 531.562 397.067 501.334 385.783ZM501.334 385.783C525.429 385.691 536.289 383.417 549.556 374.232" stroke="#A69B88" stroke-width="2" stroke-linecap="round" stroke-linejoin="round"/>
<path d="M445.938 295.811C417.255 304.498 410.972 314.701 414.349 338.092C437.959 321.353 445.978 312.848 445.938 295.811Z" fill="white"/>
<path d="M445.938 295.811C417.255 304.498 410.972 314.701 414.349 338.092C437.959 321.353 445.978 312.848 445.938 295.811ZM445.938 295.811C429.859 306.849 424.229 314.471 417.988 329.68" stroke="#A69B88" stroke-width="2" stroke-linecap="round" stroke-linejoin="round"/>
<path d="M513.475 390.527C458.005 406.753 443.251 423.474 436.876 452.909C490.425 447.631 511.351 433.891 513.475 390.527Z" fill="white" stroke="#A69B88" stroke-width="2" stroke-linecap="round" stroke-linejoin="round"/>
<path d="M504.578 403.537C490.104 424.32 475.421 434.968 437.168 452.088" stroke="#A69B88" stroke-width="2" stroke-linecap="round" stroke-linejoin="round"/>
<path d="M411.807 401.386C413.013 434.434 420.214 444.968 435.646 452.639C440.243 422.195 435.561 408.657 411.807 401.386Z" fill="white" stroke="#A69B88" stroke-width="2" stroke-linecap="round" stroke-linejoin="round"/>
<path d="M417.773 408.149C427.268 419.098 431.111 428.739 435.232 452.363" stroke="#A69B88" stroke-width="2" stroke-linecap="round" stroke-linejoin="round"/>
<path d="M411.807 503.673C413.013 470.625 420.214 460.091 435.646 452.419C440.243 482.864 435.561 496.402 411.807 503.673Z" fill="white" stroke="#A69B88" stroke-width="2" stroke-linecap="round" stroke-linejoin="round"/>
<path d="M417.773 496.908C427.268 485.959 431.111 476.319 435.232 452.694" stroke="#A69B88" stroke-width="2" stroke-linecap="round" stroke-linejoin="round"/>
<path d="M752.985 398.162L744.111 395.022L746.929 387.058" stroke="#A69B88" stroke-linecap="round" stroke-linejoin="round"/>
<path d="M726.512 411.876L717.639 408.737L720.456 400.773" stroke="#A69B88" stroke-linecap="round" stroke-linejoin="round"/>
<path d="M745.05 404.191L733.922 400.254L737.73 389.489" stroke="#A69B88" stroke-linecap="round" stroke-linejoin="round"/>
<path d="M737.114 408.508L725.986 404.571L729.794 393.807" stroke="#A69B88" stroke-linecap="round" stroke-linejoin="round"/>
<path d="M765.184 384.83C730.075 377.354 721.363 388.801 708.58 413.147C735.789 418.761 748.963 415.109 765.184 384.83Z" fill="white" stroke="#A69B88" stroke-linecap="round" stroke-linejoin="round"/>
<path d="M707.16 413.927L756.804 389.135" stroke="#A69B88" stroke-linecap="round" stroke-linejoin="round"/>
<path d="M705.147 382.495L701.615 387.64L696.998 384.47" stroke="#A69B88" stroke-linecap="round" stroke-linejoin="round"/>
<path d="M709.397 401.797L705.865 406.941L701.248 403.772" stroke="#A69B88" stroke-linecap="round" stroke-linejoin="round"/>
<path d="M707.653 388.606L703.225 395.058L696.984 390.774" stroke="#A69B88" stroke-linecap="round" stroke-linejoin="round"/>
<path d="M709.056 394.431L704.627 400.883L698.386 396.599" stroke="#A69B88" stroke-linecap="round" stroke-linejoin="round"/>
<path d="M698.708 372.39C687.902 393.594 693.74 401.135 707.141 413.495C715.4 397.032 715.319 387.969 698.708 372.39Z" fill="white" stroke="#A69B88" stroke-linecap="round" stroke-linejoin="round"/>
<path d="M707.395 414.543L700.027 378.5" stroke="#A69B88" stroke-linecap="round" stroke-linejoin="round"/>
<path d="M658.832 407.409L665.332 414.216L659.222 420.05" stroke="#A69B88" stroke-linecap="round" stroke-linejoin="round"/>
<path d="M688.646 407.123L695.146 413.931L689.037 419.765" stroke="#A69B88" stroke-linecap="round" stroke-linejoin="round"/>
<path d="M668.629 405.612L676.781 414.148L668.523 422.034" stroke="#A69B88" stroke-linecap="round" stroke-linejoin="round"/>
<path d="M677.67 405.347L685.822 413.884L677.564 421.769" stroke="#A69B88" stroke-linecap="round" stroke-linejoin="round"/>
<path d="M641.927 413.792C669.879 436.314 682.821 430.033 705.219 414.081C683.475 396.788 670.072 394.098 641.927 413.792Z" fill="white" stroke="#A69B88" stroke-linecap="round" stroke-linejoin="round"/>
<path d="M706.838 414.027L651.348 413.734" stroke="#A69B88" stroke-linecap="round" stroke-linejoin="round"/>
<path d="M703.434 407.694C721.972 430.223 726.645 446.264 731.979 476.665" stroke="#A69B88" stroke-width="2" stroke-linecap="round"/>
<path d="M698.031 332.75C727.285 380.576 731.537 412.778 732.748 473.039" stroke="#A69B88" stroke-width="2" stroke-linecap="round"/>
<path d="M767.396 333.656C738.142 381.483 733.891 413.684 732.68 473.945" stroke="#A69B88" stroke-width="2" stroke-linecap="round"/>
<path d="M791.381 463.849C767.367 470.121 754.618 480.103 733.651 513.936" stroke="#A69B88" stroke-width="2" stroke-linecap="round"/>
<path d="M679.294 463.534C702.869 470.909 714.959 481.467 733.723 516.22" stroke="#A69B88" stroke-width="2" stroke-linecap="round"/>
<path d="M733.999 557.522C734.593 531.164 734.063 516.335 732.663 491.052C731.65 444.052 738.101 428.327 747.543 404.791" stroke="#A69B88" stroke-width="2" stroke-linecap="round"/>
<path d="M761.352 435.127L762.707 428.81L768.377 430.026" stroke="#A69B88" stroke-linecap="round" stroke-linejoin="round"/>
<path d="M749.676 418.316L751.031 411.998L756.702 413.214" stroke="#A69B88" stroke-linecap="round" stroke-linejoin="round"/>
<path d="M756.548 430.255L758.248 422.332L765.912 423.976" stroke="#A69B88" stroke-linecap="round" stroke-linejoin="round"/>
<path d="M752.908 425.233L754.607 417.311L762.271 418.955" stroke="#A69B88" stroke-linecap="round" stroke-linejoin="round"/>
<path d="M771.5 442.264C773.497 417.703 764.936 412.78 747.234 406.223C745.81 425.241 749.457 433.888 771.5 442.264Z" fill="white" stroke="#A69B88" stroke-linecap="round" stroke-linejoin="round"/>
<path d="M746.581 405.319L767.834 436.932" stroke="#A69B88" stroke-linecap="round" stroke-linejoin="round"/>
<path d="M705.446 444.934L709.605 440.229L713.828 443.963" stroke="#A69B88" stroke-linecap="round" stroke-linejoin="round"/>
<path d="M703.574 425.132L707.734 420.428L711.957 424.161" stroke="#A69B88" stroke-linecap="round" stroke-linejoin="round"/>
<path d="M703.689 438.521L708.906 432.621L714.613 437.668" stroke="#A69B88" stroke-linecap="round" stroke-linejoin="round"/>
<path d="M703.01 432.53L708.227 426.631L713.933 431.677" stroke="#A69B88" stroke-linecap="round" stroke-linejoin="round"/>
<path d="M710.636 455.815C724.038 435.966 719.134 427.716 707.27 413.723C696.996 429.15 695.961 438.212 710.636 455.815Z" fill="white" stroke="#A69B88" stroke-linecap="round" stroke-linejoin="round"/>
<path d="M707.143 412.647L710.069 449.553" stroke="#A69B88" stroke-linecap="round" stroke-linejoin="round"/>
<path d="M820.836 506.38L821.578 496.997L830 497.663" stroke="#A69B88" stroke-linecap="round" stroke-linejoin="round"/>
<path d="M800.758 484.343L801.5 474.96L809.922 475.626" stroke="#A69B88" stroke-linecap="round" stroke-linejoin="round"/>
<path d="M812.964 500.268L813.895 488.501L825.277 489.401" stroke="#A69B88" stroke-linecap="round" stroke-linejoin="round"/>
<path d="M806.748 493.721L807.678 481.954L819.06 482.854" stroke="#A69B88" stroke-linecap="round" stroke-linejoin="round"/>
<path d="M836.87 514.726C835.028 478.876 821.72 473.415 794.898 467.352C796.5 495.087 803.429 506.872 836.87 514.726Z" fill="white" stroke="#A69B88" stroke-linecap="round" stroke-linejoin="round"/>
<path d="M793.776 466.179L830.545 507.739" stroke="#A69B88" stroke-linecap="round" stroke-linejoin="round"/>
<path d="M794.534 396.634L786.154 392.348L790.002 384.827" stroke="#A69B88" stroke-linecap="round" stroke-linejoin="round"/>
<path d="M766.477 406.723L758.098 402.437L761.945 394.916" stroke="#A69B88" stroke-linecap="round" stroke-linejoin="round"/>
<path d="M785.872 401.561L775.363 396.186L780.563 386.02" stroke="#A69B88" stroke-linecap="round" stroke-linejoin="round"/>
<path d="M777.432 404.79L766.924 399.414L772.124 389.249" stroke="#A69B88" stroke-linecap="round" stroke-linejoin="round"/>
<path d="M808.399 385.038C774.589 372.978 764.438 383.171 748.543 405.609C774.769 414.777 788.31 412.902 808.399 385.038Z" fill="white" stroke="#A69B88" stroke-linecap="round" stroke-linejoin="round"/>
<path d="M747.029 406.193L799.519 388.195" stroke="#A69B88" stroke-linecap="round" stroke-linejoin="round"/>
<path d="M819.616 447.998L813.383 447.315L813.996 441.721" stroke="#A69B88" stroke-linecap="round" stroke-linejoin="round"/>
<path d="M804.542 460.927L798.309 460.244L798.921 454.65" stroke="#A69B88" stroke-linecap="round" stroke-linejoin="round"/>
<path d="M815.393 453.113L807.576 452.257L808.404 444.695" stroke="#A69B88" stroke-linecap="round" stroke-linejoin="round"/>
<path d="M810.905 457.124L803.088 456.268L803.916 448.706" stroke="#A69B88" stroke-linecap="round" stroke-linejoin="round"/>
<path d="M825.5 437.49C801.591 437.995 797.687 446.747 793.109 464.484C811.61 463.976 819.597 459.6 825.5 437.49Z" fill="white" stroke="#A69B88" stroke-linecap="round" stroke-linejoin="round"/>
<path d="M792.306 465.206L820.72 441.559" stroke="#A69B88" stroke-linecap="round" stroke-linejoin="round"/>
<path d="M760.778 478.748L767.592 480.524L765.997 486.64" stroke="#A69B88" stroke-linecap="round" stroke-linejoin="round"/>
<path d="M779.633 466.841L786.447 468.617L784.853 474.733" stroke="#A69B88" stroke-linecap="round" stroke-linejoin="round"/>
<path d="M766.302 473.75L774.848 475.978L772.693 484.243" stroke="#A69B88" stroke-linecap="round" stroke-linejoin="round"/>
<path d="M771.943 470.028L780.488 472.256L778.333 480.522" stroke="#A69B88" stroke-linecap="round" stroke-linejoin="round"/>
<path d="M752.52 489.459C779.167 492.803 784.934 483.716 792.916 464.756C772.277 462.3 762.689 465.858 752.52 489.459Z" fill="white" stroke="#A69B88" stroke-linecap="round" stroke-linejoin="round"/>
<path d="M793.927 464.084L758.495 485.718" stroke="#A69B88" stroke-linecap="round" stroke-linejoin="round"/>
<path d="M771.727 422.25L769.748 431.452L761.489 429.676" stroke="#A69B88" stroke-linecap="round" stroke-linejoin="round"/>
<path d="M788.714 446.754L786.734 455.956L778.475 454.18" stroke="#A69B88" stroke-linecap="round" stroke-linejoin="round"/>
<path d="M778.721 429.348L776.238 440.888L765.075 438.487" stroke="#A69B88" stroke-linecap="round" stroke-linejoin="round"/>
<path d="M784.012 436.671L781.529 448.211L770.366 445.81" stroke="#A69B88" stroke-linecap="round" stroke-linejoin="round"/>
<path d="M756.946 411.851C754.018 447.628 766.485 454.805 792.266 464.372C794.355 436.669 789.05 424.07 756.946 411.851Z" fill="white" stroke="#A69B88" stroke-linecap="round" stroke-linejoin="round"/>
<path d="M793.218 465.683L762.284 419.615" stroke="#A69B88" stroke-linecap="round" stroke-linejoin="round"/>
<path d="M748.066 371.627L743.799 376.906L739.061 373.077" stroke="#A69B88" stroke-linecap="round" stroke-linejoin="round"/>
<path d="M751.032 392.925L746.766 398.204L742.028 394.374" stroke="#A69B88" stroke-linecap="round" stroke-linejoin="round"/>
<path d="M750.265 378.473L744.914 385.094L738.51 379.918" stroke="#A69B88" stroke-linecap="round" stroke-linejoin="round"/>
<path d="M751.288 384.908L745.938 391.528L739.534 386.352" stroke="#A69B88" stroke-linecap="round" stroke-linejoin="round"/>
<path d="M741.939 360.131C728.418 382.206 734.108 390.88 747.59 405.423C757.945 388.272 758.628 378.437 741.939 360.131Z" fill="white" stroke="#A69B88" stroke-linecap="round" stroke-linejoin="round"/>
<path d="M747.779 406.578L742.852 366.865" stroke="#A69B88" stroke-linecap="round" stroke-linejoin="round"/>
<path d="M698.357 408.526L706.051 413.947L701.185 420.853" stroke="#A69B88" stroke-linecap="round" stroke-linejoin="round"/>
<path d="M727.55 402.483L735.244 407.904L730.378 414.81" stroke="#A69B88" stroke-linecap="round" stroke-linejoin="round"/>
<path d="M707.628 404.869L717.277 411.668L710.701 421.002" stroke="#A69B88" stroke-linecap="round" stroke-linejoin="round"/>
<path d="M716.431 402.859L726.08 409.658L719.503 418.992" stroke="#A69B88" stroke-linecap="round" stroke-linejoin="round"/>
<path d="M683.006 418.063C714.786 434.754 726.269 426.088 745.158 406.104C720.48 393.344 706.81 393.297 683.006 418.063Z" fill="white" stroke="#A69B88" stroke-linecap="round" stroke-linejoin="round"/>
<path d="M746.739 405.738L692.241 416.184" stroke="#A69B88" stroke-linecap="round" stroke-linejoin="round"/>
<path d="M778.868 357.546L779.924 352.624L784.342 353.572" stroke="#A69B88" stroke-linecap="round" stroke-linejoin="round"/>
<path d="M769.772 344.447L770.828 339.525L775.246 340.473" stroke="#A69B88" stroke-linecap="round" stroke-linejoin="round"/>
<path d="M775.121 353.751L776.445 347.578L782.416 348.859" stroke="#A69B88" stroke-linecap="round" stroke-linejoin="round"/>
<path d="M772.287 349.837L773.611 343.664L779.582 344.945" stroke="#A69B88" stroke-linecap="round" stroke-linejoin="round"/>
<path d="M786.776 363.106C788.332 343.97 781.662 340.135 767.871 335.026C766.761 349.844 769.602 356.58 786.776 363.106Z" fill="white" stroke="#A69B88" stroke-linecap="round" stroke-linejoin="round"/>
<path d="M767.358 334.32L783.916 358.95" stroke="#A69B88" stroke-linecap="round" stroke-linejoin="round"/>
<path d="M632.442 419.911L644.529 420.51L645.067 409.661" stroke="#A69B88" stroke-linecap="round" stroke-linejoin="round"/>
<path d="M657.231 449.149L669.318 449.748L669.856 438.899" stroke="#A69B88" stroke-linecap="round" stroke-linejoin="round"/>
<path d="M638.937 430.963L654.096 431.714L654.822 417.05" stroke="#A69B88" stroke-linecap="round" stroke-linejoin="round"/>
<path d="M646.263 439.966L661.422 440.717L662.148 426.053" stroke="#A69B88" stroke-linecap="round" stroke-linejoin="round"/>
<path d="M624.438 398.097C669.851 406.347 674.624 424.218 677.941 459.419C642.836 452.81 628.949 442.035 624.438 398.097Z" fill="white" stroke="#A69B88" stroke-linecap="round" stroke-linejoin="round"/>
<path d="M679.251 461.041L632.306 407.311" stroke="#A69B88" stroke-linecap="round" stroke-linejoin="round"/>
<path d="M706.691 431.079L706.535 439.14L713.77 439.279" stroke="#A69B88" stroke-linecap="round" stroke-linejoin="round"/>
<path d="M687.72 448.174L687.564 456.235L694.799 456.375" stroke="#A69B88" stroke-linecap="round" stroke-linejoin="round"/>
<path d="M699.47 435.623L699.275 445.732L709.054 445.921" stroke="#A69B88" stroke-linecap="round" stroke-linejoin="round"/>
<path d="M693.617 440.691L693.422 450.8L703.201 450.988" stroke="#A69B88" stroke-linecap="round" stroke-linejoin="round"/>
<path d="M721.055 425.303C716.475 455.708 704.672 459.246 681.299 462.164C684.993 438.655 691.888 429.191 721.055 425.303Z" fill="white" stroke="#A69B88" stroke-linecap="round" stroke-linejoin="round"/>
<path d="M680.248 463.071L715.081 430.729" stroke="#A69B88" stroke-linecap="round" stroke-linejoin="round"/>
<path d="M657.796 501.058L656.652 492.076L648.591 493.103" stroke="#A69B88" stroke-linecap="round" stroke-linejoin="round"/>
<path d="M676.085 478.963L674.941 469.981L666.88 471.008" stroke="#A69B88" stroke-linecap="round" stroke-linejoin="round"/>
<path d="M665.075 494.826L663.641 483.562L652.745 484.95" stroke="#A69B88" stroke-linecap="round" stroke-linejoin="round"/>
<path d="M670.753 488.246L669.318 476.982L658.423 478.37" stroke="#A69B88" stroke-linecap="round" stroke-linejoin="round"/>
<path d="M642.779 509.816C642.902 475.286 655.439 469.427 680.932 462.369C680.666 489.093 674.55 500.734 642.779 509.816Z" fill="white" stroke="#A69B88" stroke-linecap="round" stroke-linejoin="round"/>
<path d="M681.952 461.192L648.531 502.813" stroke="#A69B88" stroke-linecap="round" stroke-linejoin="round"/>
<path d="M731.64 496.392L719.58 497.401L720.486 508.226" stroke="#A69B88" stroke-linecap="round" stroke-linejoin="round"/>
<path d="M703.191 470.697L691.131 471.706L692.037 482.531" stroke="#A69B88" stroke-linecap="round" stroke-linejoin="round"/>
<path d="M723.742 486.304L708.617 487.569L709.842 502.2" stroke="#A69B88" stroke-linecap="round" stroke-linejoin="round"/>
<path d="M715.275 478.352L700.15 479.618L701.375 494.249" stroke="#A69B88" stroke-linecap="round" stroke-linejoin="round"/>
<path d="M742.473 516.951C696.367 514.796 689.266 497.716 681.311 463.266C716.982 465.161 732.176 474 742.473 516.951Z" fill="white" stroke="#A69B88" stroke-linecap="round" stroke-linejoin="round"/>
<path d="M679.79 461.839L733.446 508.87" stroke="#A69B88" stroke-linecap="round" stroke-linejoin="round"/>
<path d="M781.263 492.635L772.99 496.88L776.8 504.305" stroke="#A69B88" stroke-linecap="round" stroke-linejoin="round"/>
<path d="M753.535 482.706L745.262 486.951L749.072 494.376" stroke="#A69B88" stroke-linecap="round" stroke-linejoin="round"/>
<path d="M772.693 487.778L762.318 493.102L767.468 503.137" stroke="#A69B88" stroke-linecap="round" stroke-linejoin="round"/>
<path d="M764.359 484.6L753.984 489.924L759.134 499.96" stroke="#A69B88" stroke-linecap="round" stroke-linejoin="round"/>
<path d="M794.972 504.076C761.586 516.032 751.545 505.975 735.814 483.827C761.712 474.738 775.092 476.573 794.972 504.076Z" fill="white" stroke="#A69B88" stroke-linecap="round" stroke-linejoin="round"/>
<path d="M734.317 483.249L786.195 500.966" stroke="#A69B88" stroke-linecap="round" stroke-linejoin="round"/>
<path d="M727.56 513.725L724.566 508.302L719.699 510.988" stroke="#A69B88" stroke-linecap="round" stroke-linejoin="round"/>
<path d="M733.618 495.064L730.625 489.641L725.757 492.327" stroke="#A69B88" stroke-linecap="round" stroke-linejoin="round"/>
<path d="M730.619 507.928L726.865 501.127L720.286 504.758" stroke="#A69B88" stroke-linecap="round" stroke-linejoin="round"/>
<path d="M732.568 502.309L728.814 495.508L722.235 499.139" stroke="#A69B88" stroke-linecap="round" stroke-linejoin="round"/>
<path d="M720.221 523.088C711.588 501.098 718.083 494.209 732.514 483.289C739.087 500.351 738.134 509.297 720.221 523.088Z" fill="white" stroke="#A69B88" stroke-linecap="round" stroke-linejoin="round"/>
<path d="M732.864 482.28L722.111 517.181" stroke="#A69B88" stroke-linecap="round" stroke-linejoin="round"/>
<path d="M733.218 448.382L737.43 453.919L742.399 450.139" stroke="#A69B88" stroke-linecap="round" stroke-linejoin="round"/>
<path d="M729.537 470.109L733.748 475.646L738.718 471.866" stroke="#A69B88" stroke-linecap="round" stroke-linejoin="round"/>
<path d="M730.766 455.326L736.047 462.27L742.764 457.161" stroke="#A69B88" stroke-linecap="round" stroke-linejoin="round"/>
<path d="M729.519 461.885L734.801 468.829L741.518 463.72" stroke="#A69B88" stroke-linecap="round" stroke-linejoin="round"/>
<path d="M739.846 436.784C753.03 459.807 746.938 468.521 732.688 483.011C722.598 465.128 722.196 455.032 739.846 436.784Z" fill="white" stroke="#A69B88" stroke-linecap="round" stroke-linejoin="round"/>
<path d="M732.458 484.189L738.706 443.656" stroke="#A69B88" stroke-linecap="round" stroke-linejoin="round"/>
<path d="M685.873 479.853L693.51 474.549L688.749 467.694" stroke="#A69B88" stroke-linecap="round" stroke-linejoin="round"/>
<path d="M714.672 486.021L722.309 480.717L717.548 473.862" stroke="#A69B88" stroke-linecap="round" stroke-linejoin="round"/>
<path d="M695.003 483.531L704.58 476.879L698.145 467.614" stroke="#A69B88" stroke-linecap="round" stroke-linejoin="round"/>
<path d="M703.692 485.57L713.27 478.918L706.834 469.654" stroke="#A69B88" stroke-linecap="round" stroke-linejoin="round"/>
<path d="M670.766 470.334C702.272 454.056 713.558 462.693 732.086 482.56C707.622 495.002 694.118 494.957 670.766 470.334Z" fill="white" stroke="#A69B88" stroke-linecap="round" stroke-linejoin="round"/>
<path d="M733.647 482.927L679.879 472.246" stroke="#A69B88" stroke-linecap="round" stroke-linejoin="round"/>
<path d="M803.786 326.371L797.258 323.031L800.255 317.172" stroke="#A69B88" stroke-linecap="round" stroke-linejoin="round"/>
<path d="M781.929 334.23L775.4 330.891L778.398 325.031" stroke="#A69B88" stroke-linecap="round" stroke-linejoin="round"/>
<path d="M797.037 330.209L788.85 326.021L792.901 318.101" stroke="#A69B88" stroke-linecap="round" stroke-linejoin="round"/>
<path d="M790.466 332.726L782.279 328.538L786.331 320.618" stroke="#A69B88" stroke-linecap="round" stroke-linejoin="round"/>
<path d="M814.588 317.338C788.247 307.941 780.339 315.883 767.955 333.364C788.387 340.506 798.937 339.046 814.588 317.338Z" fill="white" stroke="#A69B88" stroke-linecap="round" stroke-linejoin="round"/>
<path d="M766.774 333.819L807.669 319.796" stroke="#A69B88" stroke-linecap="round" stroke-linejoin="round"/>
<path d="M767.33 307.48L764.006 311.593L760.315 308.609" stroke="#A69B88" stroke-linecap="round" stroke-linejoin="round"/>
<path d="M769.641 324.072L766.316 328.185L762.625 325.201" stroke="#A69B88" stroke-linecap="round" stroke-linejoin="round"/>
<path d="M769.04 312.813L764.871 317.971L759.882 313.938" stroke="#A69B88" stroke-linecap="round" stroke-linejoin="round"/>
<path d="M769.839 317.823L765.67 322.98L760.681 318.948" stroke="#A69B88" stroke-linecap="round" stroke-linejoin="round"/>
<path d="M762.557 298.522C752.022 315.721 756.456 322.479 766.959 333.809C775.027 320.446 775.559 312.784 762.557 298.522Z" fill="white" stroke="#A69B88" stroke-linecap="round" stroke-linejoin="round"/>
<path d="M767.102 334.708L763.264 303.769" stroke="#A69B88" stroke-linecap="round" stroke-linejoin="round"/>
<path d="M729.195 336.227L735.189 340.45L731.399 345.83" stroke="#A69B88" stroke-linecap="round" stroke-linejoin="round"/>
<path d="M751.937 331.52L757.932 335.744L754.141 341.124" stroke="#A69B88" stroke-linecap="round" stroke-linejoin="round"/>
<path d="M736.414 333.377L743.932 338.674L738.808 345.946" stroke="#A69B88" stroke-linecap="round" stroke-linejoin="round"/>
<path d="M743.273 331.812L750.791 337.109L745.667 344.381" stroke="#A69B88" stroke-linecap="round" stroke-linejoin="round"/>
<path d="M717.232 343.656C741.992 356.66 750.938 349.909 765.654 334.34C746.428 324.398 735.778 324.362 717.232 343.656Z" fill="white" stroke="#A69B88" stroke-linecap="round" stroke-linejoin="round"/>
<path d="M766.887 334.055L724.428 342.193" stroke="#A69B88" stroke-linecap="round" stroke-linejoin="round"/>
<path d="M692.11 358.236L689.816 353.755L685.795 355.814" stroke="#A69B88" stroke-linecap="round" stroke-linejoin="round"/>
<path d="M697.505 343.231L695.211 338.75L691.189 340.809" stroke="#A69B88" stroke-linecap="round" stroke-linejoin="round"/>
<path d="M694.744 353.6L691.867 347.98L686.431 350.763" stroke="#A69B88" stroke-linecap="round" stroke-linejoin="round"/>
<path d="M696.47 349.087L693.594 343.468L688.158 346.25" stroke="#A69B88" stroke-linecap="round" stroke-linejoin="round"/>
<path d="M685.917 365.653C679.461 347.572 684.912 342.141 696.91 333.637C701.817 347.662 700.816 354.904 685.917 365.653Z" fill="white" stroke="#A69B88" stroke-linecap="round" stroke-linejoin="round"/>
<path d="M697.215 332.826L687.596 360.902" stroke="#A69B88" stroke-linecap="round" stroke-linejoin="round"/>
<path d="M658.498 334.964L663.939 330.049L659.528 325.165" stroke="#A69B88" stroke-linecap="round" stroke-linejoin="round"/>
<path d="M681.65 336.901L687.092 331.985L682.68 327.101" stroke="#A69B88" stroke-linecap="round" stroke-linejoin="round"/>
<path d="M666.016 336.925L672.84 330.761L666.877 324.16" stroke="#A69B88" stroke-linecap="round" stroke-linejoin="round"/>
<path d="M673.018 337.655L679.842 331.49L673.879 324.889" stroke="#A69B88" stroke-linecap="round" stroke-linejoin="round"/>
<path d="M645.732 329.033C668.743 313.14 678.438 318.763 694.924 332.444C677.036 344.631 666.468 345.951 645.732 329.033Z" fill="white" stroke="#A69B88" stroke-linecap="round" stroke-linejoin="round"/>
<path d="M696.182 332.58L653.052 329.619" stroke="#A69B88" stroke-linecap="round" stroke-linejoin="round"/>
<path d="M690.297 306.888L694.572 310L697.366 306.163" stroke="#A69B88" stroke-linecap="round" stroke-linejoin="round"/>
<path d="M692.359 323.511L696.635 326.623L699.428 322.786" stroke="#A69B88" stroke-linecap="round" stroke-linejoin="round"/>
<path d="M690.019 312.481L695.381 316.384L699.156 311.197" stroke="#A69B88" stroke-linecap="round" stroke-linejoin="round"/>
<path d="M690.55 317.53L695.912 321.433L699.688 316.246" stroke="#A69B88" stroke-linecap="round" stroke-linejoin="round"/>
<path d="M692.592 296.999C707.219 310.885 704.686 318.56 697.473 332.223C686.221 321.404 683.724 314.141 692.592 296.999Z" fill="white" stroke="#A69B88" stroke-linecap="round" stroke-linejoin="round"/>
<path d="M697.561 333.129L693.261 302.25" stroke="#A69B88" stroke-linecap="round" stroke-linejoin="round"/>
<path d="M734.576 324.788L729.879 330.419L734.933 334.635" stroke="#A69B88" stroke-linecap="round" stroke-linejoin="round"/>
<path d="M711.388 326.128L706.691 331.759L711.746 335.975" stroke="#A69B88" stroke-linecap="round" stroke-linejoin="round"/>
<path d="M726.863 323.904L720.973 330.966L727.804 336.664" stroke="#A69B88" stroke-linecap="round" stroke-linejoin="round"/>
<path d="M719.832 324.168L713.941 331.23L720.773 336.928" stroke="#A69B88" stroke-linecap="round" stroke-linejoin="round"/>
<path d="M748.054 328.867C727.504 347.836 717.116 343.63 698.871 332.4C714.869 317.821 725.147 315.03 748.054 328.867Z" fill="white" stroke="#A69B88" stroke-linecap="round" stroke-linejoin="round"/>
<path d="M697.605 332.444L740.724 329.316" stroke="#A69B88" stroke-linecap="round" stroke-linejoin="round"/>
<path d="M202.123 555.174V157.004" stroke="#A69B88" stroke-width="2" stroke-linecap="round" stroke-linejoin="round"/>
<path d="M294.785 325.255C238.506 376.588 214.396 413.244 202.811 511.87" stroke="#A69B88" stroke-width="2" stroke-linecap="round" stroke-linejoin="round"/>
<path d="M203.471 166.163C205.005 167.08 211.562 159.006 218.116 148.129C224.67 137.252 228.739 127.691 227.204 126.775C225.67 125.858 219.113 133.933 212.559 144.81C206.005 155.686 201.936 165.247 203.471 166.163Z" fill="#FCF9F6"/>
<path d="M294.823 325.133C295.876 326.573 305.078 321.685 315.374 314.215C325.671 306.746 333.163 299.523 332.109 298.083C331.056 296.643 321.854 301.531 311.558 309C301.261 316.47 293.769 323.693 294.823 325.133Z" fill="#FCF9F6"/>
<path d="M201 155.93C203.143 155.459 202.388 143.841 199.313 129.979C196.238 116.118 192.009 105.264 189.866 105.735C187.723 106.206 188.479 117.825 191.553 131.686C194.628 145.547 198.858 156.401 201 155.93Z" fill="#FCF9F6"/>
<path d="M294.136 324.444C296.255 325.009 300.961 314.35 304.645 300.637C308.329 286.924 309.597 275.349 307.477 274.785C305.357 274.22 300.652 284.879 296.968 298.592C293.284 312.305 292.016 323.88 294.136 324.444Z" fill="#FCF9F6"/>
<path d="M199.965 181.288C201.662 179.904 196.565 170.911 188.579 161.202C180.593 151.494 172.742 144.745 171.045 146.129C169.347 147.514 174.445 156.506 182.431 166.215C190.417 175.924 198.267 182.672 199.965 181.288Z" fill="#FCF9F6"/>
<path d="M199.91 269.613C201.608 268.229 196.51 259.236 188.524 249.528C180.538 239.819 172.688 233.07 170.99 234.455C169.292 235.839 174.39 244.832 182.376 254.54C190.362 264.249 198.212 270.998 199.91 269.613Z" fill="#FCF9F6"/>
<path d="M330.65 324.639C330.146 322.512 319.793 323.124 307.525 326.005C295.257 328.886 285.721 332.945 286.225 335.072C286.728 337.198 297.082 336.586 309.35 333.705C321.617 330.825 331.154 326.765 330.65 324.639Z" fill="#FCF9F6"/>
<path d="M267.939 402.843C267.187 400.791 256.978 402.613 245.137 406.914C233.296 411.215 224.306 416.365 225.058 418.417C225.81 420.47 236.019 418.647 247.86 414.347C259.701 410.046 268.691 404.896 267.939 402.843Z" fill="#FCF9F6"/>
<path d="M280.551 384.693C280.047 382.566 269.693 383.178 257.426 386.059C245.158 388.94 235.621 392.999 236.125 395.125C236.629 397.252 246.982 396.64 259.25 393.759C271.518 390.878 281.054 386.819 280.551 384.693Z" fill="#FCF9F6"/>
<path d="M295.527 360.785C294.822 358.716 283.722 360.596 270.734 364.983C257.747 369.37 247.79 374.604 248.495 376.673C249.2 378.742 260.3 376.862 273.288 372.475C286.275 368.088 296.232 362.854 295.527 360.785Z" fill="#FCF9F6"/>
<path d="M308.129 341.348C307.394 339.29 297.171 341.03 285.295 345.235C273.419 349.44 264.388 354.518 265.124 356.577C265.859 358.635 276.082 356.895 287.958 352.689C299.834 348.484 308.865 343.406 308.129 341.348Z" fill="#FCF9F6"/>
<path d="M259.733 426.756C258.997 424.698 248.774 426.438 236.898 430.643C225.023 434.849 215.992 439.926 216.727 441.985C217.462 444.043 227.686 442.303 239.561 438.098C251.437 433.892 260.468 428.815 259.733 426.756Z" fill="#FCF9F6"/>
<path d="M200.115 310.983C201.279 309.79 195.451 302.276 187.097 294.202C178.743 286.127 171.028 280.549 169.864 281.743C168.7 282.937 174.528 290.45 182.881 298.525C191.235 306.599 198.951 312.177 200.115 310.983Z" fill="#FCF9F6"/>
<path d="M271.149 346.581C272.82 346.532 273.893 337.099 273.547 325.512C273.201 313.926 271.566 304.573 269.896 304.622C268.225 304.672 267.152 314.105 267.498 325.691C267.844 337.278 269.479 346.631 271.149 346.581Z" fill="#FCF9F6"/>
<path d="M203.398 196.514C204.893 197.494 211.786 189.703 218.795 179.111C225.804 168.519 230.274 159.138 228.78 158.158C227.286 157.177 220.392 164.969 213.383 175.561C206.374 186.153 201.904 195.534 203.398 196.514Z" fill="#FCF9F6"/>
<path d="M283.49 334.438C285.272 334.277 285.783 323.906 284.631 311.274C283.48 298.642 281.101 288.533 279.319 288.694C277.537 288.855 277.025 299.226 278.177 311.858C279.329 324.49 281.707 334.599 283.49 334.438Z" fill="#FCF9F6"/>
<path d="M204.04 333.199C204.709 334.852 214.831 332.35 226.648 327.61C238.465 322.871 247.502 317.689 246.834 316.036C246.165 314.384 236.043 316.886 224.226 321.625C212.409 326.365 203.372 331.547 204.04 333.199Z" fill="#FCF9F6"/>
<path d="M204.171 278.294C205.335 279.647 214.123 274.057 223.8 265.807C233.478 257.557 240.379 249.773 239.215 248.419C238.051 247.066 229.263 252.656 219.585 260.906C209.908 269.156 203.007 276.94 204.171 278.294Z" fill="#FCF9F6"/>
<path d="M204.045 391.826C205.209 393.179 212.034 389.262 219.289 383.077C226.544 376.892 231.482 370.781 230.318 369.428C229.154 368.075 222.329 371.991 215.074 378.176C207.819 384.361 202.881 390.472 204.045 391.826Z" fill="#FCF9F6"/>
<path d="M204.231 414.611C205.224 415.765 210.803 412.632 216.693 407.611C222.582 402.591 226.551 397.584 225.558 396.43C224.565 395.275 218.986 398.409 213.096 403.429C207.207 408.45 203.238 413.456 204.231 414.611Z" fill="#FCF9F6"/>
<path d="M204.113 432.18C204.833 433.017 209.057 430.593 213.548 426.765C218.038 422.937 221.095 419.154 220.374 418.317C219.654 417.48 215.43 419.904 210.94 423.732C206.449 427.56 203.393 431.342 204.113 432.18Z" fill="#FCF9F6"/>
<path d="M239.551 363.566C238.444 363.592 237.659 368.383 237.798 374.267C237.937 380.151 238.947 384.9 240.054 384.874C241.161 384.848 241.946 380.057 241.807 374.173C241.668 368.289 240.658 363.54 239.551 363.566Z" fill="#FCF9F6"/>
<path d="M230.59 383.085C229.483 383.111 228.676 386.938 228.786 391.634C228.897 396.329 229.885 400.114 230.992 400.088C232.099 400.062 232.906 396.235 232.795 391.54C232.684 386.845 231.697 383.059 230.59 383.085Z" fill="#FCF9F6"/>
<path d="M204.046 371.228C205.21 372.582 213.998 366.991 223.675 358.742C233.353 350.492 240.254 342.707 239.09 341.354C237.926 340 229.138 345.591 219.46 353.841C209.783 362.09 202.882 369.875 204.046 371.228Z" fill="#FCF9F6"/>
<path d="M204.127 348.519C204.578 350.244 214.938 349.049 227.267 345.851C239.595 342.653 249.223 338.662 248.772 336.938C248.321 335.214 237.961 336.409 225.633 339.607C213.304 342.805 203.676 346.795 204.127 348.519Z" fill="#FCF9F6"/>
<path d="M203.669 257.445C205.009 258.626 212.939 251.882 221.381 242.382C229.823 232.883 235.58 224.225 234.239 223.044C232.899 221.863 224.969 228.607 216.527 238.107C208.085 247.606 202.328 256.264 203.669 257.445Z" fill="#FCF9F6"/>
<path d="M202.957 216.988C204.208 218.262 212.606 212.104 221.713 203.235C230.82 194.366 237.189 186.143 235.938 184.87C234.686 183.596 226.289 189.753 217.181 198.623C208.074 207.492 201.705 215.715 202.957 216.988Z" fill="#FCF9F6"/>
<path d="M174.015 178.747C172.541 179.756 177.198 189.047 184.417 199.498C191.636 209.949 198.684 217.602 200.158 216.593C201.633 215.583 196.976 206.293 189.756 195.842C182.537 185.391 175.49 177.737 174.015 178.747Z" fill="#FCF9F6"/>
<path d="M173.202 326.857C171.855 328.029 176.739 335.788 184.11 344.186C191.482 352.585 198.55 358.443 199.898 357.27C201.246 356.098 196.362 348.339 188.99 339.941C181.618 331.542 174.55 325.684 173.202 326.857Z" fill="#FCF9F6"/>
<path d="M255.873 325.556C254.086 325.459 252.141 334.408 251.529 345.545C250.916 356.682 251.868 365.789 253.655 365.886C255.442 365.984 257.387 357.034 258 345.897C258.612 334.761 257.66 325.653 255.873 325.556Z" fill="#FCF9F6"/>
<path d="M176.588 418.464C175.241 419.637 179.367 426.532 185.803 433.865C192.24 441.198 198.55 446.193 199.898 445.02C201.246 443.848 197.12 436.953 190.683 429.619C184.246 422.286 177.936 417.292 176.588 418.464Z" fill="#FCF9F6"/>
<path d="M209.466 473.912C209.906 475.639 216.624 475.432 224.472 473.451C232.319 471.469 238.325 468.462 237.885 466.735C237.445 465.008 230.726 465.215 222.879 467.197C215.031 469.178 209.026 472.185 209.466 473.912Z" fill="#FCF9F6"/>
<path d="M173.202 346.336C171.855 347.509 176.739 355.267 184.11 363.666C191.482 372.064 198.55 377.922 199.898 376.75C201.246 375.577 196.362 367.819 188.99 359.42C181.618 351.022 174.55 345.164 173.202 346.336Z" fill="#FCF9F6"/>
<path d="M173.024 368.848C171.84 370.185 176.926 376.572 184.382 383.114C191.839 389.657 198.842 393.877 200.026 392.54C201.209 391.204 196.123 384.816 188.667 378.274C181.211 371.731 174.207 367.511 173.024 368.848Z" fill="#FCF9F6"/>
<path d="M178.746 439.16C177.37 440.716 181.022 446.16 186.905 451.322C192.787 456.483 198.672 459.407 200.049 457.852C201.425 456.297 197.772 450.852 191.89 445.69C186.007 440.529 180.123 437.605 178.746 439.16Z" fill="#FCF9F6"/>
<path d="M212.211 460.857C212.86 462.826 221.529 461.759 231.572 458.474C241.616 455.189 249.231 450.929 248.581 448.96C247.931 446.991 239.263 448.058 229.219 451.343C219.176 454.628 211.561 458.887 212.211 460.857Z" fill="#FCF9F6"/>
<path d="M182.461 466.825C181.085 468.38 183.906 473.096 188.762 477.357C193.619 481.618 198.672 483.812 200.049 482.257C201.425 480.702 198.604 475.987 193.747 471.725C188.891 467.464 183.838 465.27 182.461 466.825Z" fill="#FCF9F6"/>
<path d="M173.024 393.687C171.84 395.023 176.926 401.411 184.382 407.953C191.839 414.496 198.842 418.716 200.026 417.379C201.209 416.043 196.123 409.655 188.667 403.113C181.211 396.57 174.207 392.35 173.024 393.687Z" fill="#FCF9F6"/>
<path d="M165.423 259.415C164.245 260.756 171.063 268.613 180.652 276.964C190.241 285.315 198.97 290.998 200.148 289.657C201.326 288.316 194.508 280.459 184.919 272.108C175.33 263.757 166.601 258.074 165.423 259.415Z" fill="#FCF9F6"/>
<path d="M170.052 207.686C168.691 208.843 174.293 217.601 182.565 227.247C190.836 236.894 198.645 243.777 200.006 242.62C201.367 241.463 195.765 232.705 187.493 223.058C179.222 213.411 171.413 206.529 170.052 207.686Z" fill="#FCF9F6"/>
<path d="M204.205 301.858C205.456 303.132 213.854 296.975 222.961 288.105C232.068 279.236 238.437 271.014 237.186 269.74C235.934 268.466 227.537 274.624 218.429 283.493C209.322 292.362 202.953 300.585 204.205 301.858Z" fill="#FCF9F6"/>
<path d="M203.828 235.352C205.079 236.626 213.477 230.469 222.584 221.599C231.692 212.73 238.06 204.508 236.809 203.234C235.557 201.96 227.16 208.118 218.052 216.987C208.945 225.856 202.576 234.079 203.828 235.352Z" fill="#FCF9F6"/>
<path d="M207.25 484.494C207.569 485.658 214.292 484.846 222.265 482.681C230.239 480.517 236.445 477.818 236.126 476.654C235.807 475.49 229.085 476.302 221.111 478.467C213.137 480.632 206.932 483.33 207.25 484.494Z" fill="#FCF9F6"/>
<path d="M203.828 320.223C205.079 321.496 213.477 315.339 222.584 306.47C231.692 297.6 238.06 289.378 236.809 288.104C235.557 286.83 227.16 292.988 218.052 301.857C208.945 310.726 202.576 318.949 203.828 320.223Z" fill="#FCF9F6"/>
<path d="M50.3375 221.47C85.4957 366.519 134.473 447.787 202.629 467.97" stroke="#A69B88" stroke-width="2" stroke-linecap="round" stroke-linejoin="round"/>
<path d="M89.5852 340.663C91.2341 341.35 96.5731 332.414 101.51 320.704C106.447 308.994 109.113 298.945 107.464 298.258C105.815 297.571 100.476 306.507 95.539 318.217C90.6019 329.927 87.9363 339.976 89.5852 340.663Z" fill="#FCF9F6"/>
<path d="M50.6574 221.304C52.761 220.679 51.1935 209.14 47.1563 195.532C43.1192 181.923 38.1411 171.397 36.0374 172.021C33.9338 172.646 35.5013 184.185 39.5385 197.794C43.5757 211.402 48.5538 221.928 50.6574 221.304Z" fill="#FCF9F6"/>
<path d="M132.947 420.062C132.86 417.878 122.583 416.542 109.994 417.077C97.405 417.612 87.2708 419.816 87.3586 422C87.4464 424.184 97.723 425.52 110.312 424.985C122.901 424.45 133.035 422.246 132.947 420.062Z" fill="#FCF9F6"/>
<path d="M102.375 278.877C100.438 277.858 94.0787 286.033 88.1717 297.137C82.2647 308.242 79.0467 318.07 80.9841 319.09C82.9216 320.11 89.2808 311.935 95.1878 300.83C101.095 289.726 104.313 279.897 102.375 278.877Z" fill="#FCF9F6"/>
<path d="M57.7285 245.283C59.4542 245.747 63.5709 236.193 66.9233 223.943C70.2758 211.692 71.5945 201.384 69.8688 200.92C68.1431 200.455 64.0264 210.009 60.674 222.26C57.3215 234.51 56.0028 244.818 57.7285 245.283Z" fill="#FCF9F6"/>
<path d="M66.6 276.501C68.3437 276.895 72.0619 267.18 74.9049 254.804C77.7479 242.427 78.6391 232.075 76.8954 231.682C75.1518 231.289 71.4336 241.003 68.5906 253.379C65.7476 265.756 64.8564 276.108 66.6 276.501Z" fill="#FCF9F6"/>
<path d="M116.283 393.066C117.811 393.989 123.072 388.137 128.034 379.996C132.996 371.856 135.78 364.509 134.251 363.586C132.723 362.664 127.462 368.515 122.5 376.656C117.538 384.797 114.754 392.144 116.283 393.066Z" fill="#FCF9F6"/>
<path d="M101.71 366.675C103.238 367.597 108.5 361.745 113.462 353.605C118.424 345.464 121.207 338.117 119.679 337.195C118.151 336.272 112.89 342.124 107.928 350.264C102.966 358.405 100.182 365.752 101.71 366.675Z" fill="#FCF9F6"/>
<path d="M144.801 430.08C145.828 430.489 148.448 426.387 150.652 420.918C152.856 415.449 153.81 410.684 152.783 410.275C151.756 409.867 149.137 413.969 146.933 419.438C144.729 424.907 143.774 429.671 144.801 430.08Z" fill="#FCF9F6"/>
<path d="M72.1976 301.404C71.5143 303.053 61.4199 300.485 49.6512 295.669C37.8824 290.852 28.8959 285.611 29.5792 283.961C30.2625 282.312 40.3569 284.88 52.1256 289.697C63.8944 294.513 72.8809 299.755 72.1976 301.404Z" fill="#FCF9F6"/>
<path d="M65.0301 279.856C65.1397 281.635 54.9245 283.734 42.2139 284.544C29.5034 285.354 19.1106 284.569 19.0011 282.79C18.8915 281.011 29.1067 278.913 41.8173 278.102C54.5278 277.292 64.9206 278.078 65.0301 279.856Z" fill="#FCF9F6"/>
<path d="M132.266 415.845C133.955 416.426 137.481 410.718 140.141 403.096C142.801 395.473 143.588 388.822 141.899 388.24C140.209 387.659 136.683 393.367 134.023 400.99C131.363 408.613 130.577 415.263 132.266 415.845Z" fill="#FCF9F6"/>
<path d="M135.054 457.151C135.521 458.871 142.232 458.544 150.045 456.421C157.858 454.298 163.813 451.183 163.346 449.463C162.88 447.744 156.169 448.071 148.356 450.194C140.543 452.317 134.588 455.432 135.054 457.151Z" fill="#FCF9F6"/>
<path d="M48.0771 310.58C47.1629 312.115 54.2245 317.961 63.8495 323.639C73.4746 329.316 82.0184 332.675 82.9326 331.141C83.8468 329.606 76.7852 323.76 67.1602 318.082C57.5351 312.404 48.9913 309.046 48.0771 310.58Z" fill="#FCF9F6"/>
<path d="M108.248 437.022C108.497 438.786 116.548 439.096 126.231 437.713C135.913 436.331 143.56 433.78 143.311 432.015C143.061 430.251 135.01 429.941 125.328 431.324C115.646 432.706 107.999 435.258 108.248 437.022Z" fill="#FCF9F6"/>
<path d="M55.5771 328.62C54.6629 330.155 61.7245 336.001 71.3495 341.679C80.9746 347.357 89.5184 350.715 90.4326 349.181C91.3468 347.646 84.2852 341.8 74.6602 336.122C65.0351 330.444 56.4913 327.086 55.5771 328.62Z" fill="#FCF9F6"/>
<path d="M165.253 419.95C163.287 419.276 159.975 423.673 157.857 429.772C155.739 435.87 155.616 441.359 157.582 442.033C159.548 442.707 162.86 438.309 164.978 432.211C167.096 426.113 167.219 420.624 165.253 419.95Z" fill="#FCF9F6"/>
<path d="M122.37 406.915C123.202 404.89 114.424 399.416 102.766 394.687C91.1069 389.958 80.9816 387.766 80.1501 389.791C79.3186 391.816 88.0958 397.29 99.7546 402.019C111.413 406.748 121.539 408.94 122.37 406.915Z" fill="#FCF9F6"/>
<path d="M114.429 393.52C115.163 392.023 107.28 386.704 96.8235 381.641C86.3668 376.577 77.2954 373.686 76.5621 375.184C75.8288 376.682 83.7112 382 94.168 387.064C104.625 392.127 113.696 395.018 114.429 393.52Z" fill="#FCF9F6"/>
<path d="M58.8715 353.199C58.1708 354.841 67.101 360.177 78.8177 365.118C90.5345 370.058 100.601 372.732 101.302 371.09C102.002 369.448 93.072 364.112 81.3553 359.172C69.6386 354.232 59.5723 351.558 58.8715 353.199Z" fill="#FCF9F6"/>
<path d="M53.6837 239.708C54.8645 237.863 47.2144 230.911 36.5968 224.181C25.9791 217.45 16.4146 213.489 15.2337 215.334C14.0529 217.179 21.703 224.131 32.3207 230.862C42.9383 237.593 52.5029 241.554 53.6837 239.708Z" fill="#FCF9F6"/>
<path d="M17.7348 240.786C17.0341 242.428 25.9643 247.764 37.681 252.704C49.3977 257.645 59.4641 260.319 60.1648 258.677C60.8655 257.035 51.9353 251.699 40.2186 246.759C28.5019 241.818 18.4355 239.145 17.7348 240.786Z" fill="#FCF9F6"/>
<path d="M71.8547 293.669C73.4411 294.489 79.4969 286.018 85.3806 274.749C91.2643 263.48 94.748 253.68 93.1615 252.861C91.5751 252.041 85.5194 260.512 79.6356 271.781C73.7519 283.05 70.2683 292.85 71.8547 293.669Z" fill="#FCF9F6"/>
<path d="M134.971 51.5557C123.094 200.331 144.255 292.827 202.706 333.277" stroke="#A69B88" stroke-width="2" stroke-linecap="round" stroke-linejoin="round"/>
<path d="M135.05 177.044C136.402 178.211 144.264 171.388 152.609 161.805C160.955 152.221 166.625 143.506 165.272 142.339C163.92 141.172 156.059 147.994 147.713 157.578C139.367 167.161 133.698 175.876 135.05 177.044Z" fill="#FCF9F6"/>
<path d="M135.327 51.4979C137.52 51.5612 139.633 40.1099 140.046 25.9207C140.458 11.7316 139.015 0.177741 136.821 0.114503C134.628 0.0512647 132.515 11.5026 132.102 25.6917C131.69 39.8809 133.133 51.4347 135.327 51.4979Z" fill="#FCF9F6"/>
<path d="M151.46 266.011C152.058 263.909 142.712 259.432 130.585 256.01C118.458 252.589 108.142 251.52 107.544 253.622C106.946 255.724 116.292 260.201 128.419 263.622C140.546 267.044 150.862 268.113 151.46 266.011Z" fill="#FCF9F6"/>
<path d="M166.488 122.338C164.965 120.764 156.372 126.546 147.294 135.252C138.216 143.957 132.09 152.29 133.613 153.864C135.135 155.437 143.728 149.656 152.807 140.95C161.885 132.244 168.01 123.911 166.488 122.338Z" fill="#FCF9F6"/>
<path d="M134.56 76.4848C136.055 77.465 142.948 69.6732 149.957 59.0814C156.966 48.4896 161.437 39.1086 159.942 38.1284C158.448 37.1481 151.554 44.9399 144.545 55.5317C137.536 66.1235 133.066 75.5045 134.56 76.4848Z" fill="#FCF9F6"/>
<path d="M133.242 108.913C134.775 109.831 141.34 101.763 147.905 90.8922C154.469 80.0216 158.547 70.4651 157.013 69.547C155.48 68.629 148.915 76.6971 142.35 87.5677C135.786 98.4382 131.708 107.995 133.242 108.913Z" fill="#FCF9F6"/>
<path d="M144.055 235.163C145.219 236.516 152.044 232.599 159.299 226.414C166.554 220.229 171.492 214.118 170.328 212.765C169.164 211.412 162.339 215.328 155.084 221.513C147.829 227.698 142.891 233.809 144.055 235.163Z" fill="#FCF9F6"/>
<path d="M138.449 205.54C139.613 206.893 146.438 202.976 153.693 196.791C160.949 190.606 165.887 184.495 164.723 183.142C163.559 181.789 156.734 185.705 149.478 191.89C142.223 198.075 137.285 204.186 138.449 205.54Z" fill="#FCF9F6"/>
<path d="M130.786 134.319C129.622 135.673 120.834 130.082 111.157 121.832C101.48 113.583 94.5782 105.798 95.7421 104.445C96.9061 103.091 105.694 108.682 115.372 116.931C125.049 125.181 131.95 132.966 130.786 134.319Z" fill="#FCF9F6"/>
<path d="M130.705 111.61C130.254 113.334 119.894 112.14 107.565 108.941C95.237 105.743 85.6088 101.753 86.06 100.029C86.5112 98.3049 96.871 99.4998 109.199 102.698C121.528 105.896 131.156 109.886 130.705 111.61Z" fill="#FCF9F6"/>
<path d="M152.131 261.793C153.555 262.872 158.686 258.55 163.593 252.139C168.5 245.727 171.323 239.654 169.9 238.574C168.476 237.494 163.345 241.817 158.438 248.228C153.531 254.64 150.708 260.713 152.131 261.793Z" fill="#FCF9F6"/>
<path d="M141.884 301.905C141.791 303.684 148.269 305.468 156.354 305.89C164.439 306.312 171.069 305.212 171.162 303.433C171.256 301.653 164.778 299.869 156.693 299.447C148.608 299.025 141.978 300.126 141.884 301.905Z" fill="#FCF9F6"/>
<path d="M105.005 135.508C103.658 136.68 108.541 144.439 115.913 152.838C123.285 161.236 130.353 167.094 131.701 165.922C133.048 164.749 128.165 156.991 120.793 148.592C113.421 140.194 106.353 134.336 105.005 135.508Z" fill="#FCF9F6"/>
<path d="M122.702 274.413C122.388 276.167 129.941 278.975 139.571 280.684C149.201 282.392 157.262 282.356 157.576 280.602C157.89 278.848 150.338 276.04 140.708 274.332C131.078 272.623 123.016 272.659 122.702 274.413Z" fill="#FCF9F6"/>
<path d="M106.501 154.988C105.154 156.16 110.037 163.919 117.409 172.317C124.781 180.716 131.849 186.574 133.197 185.401C134.544 184.229 129.661 176.47 122.289 168.072C114.917 159.673 107.849 153.815 106.501 154.988Z" fill="#FCF9F6"/>
<path d="M145.515 250.22C146.937 248.556 140.308 240.615 130.708 232.483C121.108 224.351 112.172 219.108 110.75 220.772C109.329 222.436 115.958 230.377 125.558 238.509C135.158 246.641 144.093 251.884 145.515 250.22Z" fill="#FCF9F6"/>
<path d="M142.154 235.016C143.318 233.822 137.49 226.308 129.136 218.234C120.783 210.159 113.067 204.581 111.903 205.775C110.739 206.969 116.567 214.482 124.92 222.557C133.274 230.632 140.99 236.21 142.154 235.016Z" fill="#FCF9F6"/>
<path d="M101.958 179.366C100.78 180.707 107.598 188.564 117.187 196.915C126.776 205.266 135.505 210.949 136.683 209.608C137.861 208.267 131.043 200.41 121.454 192.059C111.865 183.708 103.136 178.025 101.958 179.366Z" fill="#FCF9F6"/>
<path d="M132.457 69.9269C134.155 68.5427 129.057 59.5499 121.071 49.8411C113.085 40.1322 105.235 33.3838 103.537 34.768C101.839 36.1523 106.937 45.145 114.923 54.8538C122.909 64.5627 130.759 71.3112 132.457 69.9269Z" fill="#FCF9F6"/>
<path d="M97.9697 59.7307C96.7914 61.0717 103.61 68.9286 113.199 77.2796C122.788 85.6305 131.517 91.3132 132.695 89.9721C133.873 88.6311 127.055 80.7742 117.466 72.4232C107.876 64.0723 99.1479 58.3896 97.9697 59.7307Z" fill="#FCF9F6"/>
<path d="M132.875 126.864C134.126 128.138 142.524 121.98 151.631 113.111C160.738 104.242 167.107 96.0194 165.856 94.7457C164.604 93.472 156.207 99.6294 147.099 108.499C137.992 117.368 131.623 125.59 132.875 126.864Z" fill="#FCF9F6"/>
<path d="M1270.42 482.363C1298.7 445.926 1320.81 448.319 1344.11 464.785C1310.46 484.642 1295.89 491.365 1270.42 482.363Z" fill="white"/>
<path d="M1330.19 464.785C1273.56 467.895 1252.27 481.627 1251.88 549.185M1270.42 482.363C1298.7 445.926 1320.81 448.319 1344.11 464.785C1310.46 484.642 1295.89 491.365 1270.42 482.363Z" stroke="#A69B88" stroke-width="2" stroke-linecap="round" stroke-linejoin="round"/>
<path d="M1304.75 411.662C1263.94 423.601 1253.08 435.904 1248.39 457.563C1287.79 453.68 1303.19 443.569 1304.75 411.662Z" fill="white" stroke="#A69B88" stroke-width="2" stroke-linecap="round" stroke-linejoin="round"/>
<path d="M1298.21 421.235C1287.55 436.528 1276.75 444.362 1248.6 456.96" stroke="#A69B88" stroke-width="2" stroke-linecap="round" stroke-linejoin="round"/>
<path d="M1229.14 481.797C1221.99 450.663 1208.56 426.797 1171.82 436.822C1196.39 472.695 1208.97 482.595 1229.03 481.802C1229.07 481.8 1229.1 481.799 1229.14 481.797Z" fill="white"/>
<path d="M1183.67 441.269C1210.67 444.961 1243.67 490.176 1251.73 552.072M1171.82 436.822C1208.56 426.797 1221.99 450.663 1229.14 481.797C1209.02 482.631 1196.43 472.761 1171.82 436.822Z" stroke="#A69B88" stroke-width="2" stroke-linecap="round" stroke-linejoin="round"/>
<path d="M1229.1 434.115C1237.15 413.371 1224.34 380.849 1205.09 364.588C1189.69 394.126 1196.49 409.154 1229.1 434.115Z" fill="white"/>
<path d="M1229.1 434.115C1237.15 413.371 1224.34 380.849 1205.09 364.588C1189.69 394.126 1196.49 409.154 1229.1 434.115ZM1229.1 434.115C1212.11 407.868 1205.38 394.554 1206.15 377.22M1229.1 434.115C1237.86 459.601 1242.96 477.068 1248.28 510.012" stroke="#A69B88" stroke-width="2" stroke-linecap="round" stroke-linejoin="round"/>
<path d="M1254.12 395.794C1258.2 369.634 1250.77 354.828 1226.22 328.26C1212.23 355.31 1216.11 370.157 1254.12 395.794Z" fill="white"/>
<path d="M1254.12 395.794C1258.2 369.634 1250.77 354.828 1226.22 328.26C1212.23 355.31 1216.11 370.157 1254.12 395.794ZM1254.12 395.794C1238.56 377.996 1232.47 366.124 1227.5 340.678" stroke="#A69B88" stroke-width="2" stroke-linecap="round" stroke-linejoin="round"/>
<path d="M1252.09 412.91C1271.68 376.442 1287.2 370.718 1317.96 381.669C1288.85 409.071 1275.15 417.609 1252.09 412.91Z" fill="white"/>
<path d="M1252.09 412.91C1271.68 376.442 1287.2 370.718 1317.96 381.669C1288.85 409.071 1275.15 417.609 1252.09 412.91ZM1252.09 412.91C1271.42 394.149 1283.28 388.604 1305.57 384.302" stroke="#A69B88" stroke-width="2" stroke-linecap="round" stroke-linejoin="round"/>
<path d="M1295.43 302C1289.68 343.566 1282.14 356.646 1263.08 366.688C1256.77 328.906 1260.97 312.833 1295.43 302Z" fill="white"/>
<path d="M1263.08 366.688C1282.14 356.646 1289.68 343.566 1295.43 302C1260.97 312.833 1256.77 328.906 1263.08 366.688ZM1263.08 366.688C1268.64 338.628 1273.75 326.485 1287.46 313.102" stroke="#A69B88" stroke-width="2" stroke-linecap="round" stroke-linejoin="round"/>
<path d="M1252.45 552.353C1244.13 478.368 1242.74 437.328 1262.66 367.148" stroke="#A69B88" stroke-width="2" stroke-linecap="round" stroke-linejoin="round"/>
<path d="M1573.75 548.173V141.264" stroke="#A69B88" stroke-width="2" stroke-linecap="round" stroke-linejoin="round"/>
<path d="M1479.05 313.21C1536.57 365.669 1561.21 403.131 1573.04 503.921" stroke="#A69B88" stroke-width="2" stroke-linecap="round" stroke-linejoin="round"/>
<path d="M1643.73 239.221C1655.86 391.262 1634.24 485.788 1574.51 527.125" stroke="#A69B88" stroke-width="2" stroke-linecap="round" stroke-linejoin="round"/>
<path d="M1572.37 150.626C1570.8 151.562 1564.1 143.311 1557.4 132.195C1550.71 121.08 1546.55 111.309 1548.12 110.373C1549.68 109.436 1556.38 117.688 1563.08 128.803C1569.78 139.919 1573.94 149.689 1572.37 150.626Z" fill="#FCF9F6"/>
<path d="M1479.01 313.084C1477.94 314.556 1468.53 309.561 1458.01 301.927C1447.49 294.294 1439.83 286.912 1440.91 285.441C1441.98 283.969 1451.39 288.965 1461.91 296.598C1472.43 304.232 1480.09 311.613 1479.01 313.084Z" fill="#FCF9F6"/>
<path d="M1643.65 367.463C1642.27 368.656 1634.23 361.683 1625.7 351.89C1617.18 342.096 1611.38 333.189 1612.76 331.997C1614.15 330.804 1622.18 337.776 1630.71 347.57C1639.24 357.364 1645.03 366.27 1643.65 367.463Z" fill="#FCF9F6"/>
<path d="M1574.89 140.169C1572.7 139.688 1573.47 127.814 1576.62 113.649C1579.76 99.4838 1584.08 88.3909 1586.27 88.8723C1588.46 89.3538 1587.69 101.227 1584.55 115.393C1581.4 129.558 1577.08 140.651 1574.89 140.169Z" fill="#FCF9F6"/>
<path d="M1643.36 239.162C1641.12 239.227 1638.96 227.524 1638.54 213.024C1638.12 198.523 1639.59 186.716 1641.84 186.651C1644.08 186.587 1646.24 198.289 1646.66 212.79C1647.08 227.29 1645.6 239.098 1643.36 239.162Z" fill="#FCF9F6"/>
<path d="M1479.71 312.382C1477.55 312.959 1472.74 302.066 1468.97 288.052C1465.21 274.038 1463.91 262.209 1466.08 261.632C1468.25 261.056 1473.05 271.948 1476.82 285.962C1480.58 299.976 1481.88 311.805 1479.71 312.382Z" fill="#FCF9F6"/>
<path d="M1575.95 166.084C1574.22 164.669 1579.43 155.479 1587.59 145.557C1595.75 135.635 1603.77 128.739 1605.51 130.153C1607.24 131.568 1602.03 140.758 1593.87 150.68C1585.71 160.602 1577.69 167.499 1575.95 166.084Z" fill="#FCF9F6"/>
<path d="M1576.01 256.347C1574.27 254.932 1579.48 245.742 1587.64 235.82C1595.81 225.898 1603.83 219.002 1605.56 220.416C1607.3 221.831 1602.09 231.021 1593.93 240.943C1585.77 250.865 1577.74 257.761 1576.01 256.347Z" fill="#FCF9F6"/>
<path d="M1575.82 321.013C1574.37 319.313 1581.15 311.197 1590.96 302.887C1600.77 294.577 1609.9 289.218 1611.35 290.919C1612.8 292.62 1606.03 300.735 1596.22 309.045C1586.41 317.355 1577.28 322.714 1575.82 321.013Z" fill="#FCF9F6"/>
<path d="M1626.88 458.384C1626.27 456.236 1635.82 451.66 1648.21 448.164C1660.6 444.668 1671.14 443.575 1671.76 445.723C1672.37 447.871 1662.82 452.447 1650.42 455.943C1638.03 459.439 1627.49 460.532 1626.88 458.384Z" fill="#FCF9F6"/>
<path d="M1442.4 312.579C1442.91 310.406 1453.49 311.031 1466.03 313.976C1478.57 316.92 1488.31 321.068 1487.8 323.241C1487.28 325.414 1476.7 324.789 1464.17 321.845C1451.63 318.901 1441.88 314.752 1442.4 312.579Z" fill="#FCF9F6"/>
<path d="M1506.49 392.501C1507.26 390.404 1517.69 392.266 1529.79 396.661C1541.89 401.056 1551.08 406.319 1550.31 408.417C1549.54 410.514 1539.11 408.652 1527.01 404.257C1514.91 399.862 1505.72 394.599 1506.49 392.501Z" fill="#FCF9F6"/>
<path d="M1493.6 373.951C1494.11 371.778 1504.69 372.403 1517.23 375.348C1529.77 378.292 1539.51 382.44 1539 384.613C1538.48 386.786 1527.9 386.161 1515.37 383.217C1502.83 380.273 1493.08 376.124 1493.6 373.951Z" fill="#FCF9F6"/>
<path d="M1611.52 311.558C1613.07 309.95 1621.86 315.858 1631.13 324.755C1640.41 333.652 1646.67 342.168 1645.12 343.776C1643.56 345.384 1634.78 339.475 1625.5 330.579C1616.22 321.682 1609.96 313.166 1611.52 311.558Z" fill="#FCF9F6"/>
<path d="M1478.29 349.519C1479.01 347.405 1490.36 349.325 1503.63 353.809C1516.9 358.293 1527.08 363.641 1526.36 365.756C1525.63 367.87 1514.29 365.949 1501.02 361.466C1487.75 356.982 1477.57 351.633 1478.29 349.519Z" fill="#FCF9F6"/>
<path d="M1465.42 329.656C1466.17 327.552 1476.61 329.33 1488.75 333.628C1500.89 337.926 1510.12 343.115 1509.36 345.218C1508.61 347.322 1498.17 345.543 1486.03 341.246C1473.89 336.948 1464.66 331.759 1465.42 329.656Z" fill="#FCF9F6"/>
<path d="M1514.87 416.938C1515.62 414.834 1526.07 416.613 1538.21 420.91C1550.34 425.208 1559.57 430.397 1558.82 432.501C1558.07 434.604 1547.62 432.826 1535.49 428.528C1523.35 424.231 1514.12 419.041 1514.87 416.938Z" fill="#FCF9F6"/>
<path d="M1575.8 298.625C1574.61 297.405 1580.57 289.726 1589.1 281.474C1597.64 273.223 1605.53 267.522 1606.72 268.742C1607.9 269.962 1601.95 277.641 1593.41 285.892C1584.87 294.144 1576.99 299.845 1575.8 298.625Z" fill="#FCF9F6"/>
<path d="M1503.21 335.005C1501.5 334.955 1500.4 325.315 1500.76 313.474C1501.11 301.633 1502.78 292.075 1504.49 292.125C1506.19 292.176 1507.29 301.816 1506.94 313.657C1506.58 325.498 1504.91 335.056 1503.21 335.005Z" fill="#FCF9F6"/>
<path d="M1572.44 181.643C1570.92 182.645 1563.87 174.682 1556.71 163.858C1549.55 153.033 1544.98 143.446 1546.5 142.445C1548.03 141.443 1555.08 149.406 1562.24 160.23C1569.4 171.054 1573.97 180.641 1572.44 181.643Z" fill="#FCF9F6"/>
<path d="M1644.15 264.699C1642.62 265.7 1635.58 257.738 1628.42 246.913C1621.25 236.089 1616.68 226.502 1618.21 225.5C1619.74 224.499 1626.78 232.461 1633.95 243.286C1641.11 254.11 1645.68 263.697 1644.15 264.699Z" fill="#FCF9F6"/>
<path d="M1490.6 322.595C1488.77 322.43 1488.25 311.832 1489.43 298.923C1490.61 286.013 1493.04 275.682 1494.86 275.846C1496.68 276.011 1497.2 286.61 1496.03 299.519C1494.85 312.428 1492.42 322.76 1490.6 322.595Z" fill="#FCF9F6"/>
<path d="M1571.79 321.329C1571.11 323.018 1560.76 320.461 1548.69 315.617C1536.61 310.774 1527.37 305.478 1528.06 303.79C1528.74 302.101 1539.08 304.658 1551.16 309.501C1563.24 314.345 1572.47 319.64 1571.79 321.329Z" fill="#FCF9F6"/>
<path d="M1571.65 265.219C1570.46 266.602 1561.48 260.889 1551.59 252.458C1541.7 244.028 1534.65 236.072 1535.84 234.689C1537.03 233.306 1546.01 239.019 1555.9 247.45C1565.79 255.88 1572.84 263.836 1571.65 265.219Z" fill="#FCF9F6"/>
<path d="M1645.5 297.837C1643.93 298.775 1637.22 290.53 1630.51 279.421C1623.81 268.311 1619.64 258.545 1621.2 257.607C1622.77 256.669 1629.48 264.914 1636.19 276.023C1642.9 287.132 1647.07 296.899 1645.5 297.837Z" fill="#FCF9F6"/>
<path d="M1571.78 381.241C1570.59 382.624 1563.62 378.622 1556.21 372.301C1548.79 365.98 1543.74 359.735 1544.93 358.352C1546.12 356.969 1553.1 360.972 1560.51 367.292C1567.93 373.613 1572.97 379.858 1571.78 381.241Z" fill="#FCF9F6"/>
<path d="M1634.45 426.857C1633.26 428.241 1626.28 424.238 1618.87 417.917C1611.46 411.596 1606.41 405.351 1607.6 403.968C1608.79 402.585 1615.76 406.588 1623.18 412.909C1630.59 419.229 1635.64 425.474 1634.45 426.857Z" fill="#FCF9F6"/>
<path d="M1640.17 396.585C1638.99 397.968 1632.01 393.965 1624.6 387.645C1617.18 381.324 1612.14 375.079 1613.32 373.696C1614.51 372.313 1621.49 376.315 1628.9 382.636C1636.32 388.957 1641.36 395.202 1640.17 396.585Z" fill="#FCF9F6"/>
<path d="M1571.59 404.526C1570.58 405.706 1564.88 402.504 1558.86 397.373C1552.84 392.242 1548.78 387.126 1549.8 385.946C1550.81 384.766 1556.51 387.969 1562.53 393.1C1568.55 398.23 1572.61 403.346 1571.59 404.526Z" fill="#FCF9F6"/>
<path d="M1571.71 422.481C1570.98 423.337 1566.66 420.859 1562.07 416.947C1557.48 413.035 1554.36 409.17 1555.09 408.314C1555.83 407.458 1560.15 409.936 1564.73 413.848C1569.32 417.76 1572.45 421.625 1571.71 422.481Z" fill="#FCF9F6"/>
<path d="M1570.42 490.903C1570.09 491.979 1565.14 491.419 1559.37 489.651C1553.59 487.883 1549.18 485.577 1549.51 484.5C1549.85 483.423 1554.8 483.983 1560.57 485.751C1566.35 487.519 1570.76 489.826 1570.42 490.903Z" fill="#FCF9F6"/>
<path d="M1618.56 471.89C1617.7 472.615 1613.84 469.467 1609.96 464.861C1606.08 460.254 1603.63 455.933 1604.5 455.208C1605.36 454.484 1609.21 457.631 1613.1 462.237C1616.98 466.844 1619.43 471.166 1618.56 471.89Z" fill="#FCF9F6"/>
<path d="M1535.5 352.362C1536.63 352.388 1537.43 357.285 1537.29 363.298C1537.15 369.311 1536.12 374.164 1534.98 374.138C1533.85 374.111 1533.05 369.215 1533.19 363.202C1533.33 357.189 1534.37 352.335 1535.5 352.362Z" fill="#FCF9F6"/>
<path d="M1544.66 372.31C1545.79 372.336 1546.61 376.248 1546.5 381.046C1546.39 385.844 1545.38 389.712 1544.25 389.686C1543.11 389.659 1542.29 385.748 1542.4 380.95C1542.52 376.152 1543.52 372.283 1544.66 372.31Z" fill="#FCF9F6"/>
<path d="M1571.78 360.193C1570.59 361.576 1561.61 355.863 1551.72 347.432C1541.83 339.001 1534.78 331.046 1535.97 329.662C1537.16 328.279 1546.14 333.993 1556.03 342.423C1565.92 350.854 1572.97 358.81 1571.78 360.193Z" fill="#FCF9F6"/>
<path d="M1571.7 336.985C1571.24 338.747 1560.65 337.526 1548.05 334.257C1535.45 330.989 1525.61 326.911 1526.07 325.149C1526.53 323.387 1537.12 324.608 1549.72 327.877C1562.32 331.145 1572.16 335.223 1571.7 336.985Z" fill="#FCF9F6"/>
<path d="M1648 323.802C1649.19 325.185 1658.17 319.472 1668.06 311.041C1677.95 302.611 1685.01 294.655 1683.82 293.272C1682.63 291.889 1673.65 297.602 1663.76 306.033C1653.87 314.463 1646.81 322.419 1648 323.802Z" fill="#FCF9F6"/>
<path d="M1648.09 300.593C1648.55 302.355 1659.14 301.134 1671.74 297.866C1684.34 294.598 1694.17 290.52 1693.71 288.758C1693.25 286.996 1682.67 288.217 1670.07 291.485C1657.47 294.753 1647.63 298.831 1648.09 300.593Z" fill="#FCF9F6"/>
<path d="M1572.17 243.911C1570.8 245.118 1562.69 238.226 1554.06 228.518C1545.44 218.809 1539.55 209.961 1540.92 208.755C1542.29 207.548 1550.4 214.44 1559.03 224.148C1567.65 233.856 1573.54 242.704 1572.17 243.911Z" fill="#FCF9F6"/>
<path d="M1572.9 202.566C1571.62 203.868 1563.03 197.575 1553.73 188.511C1544.42 179.447 1537.91 171.044 1539.19 169.743C1540.47 168.441 1549.05 174.734 1558.36 183.797C1567.67 192.861 1574.17 201.264 1572.9 202.566Z" fill="#FCF9F6"/>
<path d="M1602.47 163.487C1603.98 164.519 1599.22 174.014 1591.84 184.694C1584.46 195.374 1577.26 203.196 1575.75 202.164C1574.25 201.132 1579.01 191.638 1586.38 180.958C1593.76 170.277 1600.96 162.456 1602.47 163.487Z" fill="#FCF9F6"/>
<path d="M1603.3 314.846C1604.68 316.044 1599.69 323.973 1592.15 332.556C1584.62 341.139 1577.4 347.125 1576.02 345.927C1574.64 344.729 1579.63 336.8 1587.17 328.217C1594.7 319.634 1601.92 313.648 1603.3 314.846Z" fill="#FCF9F6"/>
<path d="M1518.82 313.518C1520.64 313.418 1522.63 322.564 1523.26 333.945C1523.88 345.326 1522.91 354.633 1521.08 354.733C1519.26 354.832 1517.27 345.687 1516.64 334.305C1516.02 322.924 1516.99 313.617 1518.82 313.518Z" fill="#FCF9F6"/>
<path d="M1599.84 408.465C1601.22 409.663 1597 416.71 1590.42 424.204C1583.84 431.698 1577.4 436.802 1576.02 435.604C1574.64 434.406 1578.86 427.359 1585.44 419.865C1592.01 412.371 1598.46 407.267 1599.84 408.465Z" fill="#FCF9F6"/>
<path d="M1566.24 465.129C1565.79 466.894 1558.93 466.683 1550.91 464.658C1542.89 462.633 1536.75 459.56 1537.2 457.795C1537.65 456.03 1544.52 456.241 1552.53 458.267C1560.55 460.292 1566.69 463.364 1566.24 465.129Z" fill="#FCF9F6"/>
<path d="M1626.19 454.072C1624.74 455.175 1619.5 450.758 1614.48 444.206C1609.47 437.653 1606.58 431.447 1608.04 430.344C1609.49 429.24 1614.73 433.657 1619.75 440.21C1624.76 446.762 1627.65 452.968 1626.19 454.072Z" fill="#FCF9F6"/>
<path d="M1636.66 495.065C1636.76 496.883 1630.14 498.707 1621.88 499.138C1613.61 499.569 1606.84 498.445 1606.74 496.626C1606.65 494.808 1613.27 492.984 1621.53 492.553C1629.79 492.122 1636.57 493.247 1636.66 495.065Z" fill="#FCF9F6"/>
<path d="M1589.7 487.214C1591.07 488.412 1589.13 492.871 1585.35 497.174C1581.57 501.477 1577.4 503.994 1576.02 502.795C1574.64 501.597 1576.59 497.138 1580.36 492.835C1584.14 488.532 1588.32 486.015 1589.7 487.214Z" fill="#FCF9F6"/>
<path d="M1603.3 334.754C1604.68 335.953 1599.69 343.882 1592.15 352.464C1584.62 361.047 1577.4 367.034 1576.02 365.835C1574.64 364.637 1579.63 356.708 1587.17 348.125C1594.7 339.543 1601.92 333.556 1603.3 334.754Z" fill="#FCF9F6"/>
<path d="M1674.35 325.016C1675.73 326.214 1670.74 334.143 1663.2 342.726C1655.67 351.309 1648.45 357.295 1647.07 356.097C1645.69 354.899 1650.68 346.97 1658.22 338.387C1665.75 329.804 1672.97 323.818 1674.35 325.016Z" fill="#FCF9F6"/>
<path d="M1656.27 466.971C1656.59 468.764 1648.87 471.633 1639.03 473.379C1629.19 475.125 1620.95 475.088 1620.63 473.296C1620.31 471.503 1628.03 468.634 1637.87 466.888C1647.71 465.141 1655.95 465.179 1656.27 466.971Z" fill="#FCF9F6"/>
<path d="M1672.82 344.923C1674.2 346.121 1669.21 354.05 1661.67 362.633C1654.14 371.216 1646.92 377.203 1645.54 376.004C1644.16 374.806 1649.15 366.877 1656.69 358.294C1664.22 349.712 1671.44 343.725 1672.82 344.923Z" fill="#FCF9F6"/>
<path d="M1603.49 357.759C1604.7 359.125 1599.5 365.653 1591.88 372.339C1584.26 379.025 1577.11 383.337 1575.9 381.971C1574.69 380.605 1579.88 374.078 1587.5 367.392C1595.12 360.706 1602.28 356.393 1603.49 357.759Z" fill="#FCF9F6"/>
<path d="M1597.64 429.614C1599.04 431.203 1595.31 436.767 1589.3 442.042C1583.29 447.317 1577.27 450.305 1575.87 448.715C1574.46 447.126 1578.19 441.562 1584.21 436.287C1590.22 431.012 1596.23 428.025 1597.64 429.614Z" fill="#FCF9F6"/>
<path d="M1563.44 451.786C1562.77 453.798 1553.91 452.708 1543.65 449.351C1533.39 445.994 1525.6 441.641 1526.27 439.628C1526.93 437.616 1535.79 438.706 1546.05 442.063C1556.32 445.42 1564.1 449.773 1563.44 451.786Z" fill="#FCF9F6"/>
<path d="M1593.84 457.886C1595.25 459.475 1592.36 464.294 1587.4 468.649C1582.44 473.004 1577.27 475.246 1575.87 473.657C1574.46 472.068 1577.34 467.249 1582.31 462.894C1587.27 458.539 1592.43 456.297 1593.84 457.886Z" fill="#FCF9F6"/>
<path d="M1595.47 468.579C1597.17 467.298 1601.79 470.511 1605.79 475.756C1609.79 481 1611.66 486.291 1609.97 487.572C1608.27 488.854 1603.65 485.641 1599.65 480.396C1595.65 475.151 1593.78 469.861 1595.47 468.579Z" fill="#FCF9F6"/>
<path d="M1603.49 383.144C1604.7 384.51 1599.5 391.037 1591.88 397.723C1584.26 404.409 1577.11 408.722 1575.9 407.356C1574.69 405.99 1579.88 399.463 1587.5 392.777C1595.12 386.091 1602.28 381.778 1603.49 383.144Z" fill="#FCF9F6"/>
<path d="M1611.25 245.926C1612.46 247.296 1605.49 255.326 1595.69 263.86C1585.89 272.394 1576.97 278.202 1575.77 276.831C1574.56 275.461 1581.53 267.431 1591.33 258.897C1601.13 250.363 1610.05 244.555 1611.25 245.926Z" fill="#FCF9F6"/>
<path d="M1632.95 442.245C1631.5 440.544 1638.27 432.429 1648.08 424.118C1657.9 415.808 1667.03 410.45 1668.48 412.15C1669.93 413.851 1663.16 421.966 1653.35 430.277C1643.54 438.587 1634.41 443.945 1632.95 442.245Z" fill="#FCF9F6"/>
<path d="M1636.39 426.708C1635.2 425.488 1641.15 417.809 1649.69 409.557C1658.23 401.306 1666.11 395.605 1667.3 396.825C1668.49 398.045 1662.54 405.724 1654 413.975C1645.46 422.227 1637.58 427.928 1636.39 426.708Z" fill="#FCF9F6"/>
<path d="M1677.46 369.836C1678.67 371.207 1671.7 379.236 1661.9 387.77C1652.1 396.304 1643.18 402.112 1641.98 400.741C1640.77 399.371 1647.74 391.341 1657.54 382.807C1667.34 374.273 1676.26 368.466 1677.46 369.836Z" fill="#FCF9F6"/>
<path d="M1646.3 257.996C1644.56 256.581 1649.77 247.391 1657.93 237.469C1666.1 227.547 1674.12 220.651 1675.85 222.066C1677.59 223.48 1672.38 232.67 1664.22 242.592C1656.06 252.514 1648.03 259.411 1646.3 257.996Z" fill="#FCF9F6"/>
<path d="M1681.54 247.575C1682.75 248.946 1675.78 256.975 1665.98 265.509C1656.18 274.044 1647.26 279.851 1646.06 278.481C1644.85 277.11 1651.82 269.081 1661.62 260.546C1671.42 252.012 1680.34 246.205 1681.54 247.575Z" fill="#FCF9F6"/>
<path d="M1606.52 193.06C1607.91 194.242 1602.19 203.192 1593.73 213.051C1585.28 222.909 1577.3 229.943 1575.91 228.761C1574.52 227.578 1580.24 218.628 1588.7 208.77C1597.15 198.911 1605.13 191.878 1606.52 193.06Z" fill="#FCF9F6"/>
<path d="M1571.62 289.3C1570.34 290.602 1561.76 284.309 1552.45 275.246C1543.14 266.182 1536.64 257.779 1537.91 256.477C1539.19 255.175 1547.78 261.468 1557.08 270.532C1566.39 279.596 1572.9 287.999 1571.62 289.3Z" fill="#FCF9F6"/>
<path d="M1572 221.333C1570.72 222.634 1562.14 216.342 1552.83 207.278C1543.53 198.214 1537.02 189.811 1538.3 188.509C1539.58 187.208 1548.16 193.5 1557.47 202.564C1566.77 211.628 1573.28 220.031 1572 221.333Z" fill="#FCF9F6"/>
<path d="M1568.51 475.945C1568.18 477.134 1561.31 476.305 1553.16 474.092C1545.01 471.88 1538.67 469.122 1539 467.933C1539.32 466.743 1546.19 467.573 1554.34 469.785C1562.49 471.998 1568.83 474.755 1568.51 475.945Z" fill="#FCF9F6"/>
<path d="M1572 308.067C1570.72 309.369 1562.14 303.076 1552.83 294.012C1543.53 284.948 1537.02 276.545 1538.3 275.244C1539.58 273.942 1548.16 280.234 1557.47 289.298C1566.77 298.362 1573.28 306.765 1572 308.067Z" fill="#FCF9F6"/>
<path d="M1645.87 316.182C1644.59 317.484 1636.01 311.191 1626.7 302.127C1617.4 293.063 1610.89 284.66 1612.17 283.359C1613.45 282.057 1622.03 288.35 1631.33 297.414C1640.64 306.478 1647.15 314.881 1645.87 316.182Z" fill="#FCF9F6"/>
<path fill-rule="evenodd" clip-rule="evenodd" d="M1677.64 570H1468.36C1478.69 547.427 1521.61 530.5 1573 530.5C1624.39 530.5 1667.31 547.427 1677.64 570ZM1356.1 570H1159.9C1176.42 552.341 1214.12 540 1258 540C1301.88 540 1339.59 552.341 1356.1 570ZM1121.61 570H929.388C946.805 553.416 983.3 542 1025.5 542C1067.7 542 1104.2 553.416 1121.61 570ZM834.098 570C817.586 552.341 779.878 540 736.001 540C692.124 540 654.416 552.341 637.904 570H834.098ZM563.114 570C545.696 553.416 509.202 542 467.001 542C424.8 542 388.306 553.416 370.888 570H563.114ZM302.098 570H105.904C122.416 552.341 160.124 540 204.001 540C247.878 540 285.586 552.341 302.098 570Z" fill="#A69B88"/>
</svg>
